<svg width="193" height="243" viewBox="0 0 193 243" fill="none" xmlns="http://www.w3.org/2000/svg">
<path d="M192.8 217.9C192.1 218.4 191.3 218.9 190.6 219.4C189.8 219.9 189.1 220.4 188.3 220.8C187.6 221.2 187 221.6 186.3 222C186.2 222.1 186.1 222.1 186 222.2C183.7 223.6 181.3 224.9 178.9 226.1C178.2 226.5 177.4 226.9 176.7 227.2C176.7 227.2 176.6 227.3 176.5 227.3C175.7 227.7 174.9 228.1 174.1 228.5C172.5 229.3 170.8 230 169.2 230.7C168.4 231.1 167.5 231.4 166.7 231.7C165.9 232 165 232.4 164.2 232.7C163.4 233 162.5 233.4 161.7 233.7C161.7 233.7 161.7 233.7 161.6 233.7C160.8 234 159.9 234.3 159.1 234.6C157.3 235.2 155.4 235.8 153.6 236.4C153 236.6 152.3 236.8 151.7 237C149.8 237.6 147.9 238.1 146 238.5C145.3 238.7 144.6 238.8 143.8 239C142 239.4 140.1 239.8 138.3 240.2C137.9 240.3 137.6 240.3 137.2 240.4C136.6 240.5 135.9 240.6 135.3 240.7C134.4 240.8 133.6 241 132.7 241.1C132.3 241.2 131.9 241.2 131.5 241.3C131 241.4 130.4 241.5 129.8 241.5C128.2 241.7 126.5 241.9 124.9 242.1C124.4 242.2 123.8 242.2 123.3 242.3H123.2C122.5 242.4 121.8 242.4 121.1 242.5C120.4 242.6 119.7 242.6 119 242.6C118.6 242.6 118.1 242.7 117.7 242.7C116.9 242.7 116.2 242.8 115.5 242.8C114.5 242.8 113.6 242.9 112.6 242.9C111.6 242.9 110.7 242.9 109.7 242.9C109 242.9 108.3 242.9 107.6 242.9C65.4999 242.3 27.4999 224.4 0.499902 196C0.499902 196 0.499902 195.9 0.399902 195.9C3.4999 189.8 14.9999 178.8 26.9999 169.7C42.1999 158.2 63.6999 151.1 63.6999 151.1C63.6999 151.1 77.7999 148.8 130.1 159.7C170 168.1 187 202.2 192.8 217.9Z" fill="#AD827B"/>
<path d="M141.2 187.4C139.1 197.7 125.5 203.8 102.6 194.6C74.4997 183.2 63.6997 151.1 63.6997 151.1C62.1997 128.1 58.6997 108.4 58.6997 108.4C91.1997 105.6 129.6 143.6 129.6 143.6L134 162.4C134.4 164 135.2 165.4 136.4 166.4C138.5 170 142.6 180.8 141.2 187.4Z" fill="#AD827B"/>
<path d="M136.4 166.5C117.3 165.5 103.2 162.7 88.1001 135.6C100.9 146.9 116 151.2 131.9 153.2L134 162.4C134.4 164.1 135.2 165.5 136.4 166.5Z" fill="#8E5650"/>
<path d="M175.9 45.9999C177.7 54.3999 178.6 61.1999 173.7 83.5999C168.8 106 178.2 128.4 154.6 148.9C138.7 162.7 110.9 165.3 88.6999 150.2C81.1999 145.1 74.2999 138 68.6999 128.7C64.2999 121.4 59.1999 114.5 53.4999 108.2C45.5999 99.5999 36.0999 82.2999 40.7999 51.6999C48.3999 1.89993 97.6999 -3.80007 126.8 1.69993C155.9 7.19993 171 23.7999 175.9 45.9999Z" fill="#AD827B"/>
<path d="M80.2001 85.0999C80.2001 85.0999 77.1001 70.0999 62.5001 71.8999C49.9001 73.4999 45.5001 103.7 74.1001 112.1" fill="#AD827B"/>
<path d="M73.1998 98.4C73.1998 98.4 69.5998 96.1 69.9998 92.1C70.5998 87.4 69.9998 84.5 67.7998 83.6C62.2998 81.3 61.1998 87.7 61.3998 88.5" stroke="#423232" stroke-width="3" stroke-miterlimit="10" stroke-linecap="round" stroke-linejoin="round"/>
<path d="M149.5 108.1C149.5 108.1 153.3 108.3 156.9 104C158.9 101.6 160.6 98.5999 159.5 97.6999C158.4 96.6999 140.3 99.4999 139.1 101.9C137.9 104.3 144.9 108.1 149.5 108.1Z" fill="#8E605C"/>
<path d="M152.5 74.5C152.5 74.5 152.7 84 158.8 94.6C161.5 99.3 157.4 107 148.5 108.3" stroke="#423232" stroke-width="3" stroke-miterlimit="10" stroke-linecap="round" stroke-linejoin="round"/>
</svg>
