<svg width="193" height="243" viewBox="0 0 193 243" fill="none" xmlns="http://www.w3.org/2000/svg">
<path d="M192.6 217.9C191.9 218.4 191.1 218.9 190.4 219.4C189.6 219.9 188.9 220.4 188.1 220.8C187.4 221.2 186.8 221.6 186.1 222C186 222.1 185.9 222.1 185.8 222.2C183.5 223.6 181.1 224.9 178.7 226.1C178 226.5 177.2 226.9 176.5 227.2C176.5 227.2 176.4 227.3 176.3 227.3C175.5 227.7 174.7 228.1 173.9 228.5C172.3 229.3 170.6 230 169 230.7C168.2 231.1 167.3 231.4 166.5 231.7C165.7 232 164.8 232.4 164 232.7C163.2 233 162.3 233.4 161.5 233.7C161.5 233.7 161.5 233.7 161.4 233.7C160.6 234 159.7 234.3 158.9 234.6C157.1 235.2 155.2 235.8 153.4 236.4C152.8 236.6 152.1 236.8 151.5 237C149.6 237.6 147.7 238.1 145.8 238.5C145.1 238.7 144.4 238.8 143.6 239C141.8 239.4 139.9 239.8 138.1 240.2C137.7 240.3 137.4 240.3 137 240.4C136.4 240.5 135.7 240.6 135.1 240.7C134.2 240.8 133.4 241 132.5 241.1C132.1 241.2 131.7 241.2 131.3 241.3C130.8 241.4 130.2 241.5 129.6 241.5C128 241.7 126.3 241.9 124.7 242.1C124.2 242.2 123.6 242.2 123.1 242.3H123C122.3 242.4 121.6 242.4 120.9 242.5C120.2 242.6 119.5 242.6 118.8 242.6C118.4 242.6 117.9 242.7 117.5 242.7C116.7 242.7 116 242.8 115.3 242.8C114.3 242.8 113.4 242.9 112.4 242.9C111.4 242.9 110.5 242.9 109.5 242.9C108.8 242.9 108.1 242.9 107.4 242.9C65.3002 242.3 27.3002 224.4 0.300195 196C0.300195 196 0.300195 195.9 0.200195 195.9C3.3002 189.8 14.8002 178.8 26.8002 169.7C42.0002 158.2 63.5002 151.1 63.5002 151.1C63.5002 151.1 77.6002 148.8 129.9 159.7C169.8 168.1 186.8 202.2 192.6 217.9Z" fill="#F7D3B5"/>
<path d="M141 187.4C138.9 197.7 125.3 203.8 102.4 194.6C74.3 183.2 63.5 151.1 63.5 151.1C62 128.1 58.5 108.4 58.5 108.4C91 105.6 129.4 143.6 129.4 143.6L133.8 162.4C134.2 164 135 165.4 136.2 166.4C138.3 170 142.4 180.8 141 187.4Z" fill="#F7D3B5"/>
<path d="M136.2 166.5C117.1 165.5 103 162.7 87.9004 135.6C100.7 146.9 115.8 151.2 131.7 153.2L133.8 162.4C134.2 164.1 135 165.5 136.2 166.5Z" fill="#EFBDA5"/>
<path d="M175.7 45.9999C177.5 54.3999 178.4 61.1999 173.5 83.5999C168.6 106 178 128.4 154.4 148.9C138.5 162.7 110.7 165.3 88.5002 150.2C81.0002 145.1 74.1002 138 68.5002 128.7C64.1002 121.4 59.0002 114.5 53.3002 108.2C45.4002 99.5999 35.9002 82.2999 40.6002 51.6999C48.2002 1.89993 97.5002 -3.80007 126.6 1.69993C155.7 7.19993 170.8 23.7999 175.7 45.9999Z" fill="#F7D3B5"/>
<path d="M80.0004 85.0999C80.0004 85.0999 76.9004 70.0999 62.3004 71.8999C49.7004 73.4999 45.3004 103.7 73.9004 112.1" fill="#F7D3B5"/>
<path d="M73.0001 98.4C73.0001 98.4 69.4001 96.1 69.8001 92.1C70.4001 87.4 69.8001 84.5 67.6001 83.6C62.1001 81.3 61.0001 87.7 61.2001 88.5" stroke="#423232" stroke-width="3" stroke-miterlimit="10" stroke-linecap="round" stroke-linejoin="round"/>
<path d="M149.3 108.1C149.3 108.1 153.1 108.3 156.7 104C158.7 101.6 160.4 98.5999 159.3 97.6999C158.2 96.6999 140.1 99.4999 138.9 101.9C137.7 104.3 144.7 108.1 149.3 108.1Z" fill="#EFBDA5"/>
<path d="M152.3 74.5C152.3 74.5 152.5 84 158.6 94.6C161.3 99.3 157.2 107 148.3 108.3" stroke="#423232" stroke-width="3" stroke-miterlimit="10" stroke-linecap="round" stroke-linejoin="round"/>
<path opacity="0.42" d="M98.1003 113.2C103.789 113.2 108.4 109.394 108.4 104.7C108.4 100.006 103.789 96.2 98.1003 96.2C92.4118 96.2 87.8003 100.006 87.8003 104.7C87.8003 109.394 92.4118 113.2 98.1003 113.2Z" fill="#ED938A"/>
<path opacity="0.42" d="M171.9 96.3999C171.6 102 171.7 107.5 171.3 113C166.9 112 163.7 108.7 163.7 104.8C163.7 100.6 167.2 97.1999 171.9 96.3999Z" fill="#ED938A"/>
</svg>
