<svg width="193" height="243" viewBox="0 0 193 243" fill="none" xmlns="http://www.w3.org/2000/svg">
<path d="M193 217.9C192.3 218.4 191.5 218.9 190.8 219.4C190 219.9 189.3 220.4 188.5 220.8C187.8 221.2 187.2 221.6 186.5 222C186.4 222.1 186.3 222.1 186.2 222.2C183.9 223.6 181.5 224.9 179.1 226.1C178.4 226.5 177.6 226.9 176.9 227.2C176.9 227.2 176.8 227.3 176.7 227.3C175.9 227.7 175.1 228.1 174.3 228.5C172.7 229.3 171 230 169.4 230.7C168.6 231.1 167.7 231.4 166.9 231.7C166.1 232 165.2 232.4 164.4 232.7C163.6 233 162.7 233.4 161.9 233.7C161.9 233.7 161.9 233.7 161.8 233.7C161 234 160.1 234.3 159.3 234.6C157.5 235.2 155.6 235.8 153.8 236.4C153.2 236.6 152.5 236.8 151.9 237C150 237.6 148.1 238.1 146.2 238.5C145.5 238.7 144.8 238.8 144 239C142.2 239.4 140.3 239.8 138.5 240.2C138.1 240.3 137.8 240.3 137.4 240.4C136.8 240.5 136.1 240.6 135.5 240.7C134.6 240.8 133.8 241 132.9 241.1C132.5 241.2 132.1 241.2 131.7 241.3C131.2 241.4 130.6 241.5 130 241.5C128.4 241.7 126.7 241.9 125.1 242.1C124.6 242.2 124 242.2 123.5 242.3H123.4C122.7 242.4 122 242.4 121.3 242.5C120.6 242.6 119.9 242.6 119.2 242.6C118.8 242.6 118.3 242.7 117.9 242.7C117.1 242.7 116.4 242.8 115.7 242.8C114.7 242.8 113.8 242.9 112.8 242.9C111.8 242.9 110.9 242.9 109.9 242.9C109.2 242.9 108.5 242.9 107.8 242.9C65.6996 242.3 27.6996 224.4 0.699609 196C0.699609 196 0.699609 195.9 0.599609 195.9C3.69961 189.8 15.1996 178.8 27.1996 169.7C42.3996 158.2 63.8996 151.1 63.8996 151.1C63.8996 151.1 77.9996 148.8 130.3 159.7C170.2 168.1 187.2 202.2 193 217.9Z" fill="#FEE4BF"/>
<path d="M141.399 187.4C139.299 197.7 125.699 203.8 102.799 194.6C74.6994 183.2 63.8994 151.1 63.8994 151.1C62.3994 128.1 58.8994 108.4 58.8994 108.4C91.3994 105.6 129.799 143.6 129.799 143.6L134.199 162.4C134.599 164 135.399 165.4 136.599 166.4C138.699 170 142.799 180.8 141.399 187.4Z" fill="#FEE4BF"/>
<path d="M136.6 166.5C117.5 165.5 103.4 162.7 88.2998 135.6C101.1 146.9 116.2 151.2 132.1 153.2L134.2 162.4C134.6 164.1 135.4 165.5 136.6 166.5Z" fill="#EFBDA5"/>
<path d="M176.1 45.9999C177.9 54.3999 178.8 61.1999 173.9 83.5999C169 106 178.4 128.4 154.8 148.9C138.9 162.7 111.1 165.3 88.8996 150.2C81.3996 145.1 74.4996 138 68.8996 128.7C64.4996 121.4 59.3996 114.5 53.6996 108.2C45.7996 99.5999 36.2996 82.2999 40.9996 51.6999C48.5996 1.89993 97.8996 -3.80007 127 1.69993C156.1 7.19993 171.2 23.7999 176.1 45.9999Z" fill="#FEE4BF"/>
<path d="M80.3998 85.0999C80.3998 85.0999 77.2998 70.0999 62.6998 71.8999C50.0998 73.4999 45.6998 103.7 74.2998 112.1" fill="#FEE4BF"/>
<path d="M73.3995 98.4C73.3995 98.4 69.7995 96.1 70.1995 92.1C70.7995 87.4 70.1995 84.5 67.9995 83.6C62.4995 81.3 61.3995 87.7 61.5995 88.5" stroke="#423232" stroke-width="3" stroke-miterlimit="10" stroke-linecap="round" stroke-linejoin="round"/>
<path d="M149.7 108.1C149.7 108.1 153.5 108.3 157.1 104C159.1 101.6 160.8 98.5999 159.7 97.6999C158.6 96.6999 140.5 99.4999 139.3 101.9C138.1 104.3 145.1 108.1 149.7 108.1Z" fill="#EFBDA5"/>
<path d="M152.7 74.5C152.7 74.5 152.9 84 159 94.6C161.7 99.3 157.6 107 148.7 108.3" stroke="#423232" stroke-width="3" stroke-miterlimit="10" stroke-linecap="round" stroke-linejoin="round"/>
<path opacity="0.42" d="M98.4997 113.2C104.188 113.2 108.8 109.394 108.8 104.7C108.8 100.006 104.188 96.2 98.4997 96.2C92.8112 96.2 88.1997 100.006 88.1997 104.7C88.1997 109.394 92.8112 113.2 98.4997 113.2Z" fill="#F2A5B2"/>
<path opacity="0.42" d="M172.3 96.3999C172 102 172.1 107.5 171.7 113C167.3 112 164.1 108.7 164.1 104.8C164.1 100.6 167.6 97.1999 172.3 96.3999Z" fill="#F2A5B2"/>
</svg>
