<svg width="193" height="243" viewBox="0 0 193 243" fill="none" xmlns="http://www.w3.org/2000/svg">
<path d="M192.4 217.897C191.7 218.397 190.9 218.897 190.2 219.397C189.4 219.897 188.7 220.397 187.9 220.797C187.2 221.197 186.6 221.597 185.9 221.997C185.8 222.097 185.7 222.097 185.6 222.197C183.3 223.597 180.9 224.897 178.5 226.097C177.8 226.497 177 226.897 176.3 227.197C176.3 227.197 176.2 227.297 176.1 227.297C175.3 227.697 174.5 228.097 173.7 228.497C172.1 229.297 170.4 229.997 168.8 230.697C168 231.097 167.1 231.397 166.3 231.697C165.5 231.997 164.6 232.397 163.8 232.697C163 232.997 162.1 233.397 161.3 233.697C161.3 233.697 161.3 233.697 161.2 233.697C160.4 233.997 159.5 234.297 158.7 234.597C156.9 235.197 155 235.797 153.2 236.397C152.6 236.597 151.9 236.797 151.3 236.997C149.4 237.597 147.5 238.097 145.6 238.497C144.9 238.697 144.2 238.797 143.4 238.997C141.6 239.397 139.7 239.797 137.9 240.197C137.5 240.297 137.2 240.297 136.8 240.397C136.2 240.497 135.5 240.597 134.9 240.697C134 240.797 133.2 240.997 132.3 241.097C131.9 241.197 131.5 241.197 131.1 241.297C130.6 241.397 130 241.497 129.4 241.497C127.8 241.697 126.1 241.897 124.5 242.097C124 242.197 123.4 242.197 122.9 242.297H122.8C122.1 242.397 121.4 242.397 120.7 242.497C120 242.597 119.3 242.597 118.6 242.597C118.2 242.597 117.7 242.697 117.3 242.697C116.5 242.697 115.8 242.797 115.1 242.797C114.1 242.797 113.2 242.897 112.2 242.897C111.2 242.897 110.3 242.897 109.3 242.897C108.6 242.897 107.9 242.897 107.2 242.897C65.1 242.297 27.1 224.397 0.1 195.997C0.1 195.997 0.1 195.897 0 195.897C3.1 189.797 14.6 178.797 26.6 169.697C41.8 158.197 63.3 151.097 63.3 151.097C63.3 151.097 77.4 148.797 129.7 159.697C169.6 168.097 186.6 202.197 192.4 217.897Z" fill="#FEE4BF"/>
<path d="M140.8 187.396C138.7 197.696 125.1 203.796 102.2 194.596C74.0998 183.196 63.2998 151.097 63.2998 151.097C61.7998 128.097 58.2998 108.396 58.2998 108.396C90.7998 105.596 129.2 143.597 129.2 143.597L133.6 162.396C134 163.996 134.8 165.396 136 166.396C138.1 169.996 142.2 180.796 140.8 187.396Z" fill="#FEE4BF"/>
<path d="M136 166.496C116.9 165.496 102.8 162.696 87.7002 135.596C100.5 146.896 115.6 151.196 131.5 153.196L133.6 162.396C134 164.096 134.8 165.496 136 166.496Z" fill="#EFBD9C"/>
<path d="M175.5 45.9965C177.3 54.3965 178.2 61.1965 173.3 83.5965C168.4 105.997 177.8 128.397 154.2 148.897C138.3 162.697 110.5 165.297 88.3 150.197C80.8 145.097 73.9 137.997 68.3 128.697C63.9 121.397 58.8 114.497 53.1 108.197C45.2 99.5965 35.7 82.2965 40.4 51.6965C48 1.89651 97.3 -3.80349 126.4 1.69651C155.5 7.19652 170.6 23.7965 175.5 45.9965Z" fill="#FEE4BF"/>
<path d="M79.8002 85.0965C79.8002 85.0965 76.7002 70.0965 62.1002 71.8965C49.5002 73.4965 45.1002 103.697 73.7002 112.097" fill="#FEE4BF"/>
<path d="M72.7999 98.3966C72.7999 98.3966 69.1999 96.0966 69.5999 92.0966C70.1999 87.3966 69.5999 84.4966 67.3999 83.5966C61.8999 81.2966 60.7999 87.6966 60.9999 88.4966" stroke="#423232" stroke-width="3" stroke-miterlimit="10" stroke-linecap="round" stroke-linejoin="round"/>
<path d="M149.1 108.096C149.1 108.096 152.9 108.296 156.5 103.996C158.5 101.596 160.2 98.5964 159.1 97.6964C158 96.6964 139.9 99.4964 138.7 101.896C137.5 104.296 144.5 108.096 149.1 108.096Z" fill="#EFBD9C"/>
<path d="M152.1 74.4966C152.1 74.4966 152.3 83.9966 158.4 94.5966C161.1 99.2966 157 106.997 148.1 108.297" stroke="#423232" stroke-width="3" stroke-miterlimit="10" stroke-linecap="round" stroke-linejoin="round"/>
<path d="M167.8 129.997C167.8 130.097 167.8 130.097 167.8 129.997C167.7 130.097 167.7 130.097 167.8 129.997C165.3 136.497 161.2 142.697 154.2 148.797C138.3 162.597 110.5 165.197 88.2999 150.097C85.7999 148.397 83.3999 146.497 81.0999 144.397C79.4999 142.397 78.0999 140.297 76.8999 138.097C69.6999 124.597 72.7999 111.997 72.7999 111.997C72.7999 111.997 76.8999 112.097 81.7999 121.697C85.8999 129.697 101.7 129.397 108.2 114.397C115.4 97.6966 133.4 104.997 137.5 106.597C141.6 108.197 148 108.197 148 108.197C164.2 107.997 159.3 118.897 161 124.897C163.5 133.097 167.8 129.997 167.8 129.997Z" fill="#423232"/>
</svg>
