<svg width="194" height="243" viewBox="0 0 194 243" fill="none" xmlns="http://www.w3.org/2000/svg">
<path d="M193.2 217.9C192.5 218.4 191.7 218.9 191 219.4C190.2 219.9 189.5 220.4 188.7 220.8C188 221.2 187.4 221.6 186.7 222C186.6 222.1 186.5 222.1 186.4 222.2C184.1 223.6 181.7 224.9 179.3 226.1C178.6 226.5 177.8 226.9 177.1 227.2C177.1 227.2 177 227.3 176.9 227.3C176.1 227.7 175.3 228.1 174.5 228.5C172.9 229.3 171.2 230 169.6 230.7C168.8 231.1 167.9 231.4 167.1 231.7C166.3 232 165.4 232.4 164.6 232.7C163.8 233 162.9 233.4 162.1 233.7C162.1 233.7 162.1 233.7 162 233.7C161.2 234 160.3 234.3 159.5 234.6C157.7 235.2 155.8 235.8 154 236.4C153.4 236.6 152.7 236.8 152.1 237C150.2 237.6 148.3 238.1 146.4 238.5C145.7 238.7 145 238.8 144.2 239C142.4 239.4 140.5 239.8 138.7 240.2C138.3 240.3 138 240.3 137.6 240.4C137 240.5 136.3 240.6 135.7 240.7C134.8 240.8 134 241 133.1 241.1C132.7 241.2 132.3 241.2 131.9 241.3C131.4 241.4 130.8 241.5 130.2 241.5C128.6 241.7 126.9 241.9 125.3 242.1C124.8 242.2 124.2 242.2 123.7 242.3H123.6C122.9 242.4 122.2 242.4 121.5 242.5C120.8 242.6 120.1 242.6 119.4 242.6C119 242.6 118.5 242.7 118.1 242.7C117.3 242.7 116.6 242.8 115.9 242.8C114.9 242.8 114 242.9 113 242.9C112 242.9 111.1 242.9 110.1 242.9C109.4 242.9 108.7 242.9 108 242.9C65.8998 242.3 27.8998 224.4 0.899805 196C0.899805 196 0.899805 195.9 0.799805 195.9C3.8998 189.8 15.3998 178.8 27.3998 169.7C42.5998 158.2 64.0998 151.1 64.0998 151.1C64.0998 151.1 78.1998 148.8 130.5 159.7C170.4 168.1 187.4 202.2 193.2 217.9Z" fill="#C99589"/>
<path d="M141.6 187.4C139.5 197.7 125.9 203.8 103 194.6C74.8996 183.2 64.0996 151.1 64.0996 151.1C62.5996 128.1 59.0996 108.4 59.0996 108.4C91.5996 105.6 130 143.6 130 143.6L134.4 162.4C134.8 164 135.6 165.4 136.8 166.4C138.9 170 143 180.8 141.6 187.4Z" fill="#C99589"/>
<path d="M136.8 166.5C117.7 165.5 103.6 162.7 88.5 135.6C101.3 146.9 116.4 151.2 132.3 153.2L134.4 162.4C134.8 164.1 135.6 165.5 136.8 166.5Z" fill="#A56663"/>
<path d="M176.3 45.9999C178.1 54.3999 179 61.1999 174.1 83.5999C169.2 106 178.6 128.4 155 148.9C139.1 162.7 111.3 165.3 89.0998 150.2C81.5998 145.1 74.6998 138 69.0998 128.7C64.6998 121.4 59.5998 114.5 53.8998 108.2C45.9998 99.5999 36.4998 82.2999 41.1998 51.6999C48.7998 1.89993 98.0998 -3.80007 127.2 1.69993C156.3 7.19993 171.4 23.7999 176.3 45.9999Z" fill="#C99589"/>
<path d="M80.6 85.0999C80.6 85.0999 77.5 70.0999 62.9 71.8999C50.3 73.4999 45.9 103.7 74.5 112.1" fill="#C99589"/>
<path d="M73.5997 98.4C73.5997 98.4 69.9997 96.1 70.3997 92.1C70.9997 87.4 70.3997 84.5 68.1997 83.6C62.6997 81.3 61.5997 87.7 61.7997 88.5" stroke="#423232" stroke-width="3" stroke-miterlimit="10" stroke-linecap="round" stroke-linejoin="round"/>
<path d="M149.9 108.1C149.9 108.1 153.7 108.3 157.3 104C159.3 101.6 161 98.5999 159.9 97.6999C158.8 96.6999 140.7 99.4999 139.5 101.9C138.3 104.3 145.3 108.1 149.9 108.1Z" fill="#A56663"/>
<path d="M152.9 74.5C152.9 74.5 153.1 84 159.2 94.6C161.9 99.3 157.8 107 148.9 108.3" stroke="#423232" stroke-width="3" stroke-miterlimit="10" stroke-linecap="round" stroke-linejoin="round"/>
</svg>
