<svg width="140" height="108" viewBox="0 0 140 108" fill="none" xmlns="http://www.w3.org/2000/svg">
<path opacity="0.6" d="M83.2002 32.9258C83.2002 32.9258 73.8002 38.8258 63.2002 38.7258C52.6002 38.6258 51.3002 30.3258 51.2002 25.8258C51.2002 25.8258 52.6002 32.3258 59.0002 34.7258C65.3002 37.1258 83.2002 32.9258 83.2002 32.9258Z" fill="#B7AEA9"/>
<path opacity="0.6" d="M113.4 31.8258C113.4 31.8258 115.7 34.6258 118.8 36.6258C120.9 38.0258 123.7 36.5258 123.7 34.0258C123.8 34.0258 117.9 34.3258 113.4 31.8258Z" fill="#B7AEA9"/>
<path opacity="0.43" d="M86.9 4.62585L57.5 34.0258C59.8 35.4258 62.6 36.1258 65.4 35.7258L79.4 33.9258C83.6 33.3258 87.5 31.2258 90.5 27.7258C91.7 26.4258 92.4 24.6258 92.5 22.7258L93 12.8259C93.2 8.52585 90.5 4.92585 86.9 4.62585Z" fill="#FE9DAB"/>
<path opacity="0.3" d="M86.9001 4.62582L58.8001 2.02582C54.1001 1.62582 50.1001 5.92582 50.1001 11.3258V19.8258C50.1001 26.0258 53.1001 31.3258 57.5001 34.0258L86.9001 4.62582Z" fill="#FE9DAB"/>
<path opacity="0.3" d="M127.9 3.62578L110.3 5.92577C108 6.22577 106.3 9.52577 106.5 13.3258L106.8 22.2258C106.9 23.9258 107.3 25.5258 108 26.7258C109.2 28.7258 110.7 30.2258 112.3 31.2258L133.2 10.3258C132.8 6.32578 130.5 3.32578 127.9 3.62578Z" fill="#FE9DAB"/>
<path opacity="0.43" d="M112.4 31.3259C113.3 31.8259 114.1 32.2259 115.1 32.4259L123.8 34.1259C128.9 35.1259 133.4 28.4259 133.4 19.7259V12.1259C133.4 11.5259 133.4 11.0259 133.3 10.5259L112.4 31.3259Z" fill="#FE9DAB"/>
<path d="M86.9001 4.62582L58.8001 2.02582C54.1001 1.62582 50.1001 5.92582 50.1001 11.3258V19.8258C50.1001 29.4258 57.3001 36.8258 65.4001 35.7258L79.4001 33.9258C83.6001 33.3258 87.5001 31.2258 90.5001 27.7258C91.7001 26.4258 92.4001 24.6258 92.5001 22.7258L93.0001 12.8258C93.2001 8.52582 90.5001 4.92582 86.9001 4.62582Z" stroke="white" stroke-width="3.2375" stroke-miterlimit="10" stroke-linecap="round" stroke-linejoin="round"/>
<path d="M110.4 6.02576L128 3.72576C130.9 3.32576 133.4 7.22577 133.4 12.1258V19.7258C133.4 28.3258 128.9 35.0258 123.8 34.1258L115.1 32.4258C112.5 31.9258 110 29.9258 108.2 26.8258C107.5 25.6258 107 24.0258 107 22.3258L106.7 13.4258C106.4 9.62575 108.1 6.32576 110.4 6.02576Z" stroke="white" stroke-width="3.2375" stroke-miterlimit="10" stroke-linecap="round" stroke-linejoin="round"/>
<path d="M50.1 12.3258L27 11.8258" stroke="white" stroke-width="3" stroke-miterlimit="10" stroke-linecap="round" stroke-linejoin="round"/>
<path d="M93 13.0258C93 13.0258 105.1 10.6258 106.6 13.0258" stroke="white" stroke-width="3.2375" stroke-miterlimit="10" stroke-linecap="round" stroke-linejoin="round"/>
</svg>
