<svg width="140" height="88" viewBox="0 0 140 88" fill="none" xmlns="http://www.w3.org/2000/svg">
<path d="M127 15.5C126.9 13.8 126 12.4 124.6 11.5C121.2 9.3 114.3 5 108.9 3.3C107.7 2.9 106.5 2.69999 105.5 2.59999C101.1 2.29999 69.4003 5.1 57.8003 15.8C47.4003 25.4 51.3003 50.2 65.0003 63.4C73.7003 71.8 89.0003 76 102 71.4C106.9 69.7 111.5 66.6 115.2 62.1C127.4 47.2 127.8 25 127 15.5Z" fill="white"/>
<path d="M110.8 26.3C108.6 32.7 106.3 34.7 106.9 49.9C107.1 55.3 108 66.9 102 71.4C89.1001 76 73.8001 71.7 65.0001 63.4C51.2001 50.2 47.4001 25.5 57.8001 15.8C69.3001 5.1 101.1 2.29999 105.5 2.59999C106.5 2.69999 107.7 2.9 108.9 3.3C110 6.3 113.8 17.8 110.8 26.3Z" fill="white"/>
<path d="M57.9004 52C57.7004 52.4 57.6004 52.8 57.4004 53.2C59.4004 57 62.0004 60.5 65.0004 63.4C73.7004 71.8 89.0004 76 102 71.4C107.7 67 107.1 56.1 106.9 50.5C94.4004 56.4 95.0004 44.9 89.2004 40C78.3004 28 62.9004 42 57.9004 52Z" fill="#F4F4F4"/>
<path d="M115.3 62.1001C111.6 66.7001 107 69.7 102.1 71.4C108.1 66.9 107.2 55.3 107 49.9C106.4 34.7 108.7 32.7 110.9 26.3C113.9 17.8 110.1 6.30005 109 3.30005C114.4 5.00005 121.3 9.20005 124.7 11.5C126.1 12.4 127 13.9 127.1 15.5C127.8 25 127.4 47.2001 115.3 62.1001Z" fill="#E8E8E8"/>
<path d="M75.3998 64.4C84.5677 64.4 91.9998 56.9679 91.9998 47.8C91.9998 38.6321 84.5677 31.2 75.3998 31.2C66.2319 31.2 58.7998 38.6321 58.7998 47.8C58.7998 56.9679 66.2319 64.4 75.3998 64.4Z" fill="#E8E8E8"/>
<path d="M69.6 65.4C78.7679 65.4 86.2 57.9679 86.2 48.8C86.2 39.6321 78.7679 32.2 69.6 32.2C60.4321 32.2 53 39.6321 53 48.8C53 57.9679 60.4321 65.4 69.6 65.4Z" fill="white"/>
<path d="M68.6998 59.2C74.4436 59.2 79.0998 54.5438 79.0998 48.8C79.0998 43.0563 74.4436 38.4 68.6998 38.4C62.956 38.4 58.2998 43.0563 58.2998 48.8C58.2998 54.5438 62.956 59.2 68.6998 59.2Z" fill="#BABABA"/>
<path d="M65.0996 39L64.5996 58.3" stroke="#A0A0A0" stroke-width="3" stroke-miterlimit="10" stroke-linecap="round" stroke-linejoin="round"/>
<path d="M72.3994 39L71.8994 58.3" stroke="#A0A0A0" stroke-width="3" stroke-miterlimit="10" stroke-linecap="round" stroke-linejoin="round"/>
<path d="M58.7998 52.1L78.0998 52.6" stroke="#A0A0A0" stroke-width="3" stroke-miterlimit="10" stroke-linecap="round" stroke-linejoin="round"/>
<path d="M58.7998 44.8L78.0998 45.3" stroke="#A0A0A0" stroke-width="3" stroke-miterlimit="10" stroke-linecap="round" stroke-linejoin="round"/>
<path d="M109.6 29.5C109.6 29.5 91.3001 28.9 79.1001 25.4C67.0001 21.9 91.4001 34.8 109.6 36C127.8 37.2 109.6 29.5 109.6 29.5Z" fill="#E8E8E8"/>
<path d="M67.1 13.8C67.1 13.8 48.4 13.5 33 1.90002" stroke="white" stroke-width="3" stroke-miterlimit="10" stroke-linecap="round" stroke-linejoin="round"/>
<path d="M53.8002 44.4C53.8002 44.4 38.6002 40.4 23.7002 28.4" stroke="white" stroke-width="3" stroke-miterlimit="10" stroke-linecap="round" stroke-linejoin="round"/>
</svg>
