<svg width="145" height="121" viewBox="0 0 145 121" fill="none" xmlns="http://www.w3.org/2000/svg">
<path opacity="0.6" d="M110.234 47.3892C110.234 47.3892 111.434 54.1892 119.334 57.5892C121.334 58.3892 123.434 57.0892 123.434 54.8892C123.334 54.8892 110.734 48.1892 110.234 47.3892Z" fill="#B7AEA9"/>
<path opacity="0.6" d="M91.2344 30.9892C91.2344 30.9892 97.6344 24.5892 100.834 23.8892L92.3344 25.8892L91.2344 30.9892Z" fill="#B7AEA9"/>
<path opacity="0.6" d="M48.5347 47.3893C48.5347 47.3893 52.2347 55.7892 63.3347 57.7892C74.4347 59.8892 84.5347 51.8893 89.2347 38.4893C89.2347 38.4893 85.4347 50.8893 70.2347 53.1893C55.1347 55.6893 48.5347 47.3893 48.5347 47.3893Z" fill="#B7AEA9"/>
<path opacity="0.29" d="M66.4344 2.48926C52.3344 2.48926 40.8344 14.2893 40.7344 28.6893C40.7344 35.4893 43.2344 41.6893 47.3344 46.1893L83.6344 9.48926C79.1344 5.08926 73.1344 2.48926 66.4344 2.48926Z" fill="#DBC3ED"/>
<path opacity="0.23" d="M83.635 9.48926L47.335 46.1893C51.935 51.2893 58.435 54.3893 65.635 54.3893C79.535 54.3893 90.935 42.8892 91.335 28.5892C91.535 21.0892 88.535 14.2893 83.635 9.48926Z" fill="#C4ADD8"/>
<path opacity="0.29" d="M124.935 2.48926C114.235 2.48926 105.235 14.2893 104.835 28.6893C104.635 34.4893 105.935 39.7892 108.135 44.0892L139.835 12.6893C136.535 6.48925 131.135 2.48926 124.935 2.48926Z" fill="#DBC3ED"/>
<path opacity="0.23" d="M139.835 12.5891L108.135 43.9891C111.435 50.2891 116.835 54.3891 123.135 54.3891C133.635 54.3891 142.635 42.8891 143.235 28.5891C143.435 22.6891 142.135 17.0891 139.835 12.5891Z" fill="#C4ADD8"/>
<path d="M91.3348 28.6893C91.0348 42.9893 79.5348 54.4893 65.6348 54.4893C51.7348 54.4893 40.6348 42.9893 40.6348 28.6893C40.7348 14.2893 52.2348 2.48926 66.3348 2.48926C80.4348 2.48926 91.7348 14.2893 91.3348 28.6893Z" stroke="#4EC2DD" stroke-width="3" stroke-miterlimit="10" stroke-linecap="round" stroke-linejoin="round"/>
<path d="M143.234 28.6893C142.634 42.9893 133.634 54.4893 123.134 54.4893C112.634 54.4893 104.434 42.9893 104.834 28.6893C105.234 14.2893 114.234 2.48926 124.934 2.48926C135.634 2.48926 143.834 14.2893 143.234 28.6893Z" stroke="#4EC2DD" stroke-width="3" stroke-miterlimit="10" stroke-linecap="round" stroke-linejoin="round"/>
<path d="M40.9344 25.8892H26.7344" stroke="#4EC2DD" stroke-width="3" stroke-miterlimit="10" stroke-linecap="round" stroke-linejoin="round"/>
<path d="M91.4346 25.8892C91.4346 25.8892 103.335 21.2892 104.835 25.8892" stroke="#4EC2DD" stroke-width="3" stroke-miterlimit="10" stroke-linecap="round" stroke-linejoin="round"/>
</svg>
