<svg width="140" height="109" viewBox="0 0 140 109" fill="none" xmlns="http://www.w3.org/2000/svg">
<path d="M83.5002 33.5H60.2002C54.1002 33.5 49.2002 28.6 49.2002 22.5V13C49.2002 6.9 54.1002 2 60.2002 2H83.5002C89.6002 2 94.5002 6.9 94.5002 13V22.5C94.5002 28.6 89.5002 33.5 83.5002 33.5Z" stroke="#423232" stroke-width="3" stroke-miterlimit="10" stroke-linecap="round" stroke-linejoin="round"/>
<path d="M123.7 2H112.2C108.2 2 104.9 5.3 104.9 9.3V18C106.3 23 108.3 27.8 111.3 32.1C111.6 32.1 111.9 32.2 112.2 32.2H123.7C127.7 32.2 131 28.9 131 24.9V9.3C131.1 5.2 127.8 2 123.7 2Z" stroke="#423232" stroke-width="3" stroke-miterlimit="10" stroke-linecap="round" stroke-linejoin="round"/>
<path d="M94.5 11.1C97.9 10.7 102.2 10.4 105.8 10.8" stroke="#423232" stroke-width="3" stroke-miterlimit="10" stroke-linecap="round" stroke-linejoin="round"/>
<path d="M49.2 11.8L26 12.6001" stroke="#423232" stroke-width="3" stroke-miterlimit="10" stroke-linecap="round" stroke-linejoin="round"/>
</svg>
