<svg width="140" height="198" viewBox="0 0 140 198" fill="none" xmlns="http://www.w3.org/2000/svg">
<path d="M20.7139 4.89827C20.7139 4.89827 12.7139 3.69827 13.3139 14.8983C13.6139 20.5983 13.6139 23.6983 13.5139 25.2983C13.4139 26.3983 14.1139 27.3983 15.1139 27.7983C16.3139 28.2983 17.6139 27.7983 18.2139 26.5983C19.1139 24.9983 20.1139 22.7983 20.1139 20.9983C20.1139 17.9983 23.3139 15.2983 23.3139 15.2983C23.3139 15.2983 20.4139 12.7983 20.7139 4.89827Z" fill="white"/>
<path d="M44.9139 197.698C44.1139 196.798 12.7139 143.098 17.4139 122.898C20.6139 108.998 16.4139 92.9983 12.7139 78.8983C11.2139 73.0983 9.81387 67.6983 9.01387 62.8983C7.61387 54.5983 8.61387 46.6983 12.0139 39.3983C15.7139 31.1983 15.1139 24.0983 15.1139 23.9983L17.1139 23.7983C17.1139 24.0983 17.7139 31.5983 13.8139 40.1983C10.6139 47.0983 9.71387 54.6983 11.0139 62.5983C11.8139 67.2983 13.2139 72.6983 14.7139 78.4983C18.5139 92.7983 22.7139 109.098 19.4139 123.498C15.0139 142.698 46.3139 196.398 46.5139 196.598L44.9139 197.698Z" fill="white"/>
<path d="M13.614 20.6982C13.714 22.8982 13.614 24.3982 13.614 25.2982C13.514 26.3982 14.214 27.3982 15.214 27.7982C16.414 28.2982 17.714 27.7982 18.314 26.5982C19.214 24.9982 20.214 22.7982 20.214 20.9982C20.214 20.8982 20.214 20.6982 20.214 20.5982C18.114 21.3982 15.714 21.9982 13.614 20.6982Z" fill="#E5E5E5"/>
<path d="M107.714 87.1982C107.014 91.7982 106.914 99.0982 106.714 107.598C106.414 123.998 96.7139 187.898 92.0139 197.998L90.2139 197.198C94.7139 187.398 104.414 123.798 104.714 107.598C104.914 99.0982 105.014 91.6982 105.714 86.8982C107.214 76.7982 106.114 69.1982 105.514 65.9982C105.814 65.6982 106.114 65.4982 106.414 65.1982C106.714 64.9982 106.914 64.6982 107.214 64.4982C107.814 67.0982 109.514 75.3982 107.714 87.1982Z" fill="white"/>
</svg>
