<svg width="140" height="88" viewBox="0 0 140 88" fill="none" xmlns="http://www.w3.org/2000/svg">
<path d="M20.2702 18.9666L21.9702 22.3666C22.2702 22.9666 22.8702 23.3666 23.4702 23.4666L27.2702 24.0666C28.9702 24.2666 29.5702 26.3666 28.3702 27.5666L25.6702 30.2666C25.1702 30.7666 24.9702 31.3666 25.0702 32.0666L25.6702 35.8666C25.9702 37.5666 24.1702 38.7666 22.6702 38.0666L19.2702 36.2666C18.6702 35.9666 17.9702 35.9666 17.3702 36.2666L13.9702 38.0666C12.4702 38.8666 10.6702 37.5666 10.9702 35.8666L11.5702 32.0666C11.6702 31.3666 11.4702 30.7666 10.9702 30.2666L8.27018 27.5666C7.07018 26.3666 7.77017 24.3666 9.37017 24.0666L13.1702 23.4666C13.8702 23.3666 14.3702 22.9666 14.6702 22.3666L16.3702 18.9666C17.3702 17.3666 19.5702 17.3666 20.2702 18.9666Z" fill="#FFDE55"/>
<path d="M127.771 30.1665C127.271 30.6665 127.071 31.3666 127.171 31.9666L127.771 35.7666C128.071 37.4666 126.271 38.7666 124.771 37.9666L122.771 36.8665C123.471 31.9665 123.671 26.9666 123.771 21.9666L123.97 22.3665C124.27 22.9665 124.87 23.3666 125.47 23.4666L129.271 23.9666C130.971 24.1666 131.671 26.2666 130.371 27.4666L127.771 30.1665Z" fill="#FFDE55"/>
</svg>
