<svg width="163" height="84" viewBox="0 0 163 84" fill="none" xmlns="http://www.w3.org/2000/svg">
<path d="M53.6193 78.6224C53.6193 78.6224 14.7193 81.3224 2.31934 78.1224C2.31934 78.1224 4.31934 33.7224 18.6193 15.4224C32.9193 -2.87756 98.5193 -2.97756 120.619 5.22243C140.619 12.7224 143.219 56.7224 143.219 56.7224L53.6193 78.6224Z" fill="#3F3C3C"/>
<path d="M143.219 56.7224L57.4195 77.7224C56.9195 66.2224 55.7194 30.8224 61.6194 17.4224C68.7194 1.32244 110.019 1.42244 127.319 9.62244C141.119 23.1224 143.219 56.7224 143.219 56.7224Z" fill="white"/>
<path d="M162.519 75.2224C162.519 87.3224 142.919 81.9224 142.919 81.9224C143.819 73.4224 143.019 68.7224 141.819 63.4224C141.419 61.8224 141.019 60.2224 140.619 58.6224C147.019 57.9224 151.819 59.7224 155.219 62.3224C160.319 66.3224 162.519 72.3224 162.519 75.2224Z" fill="#BAAEA6"/>
<path d="M101.219 36.9224C107.792 36.9224 113.119 31.5946 113.119 25.0224C113.119 18.4502 107.792 13.1224 101.219 13.1224C94.6471 13.1224 89.3193 18.4502 89.3193 25.0224C89.3193 31.5946 94.6471 36.9224 101.219 36.9224Z" fill="white"/>
<path d="M113.119 25.0225C113.119 30.5225 109.419 35.0225 104.419 36.5225C99.4192 35.1225 95.7192 30.5225 95.7192 25.0225C95.7192 19.5225 99.4192 14.9225 104.419 13.5225C109.419 15.0225 113.119 19.6225 113.119 25.0225Z" fill="#6BD5E1"/>
<path d="M119.519 25.0225C119.519 31.6225 114.219 36.9225 107.619 36.9225C107.319 36.9225 107.019 36.9225 106.719 36.9225C106.519 36.9225 106.219 36.9225 106.019 36.8225C105.819 36.8225 105.519 36.7225 105.219 36.7225C104.919 36.6225 104.719 36.6225 104.419 36.5225C109.419 35.1225 113.119 30.5225 113.119 25.0225C113.119 19.5225 109.419 15.0225 104.419 13.5225C104.619 13.4225 104.919 13.4225 105.219 13.3225C105.419 13.3225 105.619 13.2225 105.819 13.2225C105.919 13.2225 106.019 13.2225 106.219 13.2225C106.419 13.2225 106.519 13.2225 106.719 13.2225C107.019 13.2225 107.319 13.2225 107.719 13.2225C114.219 13.1225 119.519 18.4225 119.519 25.0225Z" fill="#FFD98E"/>
<path d="M101.219 14.1224C107.219 14.1224 112.119 19.0224 112.119 25.0224C112.119 31.0224 107.219 35.9224 101.219 35.9224C95.2193 35.9224 90.3193 31.0224 90.3193 25.0224C90.3193 19.0224 95.2193 14.1224 101.219 14.1224ZM101.219 13.1224C94.6193 13.1224 89.3193 18.4224 89.3193 25.0224C89.3193 31.6224 94.6193 36.9224 101.219 36.9224C107.819 36.9224 113.119 31.6224 113.119 25.0224C113.119 18.4224 107.719 13.1224 101.219 13.1224Z" fill="#4C4C4C"/>
<path d="M57.6194 68.7225C57.6194 68.7225 21.8194 70.7225 4.21938 69.7225C3.21938 69.6225 3.21938 68.8225 3.21938 67.8225L3.31938 66.0225C3.31938 66.0225 1.41938 66.5225 0.619381 69.1225C0.219381 70.5225 -0.0806185 73.9225 0.0193815 76.0225C0.119381 77.3225 1.01938 78.4225 2.31938 78.6225C8.11938 79.6225 27.6194 82.0225 53.6194 78.7225C53.6194 78.6225 57.0194 72.9225 57.6194 68.7225Z" fill="#332E2E"/>
<path d="M155.119 62.3224C150.919 59.1224 144.619 57.2224 136.019 59.4224C131.119 60.7224 125.319 63.3224 118.719 67.7224C86.4191 89.6224 53.6191 78.6224 53.6191 78.6224C53.6191 78.6224 54.6191 73.7224 58.2191 67.7224C63.5191 58.9224 74.5191 47.7224 96.6191 46.3224C116.019 45.1224 130.319 48.8224 140.019 53.0224C149.619 57.2224 154.619 61.8224 155.119 62.3224Z" fill="white"/>
<path d="M58.2192 67.7224C63.5192 58.9224 74.5192 47.7224 96.6192 46.3224C116.019 45.1224 130.319 48.8224 140.019 53.0224" stroke="#E8E7E6" stroke-width="3" stroke-miterlimit="10" stroke-linecap="round" stroke-linejoin="round"/>
</svg>
