<svg width="140" height="93" viewBox="0 0 140 93" fill="none" xmlns="http://www.w3.org/2000/svg">
<path d="M113.174 15.0185C110.474 11.7185 106.974 9.41854 102.774 9.31854C98.3738 9.21854 91.4738 10.2185 84.5738 15.7185C75.5738 22.9185 57.5737 21.8185 50.4737 21.1185C48.4737 20.9185 46.5738 21.9185 45.6738 23.7185C43.6738 27.7185 40.9738 36.0185 42.2738 49.4185C43.9738 67.7185 58.8738 84.3185 79.8738 82.9185C107.474 81.2185 123.574 59.0185 124.574 29.3185C124.374 21.1185 119.474 22.8185 113.174 15.0185Z" fill="white"/>
<path d="M76.2739 21.1187C76.2739 21.1187 118.374 40.1186 121.974 26.3186" stroke="#EDF3F4" stroke-width="3" stroke-miterlimit="10" stroke-linecap="round" stroke-linejoin="round"/>
<path d="M59.2739 34.7188C59.2739 34.7188 101.774 59.0188 120.874 45.8188" stroke="#EDF3F4" stroke-width="3" stroke-miterlimit="10" stroke-linecap="round" stroke-linejoin="round"/>
<path d="M57.7739 51.9187C57.7739 51.9187 79.6739 71.6187 111.174 64.5187" stroke="#EDF3F4" stroke-width="3" stroke-miterlimit="10" stroke-linecap="round" stroke-linejoin="round"/>
<path d="M63.5736 22.8186C63.5736 22.8186 59.3737 28.6186 57.6737 43.9186C55.6737 62.3186 64.3736 77.6186 64.3736 77.6186" stroke="#EDF3F4" stroke-width="3" stroke-miterlimit="10" stroke-linecap="round" stroke-linejoin="round"/>
<path d="M49.6737 23.6186C49.6737 23.6186 38.1737 15.6186 30.0737 1.8186" stroke="white" stroke-width="3" stroke-miterlimit="10" stroke-linecap="round" stroke-linejoin="round"/>
<path d="M24.1738 32.9187C26.4738 40.4187 32.1738 52.6187 46.5738 63.6187" stroke="white" stroke-width="3" stroke-miterlimit="10" stroke-linecap="round" stroke-linejoin="round"/>
</svg>
