<svg width="146" height="88" viewBox="0 0 146 88" fill="none" xmlns="http://www.w3.org/2000/svg">
<path d="M47.9998 43.1001C47.9998 49.3001 45.4998 55.5001 41.0998 59.8001C36.6998 64.2001 30.5998 66.7001 24.3998 66.7001C18.1998 66.7001 11.9998 64.2001 7.6998 59.8001C3.2998 55.4001 0.799805 49.3001 0.799805 43.1001C0.799805 36.9001 3.2998 30.7001 7.6998 26.4001C12.0998 22.0001 18.1998 19.5001 24.3998 19.5001C30.5998 19.5001 36.7998 22.0001 41.0998 26.4001C45.4998 30.8001 48.0998 36.9001 47.9998 43.1001ZM44.9998 43.1001C45.2998 37.7001 43.2998 32.1001 39.4998 27.9001C37.5998 25.8001 35.1998 24.2001 32.5998 23.0001C29.9998 21.9001 27.1998 21.3001 24.2998 21.3001C21.4998 21.3001 18.5998 21.9001 15.9998 23.0001C13.3998 24.2001 10.9998 25.8001 9.0998 27.9001C5.2998 32.1001 3.2998 37.6001 3.5998 43.1001C3.6998 43.8001 3.8998 44.4001 4.0998 45.1001C4.3998 45.7001 4.8998 46.3001 5.3998 46.9001C5.6998 47.2001 5.9998 47.4001 6.3998 47.6001C6.7998 47.8001 7.0998 48.0001 7.4998 48.2001C7.8998 48.4001 8.2998 48.5001 8.7998 48.6001C9.2998 48.7001 9.69981 48.8001 10.1998 48.9001C10.6998 49.0001 11.1998 49.0001 11.7998 49.0001C12.2998 49.0001 12.8998 49.0001 13.4998 48.9001C14.0998 48.8001 14.6998 48.7001 15.2998 48.5001C15.8998 48.3001 16.4998 48.2001 16.9998 47.9001C17.5998 47.7001 18.1998 47.4001 18.7998 47.1001C19.3998 46.8001 19.9998 46.5001 20.4998 46.1001C21.5998 45.4001 22.6998 44.5001 23.5998 43.6001C24.5998 42.7001 25.3998 41.7001 26.1998 40.6001C26.5998 40.0001 26.8998 39.5001 27.2998 38.9001C27.5998 38.3001 27.8998 37.7001 28.0998 37.2001C28.2998 36.6001 28.4998 36.1001 28.6998 35.5001C28.7998 35.2001 28.8998 34.9001 28.8998 34.6001L29.0998 33.8001C29.1998 33.2001 29.2998 32.7001 29.2998 32.2001C29.2998 31.7001 29.2998 31.2001 29.2998 30.7001C29.2998 30.2001 29.1998 29.7001 29.0998 29.3001C28.9998 28.8001 28.8998 28.5001 28.6998 28.1001C28.3998 27.2001 27.9998 26.6001 27.4998 26.1001C26.9998 25.5001 26.4998 25.1001 25.8998 24.9001C25.2998 24.6001 24.6998 24.5001 24.0998 24.5001C23.4998 24.5001 22.8998 24.6001 22.2998 24.9001C21.6998 25.1001 21.1998 25.5001 20.6998 26.1001C20.1998 26.6001 19.7998 27.3001 19.4998 28.1001C19.2998 28.5001 19.1998 28.9001 19.0998 29.3001C18.9998 29.7001 18.8998 30.2001 18.8998 30.7001C18.8998 31.2001 18.7998 31.7001 18.8998 32.2001C18.8998 32.7001 18.9998 33.3001 19.0998 33.8001L19.2998 34.6001C19.3998 34.9001 19.4998 35.2001 19.4998 35.5001C19.6998 36.1001 19.8998 36.6001 20.0998 37.2001C20.2998 37.7001 20.5998 38.3001 20.8998 38.9001C21.1998 39.5001 21.5998 40.0001 21.9998 40.6001C22.6998 41.7001 23.5998 42.7001 24.5998 43.6001C25.4998 44.5001 26.5998 45.3001 27.6998 46.1001C28.1998 46.4001 28.7998 46.8001 29.3998 47.1001C29.9998 47.4001 30.5998 47.7001 31.1998 47.9001C31.7998 48.1001 32.2998 48.3001 32.8998 48.5001C33.4998 48.7001 34.0998 48.8001 34.6998 48.9001C35.2998 49.0001 35.7998 49.0001 36.3998 49.0001C36.9998 49.0001 37.4998 49.0001 37.9998 48.9001C38.4998 48.8001 38.9998 48.7001 39.3998 48.6001C39.8998 48.5001 40.2998 48.3001 40.6998 48.2001C41.0998 48.0001 41.4998 47.8001 41.7998 47.6001C42.1998 47.4001 42.4998 47.1001 42.7998 46.9001C43.2998 46.4001 43.7998 45.8001 44.0998 45.1001C44.7998 44.5001 44.9998 43.8001 44.9998 43.1001Z" fill="url(#paint0_linear_112_3761)"/>
<path d="M24.3999 22.5C23.5999 22.5 22.8999 21.8 22.8999 21V17.8C22.8999 17 23.5999 16.3 24.3999 16.3C25.1999 16.3 25.8999 17 25.8999 17.8V21C25.8999 21.8 25.1999 22.5 24.3999 22.5Z" fill="url(#paint1_linear_112_3761)"/>
<path d="M140.8 43.1001C140.8 49.3001 138.3 55.5001 133.9 59.8001C129.5 64.2001 123.4 66.8001 117.2 66.7001C115.3 66.7001 113.3 66.5001 111.4 66.0001C111.7 65.7001 112.1 65.4001 112.4 65.1001C118.8 59.6001 122.8 53.9001 125.3 48.1001C125.5 48.2001 125.8 48.2001 126 48.3001C126.6 48.5001 127.2 48.6001 127.8 48.7001C128.4 48.8001 128.9 48.8001 129.5 48.8001C130.1 48.8001 130.6 48.8001 131.1 48.7001C131.6 48.7001 132.1 48.5001 132.5 48.4001C133 48.3001 133.4 48.2001 133.8 48.0001C134.2 47.8001 134.6 47.6001 134.9 47.4001C135.3 47.2001 135.6 46.9001 135.9 46.7001C136.4 46.2001 136.9 45.6001 137.2 44.9001C137.5 44.3001 137.7 43.6001 137.7 42.9001C138 37.5001 136 31.9001 132.2 27.7001C131.4 26.8001 130.4 26.0001 129.4 25.2001C129.4 24.4001 129.5 23.6001 129.5 22.7001C131 23.7001 132.5 24.8001 133.7 26.1001C138.3 30.8001 140.9 36.9001 140.8 43.1001Z" fill="url(#paint2_linear_112_3761)"/>
<defs>
<linearGradient id="paint0_linear_112_3761" x1="24.3825" y1="101.166" x2="24.3825" y2="13.5317" gradientUnits="userSpaceOnUse">
<stop stop-color="#FF7300"/>
<stop offset="0.1086" stop-color="#FF8D08"/>
<stop offset="0.2899" stop-color="#FFB214"/>
<stop offset="0.4716" stop-color="#FFCF1E"/>
<stop offset="0.6514" stop-color="#FFE325"/>
<stop offset="0.8286" stop-color="#FFF029"/>
<stop offset="1" stop-color="#FFF42A"/>
</linearGradient>
<linearGradient id="paint1_linear_112_3761" x1="24.3827" y1="10.7641" x2="24.3827" y2="20.7287" gradientUnits="userSpaceOnUse">
<stop stop-color="#FF7300"/>
<stop offset="0.1086" stop-color="#FF8D08"/>
<stop offset="0.2899" stop-color="#FFB214"/>
<stop offset="0.4716" stop-color="#FFCF1E"/>
<stop offset="0.6514" stop-color="#FFE325"/>
<stop offset="0.8286" stop-color="#FFF029"/>
<stop offset="1" stop-color="#FFF42A"/>
</linearGradient>
<linearGradient id="paint2_linear_112_3761" x1="126.133" y1="101.166" x2="126.133" y2="13.5317" gradientUnits="userSpaceOnUse">
<stop stop-color="#FF7300"/>
<stop offset="0.1086" stop-color="#FF8D08"/>
<stop offset="0.2899" stop-color="#FFB214"/>
<stop offset="0.4716" stop-color="#FFCF1E"/>
<stop offset="0.6514" stop-color="#FFE325"/>
<stop offset="0.8286" stop-color="#FFF029"/>
<stop offset="1" stop-color="#FFF42A"/>
</linearGradient>
</defs>
</svg>
