<svg width="140" height="88" viewBox="0 0 140 88" fill="none" xmlns="http://www.w3.org/2000/svg">
<path d="M18.4946 20.9V37.9" stroke="#FFDE55" stroke-width="3" stroke-miterlimit="10" stroke-linecap="round" stroke-linejoin="round"/>
<path d="M31.9947 60.7C29.2947 63.4 25.5947 65.1 21.3947 65.1C13.2947 65.1 6.59473 58.5 6.59473 50.3C6.59473 42.2 13.1947 35.5 21.3947 35.5C25.4947 35.5 29.2947 37.2 31.9947 39.9C30.1947 38.9 28.1947 38.3 25.9947 38.3C19.3947 38.3 13.9947 43.7 13.9947 50.3C13.9947 56.9 19.3947 62.3 25.9947 62.3C28.1947 62.4 30.1947 61.8 31.9947 60.7Z" fill="#FFDE55"/>
<path d="M18.4947 56.3C21.7532 56.3 24.3947 53.6585 24.3947 50.4C24.3947 47.1415 21.7532 44.5 18.4947 44.5C15.2363 44.5 12.5947 47.1415 12.5947 50.4C12.5947 53.6585 15.2363 56.3 18.4947 56.3Z" fill="#FF6B57"/>
<path d="M132.595 40.1001C130.795 39.1001 128.795 38.5001 126.595 38.5001C124.995 38.5001 123.595 38.8001 122.195 39.4001C122.395 38.2001 122.695 37 122.795 35.8C126.695 35.9 130.095 37.5001 132.595 40.1001Z" fill="#FFDE55"/>
<path d="M132.695 60.7C129.995 63.4 126.295 65.1 122.095 65.1C117.895 65.1 113.995 63.3 111.295 60.4C112.895 58.6 114.295 56.8 115.595 55C117.395 59.3 121.695 62.2 126.595 62.2C128.795 62.4 130.895 61.8 132.695 60.7Z" fill="#FFDE55"/>
<path d="M125.095 50.4001C125.095 53.7001 122.495 56.3 119.195 56.3C117.895 56.3 116.695 55.9001 115.695 55.1001C117.995 51.7001 119.695 48.2 120.795 44.8C123.195 45.4 125.095 47.7001 125.095 50.4001Z" fill="#FF6B57"/>
</svg>
