<svg width="140" height="122" viewBox="0 0 140 122" fill="none" xmlns="http://www.w3.org/2000/svg">
<path opacity="0.6" d="M44.9482 47.9608C44.9482 47.9608 46.3482 50.9608 50.5482 51.3608C54.7482 51.7608 105.748 40.1608 107.548 40.4608C109.348 40.7608 112.348 41.8608 112.348 41.8608L124.148 49.3608L124.348 44.1608C124.348 44.1608 117.748 35.9608 101.648 36.7608C85.5483 37.5608 44.9482 47.9608 44.9482 47.9608Z" fill="#B7AEA9"/>
<path d="M47.3482 0.560703C43.4482 0.460703 40.1482 3.56071 40.1482 7.46071V16.5607C40.1482 21.1607 36.4482 24.9607 31.7482 24.9607H28.4482L31.7482 30.8607C36.3482 30.8607 40.1482 34.5607 40.1482 39.2607V42.4607C40.1482 46.7607 43.9482 49.9607 48.1482 49.3607L103.948 40.6607C105.148 40.4607 106.248 40.4607 107.448 40.5607L107.748 2.46071L47.3482 0.560703Z" fill="#5E4949"/>
<path d="M128.548 2.96072L107.848 2.36072L107.548 40.4607C109.248 40.6607 110.848 41.0607 112.348 41.8607L123.548 47.4607C126.448 48.8607 129.848 46.9607 130.148 43.7607L133.248 8.16072C133.448 5.46072 131.348 3.06072 128.548 2.96072Z" fill="#423232"/>
<path d="M62.2479 16.4607L120.148 17.7607C123.348 17.8607 125.848 20.6607 125.448 23.8607C125.148 26.6607 122.848 28.7607 120.048 28.7607H62.1479C59.0479 28.7607 56.5479 26.1607 56.6479 23.0607L56.7479 21.7607C56.8479 18.6607 59.3479 16.4607 62.2479 16.4607Z" fill="#E26076" stroke="#423232" stroke-width="3" stroke-miterlimit="10" stroke-linecap="round" stroke-linejoin="round"/>
<path d="M69.4482 24.5607H63.9482C62.8482 24.5607 61.9482 23.6607 61.9482 22.5607C61.9482 21.4607 62.8482 20.5607 63.9482 20.5607H69.4482C70.5482 20.5607 71.4482 21.4607 71.4482 22.5607C71.3482 23.6607 70.5482 24.5607 69.4482 24.5607Z" fill="white"/>
</svg>
