<svg width="250" height="194" viewBox="0 0 250 194" fill="none" xmlns="http://www.w3.org/2000/svg">
<path d="M152.167 170.863C159.467 168.963 165.967 165.663 171.267 161.063C194.867 140.663 185.467 118.163 190.367 95.7626C191.967 88.5626 192.867 82.9626 193.467 78.4626C192.667 78.3626 191.767 78.2626 190.867 78.0626C187.267 77.5626 184.867 74.2626 185.267 70.6626C185.467 69.1626 185.567 67.6626 185.667 66.0626C185.267 65.9626 185.367 65.9626 184.967 65.9626C184.367 67.8626 183.667 69.8626 183.167 71.7626C182.267 74.7626 179.367 76.6626 176.367 76.4626H176.267C172.767 76.1626 170.167 73.2626 170.167 69.7626C170.267 67.2626 170.267 64.7626 170.367 62.2626C169.967 62.1626 170.167 62.2626 169.767 62.1626C169.267 64.7626 168.767 67.3626 168.267 70.0626C167.667 73.3626 164.767 75.6626 161.467 75.4626C152.867 75.0626 144.367 74.9626 136.667 74.9626C133.267 74.9626 130.467 72.4626 130.167 69.0626C129.667 64.6626 128.967 60.2626 127.767 55.7626C126.467 59.7626 126.467 63.9626 126.667 68.2626C126.867 71.9626 123.967 75.0626 120.267 75.1626C111.367 75.3626 105.367 75.6626 104.367 75.7626C104.667 89.4626 101.567 104.663 96.0666 94.3626C95.6666 93.6626 95.3666 92.9626 94.9666 92.0626C92.6666 87.9626 88.0666 83.0626 79.3666 84.1626C67.1666 85.7626 62.6666 114.063 88.2666 123.463C88.3666 125.563 88.8666 127.663 89.7666 129.863C93.6666 139.363 95.3666 147.263 95.3666 153.763C95.3666 191.463 33.6666 175.763 16.2666 141.563C9.56662 128.263 9.46661 112.263 22.1666 95.4626C53.2666 57.3626 43.9666 71.8626 50.8666 49.2626C62.1666 12.2626 87.9666 0.462634 122.167 0.762634C122.167 0.762634 179.067 0.76263 194.167 14.5626C209.267 28.3626 204.067 71.4626 202.767 75.3626C202.367 76.5626 201.367 77.2626 200.267 77.7626C199.667 97.4626 201.667 104.363 208.667 120.263C223.967 155.263 195.067 188.563 152.167 170.863Z" fill="#423232"/>
<path d="M96.0668 94.4626C95.6668 93.7626 95.3668 93.0626 94.9668 92.1626C95.3668 92.9626 95.7668 93.7626 96.0668 94.4626Z" fill="#FEE4BF"/>
</svg>
