<svg width="250" height="197" viewBox="0 0 250 197" fill="none" xmlns="http://www.w3.org/2000/svg">
<path d="M192.347 89.5763C195.047 74.3763 194.247 68.3763 192.647 61.2763C192.147 59.0763 191.547 56.9763 190.847 54.8763C185.547 50.6763 179.947 47.9763 171.447 46.7763C148.547 43.6763 130.447 45.7763 111.147 49.9763C99.0469 52.5763 101.547 94.3763 96.8469 99.8763C96.0469 97.0763 92.1469 85.6763 79.3469 87.2763C67.2469 88.7763 62.6469 116.776 87.6469 126.376C87.4469 131.876 82.3469 142.076 78.2469 144.376C78.2469 144.376 77.5469 137.076 69.5469 127.476C61.5469 117.876 45.5469 92.9763 56.3469 56.5763C67.1469 20.1763 116.047 1.17627 161.547 19.6763C169.347 22.8763 175.747 27.3763 180.847 32.0763C192.847 43.0763 199.247 59.0763 197.347 75.1763C196.847 80.5763 195.347 85.7763 192.347 89.5763Z" fill="#423232"/>
<path d="M176.747 44.0763C176.747 44.0763 147.247 89.2763 92.2473 75.2763C92.2473 75.2763 81.5474 48.3763 104.847 38.0763C128.247 27.8763 171.147 35.0763 176.747 44.0763Z" fill="#423232"/>
<path d="M173.647 44.6763C173.647 44.6763 177.447 55.1763 184.947 63.6763C189.847 69.1763 196.247 73.7763 204.247 73.9763C204.247 73.9763 206.747 46.7763 188.947 36.1763C171.147 25.4763 173.647 44.6763 173.647 44.6763Z" fill="#423232"/>
<path d="M100.547 27.3763C100.547 27.3763 68.3473 -22.7237 40.0473 13.5763C11.7473 49.8763 42.6473 144.676 25.4473 173.176C25.4473 173.176 45.1473 158.876 50.3473 130.876C50.3473 130.876 50.9473 142.476 47.4473 158.676C47.4473 158.676 68.3473 134.576 68.3473 105.676C68.3473 76.7763 89.2473 34.7763 100.547 27.3763Z" fill="#423232"/>
<path d="M194.147 83.7763C197.747 99.0763 194.147 125.576 194.147 125.576C194.147 125.576 238.147 55.6763 202.547 29.1763C172.547 6.77626 107.847 29.5763 107.847 29.5763C107.847 29.5763 168.547 14.9763 180.347 42.8763C191.147 68.0763 192.347 59.3763 195.747 74.3763C196.247 75.8763 193.647 81.6763 194.147 83.7763Z" fill="#423232"/>
</svg>
