<svg width="250" height="206" viewBox="0 0 250 206" fill="none" xmlns="http://www.w3.org/2000/svg">
<path d="M192.205 99.5314C194.905 84.3314 194.105 78.3313 192.505 71.2313C192.005 69.0313 191.405 66.9313 190.705 64.8313C184.405 62.0313 179.205 69.8313 170.605 68.6313C147.705 65.5313 130.205 55.7313 110.905 59.9313C98.8047 62.5313 96.8047 73.4314 100.305 93.5314C101.305 99.0314 101.305 104.331 96.6047 109.831C95.8047 107.031 91.9047 95.6314 79.1047 97.2314C67.0047 98.7314 62.4047 126.731 87.4047 136.331C87.2047 141.831 82.1047 152.031 78.0047 154.331C78.0047 154.331 77.3047 147.031 69.3047 137.431C61.3047 127.831 45.3047 102.931 56.1047 66.5314C66.9047 30.1314 115.805 11.1313 161.305 29.6313C169.105 32.8313 175.505 37.3314 180.605 42.0314C192.605 53.0314 199.005 69.0313 197.105 85.1313C196.705 90.5313 195.205 95.7314 192.205 99.5314Z" fill="#423232"/>
<path d="M89.9047 36.5312C89.9047 36.5312 92.8047 4.43123 75.4047 0.531234C58.0047 -3.36877 64.0047 15.6312 69.4047 27.5312C69.4047 27.5312 48.6047 8.93123 39.5047 21.5312C30.8047 33.6312 52.6047 46.8312 52.6047 46.8312C52.6047 46.8312 20.3047 49.4312 27.1047 67.8312C34.0047 86.2312 69.4047 62.2312 69.4047 62.2312C69.4047 62.2312 89.8047 43.4312 89.9047 36.5312Z" fill="#423232"/>
</svg>
