<svg width="250" height="202" viewBox="0 0 250 202" fill="none" xmlns="http://www.w3.org/2000/svg">
<path d="M218.223 169.807C212.623 157.407 208.323 159.107 212.223 147.907C216.123 136.807 211.123 128.907 200.823 118.407C191.023 108.407 190.023 97.5072 190.323 95.9072C189.423 100.107 189.023 104.407 188.823 108.607C188.523 114.207 188.623 119.707 188.223 125.207C187.423 137.507 184.523 149.607 171.323 161.007C165.523 166.007 158.123 169.607 149.923 171.307C147.723 178.007 151.023 182.807 158.223 183.607C165.423 184.407 168.423 195.207 184.723 200.307C209.123 208.207 223.823 182.207 218.223 169.807Z" fill="#423232"/>
<path d="M172.623 48.8072C174.723 49.9072 176.523 48.9072 177.623 46.7072C189.223 44.9072 191.923 68.1072 192.323 69.5072C192.723 71.0072 192.923 75.2072 192.123 86.7072C191.623 93.1072 228.823 47.7072 194.823 28.5072C197.323 24.8072 195.523 6.40718 174.623 1.90718C167.123 0.307182 157.323 7.30718 145.023 4.60718C96.9232 -6.09282 47.0232 4.10718 50.9232 67.6072C51.8232 81.5072 52.7232 96.5072 29.1232 106.507C1.72325 118.107 3.12324 148.407 22.4232 154.607C30.4232 157.207 4.02324 175.207 19.4232 191.207C27.4232 199.607 41.7232 182.607 56.2232 191.807C78.1232 205.707 89.0232 199.407 93.3232 193.907C102.123 182.707 91.2232 160.207 91.2232 160.207C91.2232 160.207 95.5232 153.307 96.9232 149.607C103.723 131.407 87.5232 123.207 87.5232 123.207C62.5232 113.607 67.0232 85.7072 79.2232 84.1072C92.0232 82.5072 96.0232 93.9072 96.7232 96.7072C96.7232 96.7072 108.023 112.307 129.823 76.7072C151.423 41.1072 163.223 43.7072 172.623 48.8072Z" fill="#423232"/>
</svg>
