<svg width="250" height="194" viewBox="0 0 250 194" fill="none" xmlns="http://www.w3.org/2000/svg">
<path d="M205.22 26.7298C205.22 12.0298 193.32 0.129761 178.62 0.129761C165.52 0.129761 154.62 9.62976 152.42 22.0298C155.12 22.9298 157.72 24.1298 160.12 25.8298C159.22 27.6298 161.92 27.6298 161.02 29.4298C171.82 34.4298 179.52 42.5298 186.32 52.2298C197.22 48.9298 205.22 38.7298 205.22 26.7298Z" fill="#423232"/>
<path d="M192.42 86.3298C195.12 71.1298 194.32 65.1298 192.72 58.0298C192.22 55.8298 191.62 53.7298 190.92 51.6298C185.62 47.4298 180.02 44.7298 171.52 43.5298C148.62 40.4298 130.52 42.5298 111.22 46.7298C99.1201 49.3298 101.62 91.1298 96.9201 96.6298C96.1201 93.8298 92.2201 82.4298 79.4201 84.0298C67.3201 85.5298 62.7201 113.53 87.7201 123.13C87.5201 128.63 82.4201 138.83 78.3201 141.13C78.3201 141.13 77.6201 133.83 69.6201 124.23C61.6201 114.63 45.6201 89.7298 56.4201 53.3298C67.2201 16.9298 116.12 -2.07019 161.62 16.4298C169.42 19.6298 175.82 24.1298 180.92 28.8298C192.92 39.8298 199.32 55.8298 197.42 71.9298C196.92 77.3298 195.42 82.5298 192.42 86.3298Z" fill="#423232"/>
<path d="M60.5199 59.3298C76.8675 59.3298 90.1199 46.0774 90.1199 29.7298C90.1199 13.3821 76.8675 0.129761 60.5199 0.129761C44.1723 0.129761 30.9199 13.3821 30.9199 29.7298C30.9199 46.0774 44.1723 59.3298 60.5199 59.3298Z" fill="#423232"/>
<path d="M199.62 88.7298C196.82 87.5298 192.62 86.5298 187.72 85.8298C188.42 77.9298 186.72 71.9298 186.72 71.9298C186.52 76.0298 185.42 82.8298 185.02 85.4298C178.02 84.6298 170.12 84.1298 163.32 83.9298C162.92 77.9298 161.62 70.9298 161.62 70.9298C161.62 73.8298 161.12 80.3298 160.72 83.8298C159.02 83.8298 157.32 83.7298 155.82 83.7298C154.82 83.7298 153.92 83.7298 152.92 83.7298C152.02 76.2298 149.92 67.3298 149.92 67.3298C150.12 71.2298 149.42 79.5298 149.12 83.7298C124.32 83.9298 102.22 86.4298 102.22 86.4298L100.02 46.7298C109.52 26.6298 186.42 17.6298 194.02 33.4298C207.82 61.8298 199.62 88.7298 199.62 88.7298Z" fill="#423232"/>
<path d="M199.62 88.7298C199.62 88.7298 195.52 91.0298 191.62 90.5298C191.62 90.5298 192.22 87.4298 192.32 86.6298C192.42 86.6298 198.12 87.7298 199.62 88.7298Z" fill="#423232"/>
</svg>
