<svg width="250" height="210" viewBox="0 0 250 210" fill="none" xmlns="http://www.w3.org/2000/svg">
<path d="M195.052 42.2569C192.652 34.9569 189.252 28.6569 185.752 25.2569C178.452 18.0569 176.052 27.7569 176.052 27.7569C176.052 27.7569 164.952 7.05692 149.652 4.25692C138.752 2.25692 141.652 14.8569 141.652 14.8569C141.652 14.8569 128.452 0.756924 110.152 0.756924C95.6519 0.756924 101.152 13.2569 101.152 13.2569C101.152 13.2569 90.8519 -1.54308 79.9519 1.05692C69.0519 3.65692 73.1519 25.1569 73.1519 25.1569C64.4519 3.35693 49.6519 24.5569 47.1519 70.1569C45.6519 97.2569 53.6519 114.857 59.0519 123.557C63.8519 132.157 69.2519 138.157 72.2519 143.557C76.5519 151.257 78.6519 159.657 78.6519 159.657C87.1519 144.457 87.2519 136.257 87.2519 136.257C62.2519 126.657 66.7519 98.7569 78.9519 97.1569C91.7519 95.5569 95.7519 106.957 96.4519 109.757C101.052 104.257 88.5519 68.5569 110.752 59.8569C132.252 51.4569 145.652 63.8569 168.652 66.9569C175.852 67.9569 182.652 62.6569 187.852 63.5569C189.452 63.8569 190.652 65.0569 191.152 66.6569C191.552 68.1569 191.952 69.6569 192.352 71.2569C193.752 77.3569 219.752 47.0569 195.052 42.2569Z" fill="#423232"/>
</svg>
