<svg width="250" height="199" viewBox="0 0 250 199" fill="none" xmlns="http://www.w3.org/2000/svg">
<path d="M199.555 43.6248C192.455 69.3248 172.155 64.2248 152.555 58.0248C83.4554 36.1248 95.3554 103.025 94.4554 101.825C92.2554 97.6248 87.5554 92.4248 78.6554 93.5248C67.0554 95.0248 62.3554 120.725 84.0554 131.325C83.5554 135.925 80.2554 139.825 76.4554 142.625C66.2554 134.025 50.4554 117.425 44.5554 93.4248C42.3554 84.6248 43.2554 77.3248 44.1554 71.6248C47.0554 53.9248 58.0554 50.2248 58.0554 50.2248C58.4554 31.5248 77.9554 10.9248 110.755 11.6248C143.655 12.1248 206.655 17.9248 199.555 43.6248Z" fill="#423232"/>
<path d="M200.356 74.5248C199.356 81.0248 196.556 86.0248 192.656 89.7248C194.156 78.8248 193.356 73.6248 192.056 67.5248C189.256 55.0248 183.256 44.2248 173.256 36.2248C178.256 35.8248 183.356 36.9248 187.956 39.8248C187.956 39.8248 194.556 44.4248 197.056 59.2248C197.856 63.5248 201.256 68.1248 200.356 74.5248Z" fill="#423232"/>
<path d="M118.756 11.7248C118.756 11.7248 156.756 -3.07519 170.156 1.82481C181.256 5.92481 177.256 17.3248 177.256 17.3248C177.256 17.3248 196.256 12.5248 206.556 24.9248C216.856 37.3248 204.956 53.4248 198.156 59.3248C198.156 59.3248 208.856 62.1248 207.756 71.2248C206.456 82.6248 192.556 89.6248 192.556 89.6248C192.556 89.6248 197.356 79.8248 196.656 70.4248C195.956 61.0248 197.056 54.3248 190.156 47.5248C183.256 40.6248 166.856 47.1248 149.156 38.3248C131.556 29.5248 118.756 11.7248 118.756 11.7248Z" fill="#423232"/>
</svg>
