<svg width="250" height="210" viewBox="0 0 250 210" fill="none" xmlns="http://www.w3.org/2000/svg">
<path d="M181.149 18.3597C181.149 18.3597 176.149 2.05968 155.549 0.659683C132.749 -0.840317 124.949 12.8597 124.949 12.8597C124.949 12.8597 107.649 -1.64032 83.0486 9.65968C51.7486 24.0597 58.7486 54.1597 58.7486 54.1597C58.7486 54.1597 25.0486 100.66 36.6486 159.46C36.6486 159.46 74.0486 175.76 87.6486 171.56L84.5486 138.16C62.8486 127.56 67.5486 101.86 79.1486 100.36C88.0486 99.2597 92.7486 104.46 94.9486 108.66C95.2486 109.06 100.749 107.46 101.549 94.0597C102.949 72.8597 108.249 50.7597 152.949 64.9597C157.349 66.3597 161.649 69.0597 165.949 68.5597C173.149 67.8597 189.549 58.2597 193.149 78.4597C193.249 78.8597 193.249 79.2597 193.349 79.7597V79.8597C193.349 80.0597 193.449 80.2597 193.449 80.4597C193.449 80.5597 193.449 80.7597 193.549 80.9597C193.549 81.1597 193.649 81.4597 193.649 81.6597C193.649 81.8597 193.649 82.0597 193.749 82.2597C193.749 82.4597 193.749 82.5597 193.749 82.7597C193.749 83.0597 193.749 83.3597 193.849 83.6597C193.849 83.7597 193.849 83.8597 193.849 84.0597C193.849 84.3597 193.849 84.6597 193.849 84.8597C193.849 84.9597 193.849 85.0597 193.849 85.1597C193.849 85.5597 193.849 85.8597 193.849 86.2597C193.849 86.3597 193.849 86.4597 193.849 86.6597C193.849 87.0597 193.849 87.4597 193.849 87.8597V87.9597C193.849 88.3597 193.849 88.7597 193.749 89.2597C193.749 89.3597 193.749 89.4597 193.749 89.5597C193.749 90.0597 193.649 90.4597 193.649 90.9597C193.649 91.0597 193.649 91.1597 193.649 91.2597C193.649 91.7597 193.549 92.2597 193.549 92.7597C193.549 92.8597 193.549 92.8597 193.549 92.9597C193.449 93.4597 193.449 94.0597 193.349 94.6597C193.349 94.7597 193.349 94.8597 193.349 94.9597C193.249 95.5597 193.249 96.1597 193.149 96.7597C192.549 100.96 191.649 105.96 190.349 112.16C189.449 116.46 189.049 120.66 188.749 124.96C188.449 130.56 188.549 136.06 188.149 141.56C187.549 150.56 185.849 159.46 179.749 168.06C188.649 171.46 203.249 172.46 203.249 172.46C218.849 145.96 207.649 92.3597 203.449 75.2597C204.049 74.7597 220.749 19.4597 181.149 18.3597Z" fill="#423232"/>
</svg>
