<svg width="250" height="202" viewBox="0 0 250 202" fill="none" xmlns="http://www.w3.org/2000/svg">
<path d="M184.99 52.1598C187.69 36.9598 194.39 73.1598 192.89 66.0598C192.39 63.8598 191.79 61.7598 191.09 59.6598C185.79 55.4598 180.19 52.7598 171.69 51.5598C148.79 48.4598 130.69 50.5598 111.39 54.7598C99.29 57.3598 101.79 99.1598 97.09 104.66C96.29 101.86 92.39 90.4598 79.59 92.0598C67.49 93.5598 62.89 121.56 87.89 131.16C87.69 136.66 82.5901 146.86 78.4901 149.16C78.4901 149.16 77.7901 141.86 69.7901 132.26C61.7901 122.66 45.79 97.7598 56.59 61.3598C67.39 24.9598 116.29 5.95984 161.79 24.4598C169.59 27.6598 175.99 32.1598 181.09 36.8598C193.09 47.8598 189.89 32.1598 187.99 48.3598C187.29 53.5598 187.99 48.2598 184.99 52.1598Z" fill="#423232"/>
<path d="M174.89 48.0598C174.89 48.0598 147.29 93.9598 92.3899 79.9598C92.3899 79.9598 81.6899 53.0598 104.99 42.7598C128.39 32.5598 169.29 39.0598 174.89 48.0598Z" fill="#423232"/>
<path d="M165.29 50.7598C165.29 50.7598 176.29 52.8598 183.99 61.0598C191.19 68.6598 192.69 35.5598 194.29 42.8598C194.29 42.8598 198.39 52.8598 180.59 42.2598C162.79 31.5598 165.29 50.7598 165.29 50.7598Z" fill="#423232"/>
<path d="M56.4903 106.26C56.4903 106.26 44.2903 98.4599 26.4903 106.26C10.3903 113.36 18.7903 133.66 29.0903 132.16C29.0903 132.16 9.69032 139.66 16.8903 155.66C22.6903 168.56 40.2903 161.06 40.2903 161.06C40.2903 161.06 31.9903 174.36 44.1903 180.36C56.5903 186.46 62.8903 169.26 62.8903 169.26C62.8903 169.26 65.7903 183.36 78.4903 181.16C94.1903 178.46 86.1903 159.76 86.1903 159.76C86.1903 159.76 94.6903 165.36 98.4903 155.66C102.89 144.56 83.4903 135.76 83.4903 135.76C83.4903 135.76 63.0903 112.36 62.1903 103.16C61.1903 93.8598 56.4903 106.26 56.4903 106.26Z" fill="#423232"/>
<path d="M205.19 151.76C205.19 151.76 219.29 161.36 210.99 173.36C201.09 187.76 184.49 172.06 184.49 172.06C187.49 181.76 176.69 197.76 161.99 185.16C159.19 182.76 156.99 180.26 155.29 177.86C161.39 175.86 166.99 172.86 171.59 168.86C184.79 157.46 187.69 145.36 188.49 133.06C188.89 127.56 188.79 122.06 189.09 116.46C189.29 112.66 189.59 108.96 190.29 105.16C195.69 101.26 205.89 101.06 208.59 106.96C214.99 121.06 203.09 126.86 202.39 127.16C203.19 126.96 221.99 123.06 222.09 138.36C222.29 154.46 205.19 151.76 205.19 151.76Z" fill="#423232"/>
<path d="M192.99 60.0598C192.99 60.0598 214.79 75.3598 210.09 45.3598C206.49 22.4598 189.19 9.05984 161.89 17.1598C161.89 17.1598 115.39 -0.0401649 78.4897 21.2598C47.2897 39.2598 45.4897 84.5598 56.5897 106.26C56.5897 106.26 57.9897 62.7598 88.5897 52.4598C119.09 42.1598 137.69 34.1598 165.19 43.4598C192.69 52.7598 192.99 60.0598 192.99 60.0598Z" fill="#423232"/>
<path d="M170.09 21.5598C170.09 21.5598 167.09 3.05982 151.09 0.659822C134.99 -1.74018 142.09 17.2598 142.09 17.2598C142.09 17.2598 164.59 25.8598 170.09 21.5598Z" fill="#423232"/>
<path d="M147.39 14.1599C147.39 14.1599 138.99 2.55987 122.99 4.75987C106.99 6.95987 117.09 20.0599 117.09 20.0599C117.09 20.0599 150.89 29.1599 147.39 14.1599Z" fill="#423232"/>
<path d="M170.09 52.1598C170.09 52.1598 181.59 57.2598 188.69 67.5598C195.79 77.8598 208.59 75.4598 210.39 56.3598C212.29 37.3598 175.19 31.9598 170.09 52.1598Z" fill="#423232"/>
</svg>
