<svg width="250" height="207" viewBox="0 0 250 207" fill="none" xmlns="http://www.w3.org/2000/svg">
<path d="M53.5049 79.2763C49.5049 108.476 62.6049 128.576 69.6049 136.976C77.6049 146.576 78.3049 153.876 78.3049 153.876C82.4049 151.576 87.6049 141.276 87.7049 135.876C62.7049 126.276 67.2049 98.3763 79.4049 96.7763C92.2049 95.1763 96.2049 106.576 96.9049 109.376C100.105 105.576 99.9049 83.9763 103.605 70.4763C87.5049 76.2763 70.5049 79.3763 53.5049 79.2763Z" fill="#99807F"/>
<path d="M180.905 41.6764C174.705 38.6764 169.405 32.3764 161.605 29.2764C116.005 10.7764 67.1049 29.6764 56.4049 66.1764C55.0049 70.7764 54.1049 75.1764 53.5049 79.3764C70.5049 79.4764 87.6049 76.2764 103.605 70.5764C105.205 64.7764 107.505 60.3764 111.205 59.5764C130.505 55.3764 148.605 53.2764 171.505 56.3764C180.005 57.5764 186.505 53.6764 190.905 64.4764C191.605 66.5764 192.205 68.6764 192.705 70.8764C194.305 77.9764 195.105 83.9764 192.405 99.1764C194.205 96.2764 196.505 90.0764 197.505 84.7764C200.705 66.0764 199.205 50.4764 180.905 41.6764Z" fill="#423232"/>
<path d="M193.605 75.0764C194.605 79.8764 200.705 79.4764 201.605 74.6764C202.905 67.6764 203.505 59.2764 202.405 49.7764C197.205 5.37637 153.105 -9.62363 161.605 19.9764C161.605 19.9764 150.005 1.37637 123.905 0.376375C101.505 -0.423625 115.105 15.4764 115.105 15.4764C115.105 15.4764 87.7054 5.47637 58.2054 20.4764C32.5054 33.5764 56.3054 45.0764 56.3054 45.0764C56.3054 45.0764 36.8054 55.3764 36.5054 77.5764C36.3054 94.1764 90.0054 94.8764 110.405 82.7764C121.005 76.4764 126.005 65.5764 136.805 59.1764C155.705 47.8764 160.605 73.3764 170.705 63.9764C182.505 53.1764 191.005 61.7764 193.605 75.0764Z" fill="#423232"/>
</svg>
