<svg width="250" height="196" viewBox="0 0 250 196" fill="none" xmlns="http://www.w3.org/2000/svg">
<path d="M210.223 141.222C202.623 126.322 210.623 123.422 206.023 112.022C199.223 95.2221 199.723 92.8221 200.523 89.0221C206.523 60.7221 210.423 30.1221 175.423 12.0221C136.023 -8.37788 80.9229 -0.0778866 60.4229 25.1221C43.0229 46.3221 48.123 57.4221 43.723 72.4221C39.423 86.9221 20.0229 87.3221 28.9229 117.322C33.4229 132.522 15.3229 140.522 19.3229 166.122C47.2229 178.622 76.3229 184.522 106.023 186.322C114.123 166.422 89.1229 161.922 88.8229 132.222C88.8229 130.222 88.923 128.322 89.1229 126.522C61.4229 117.822 65.9229 88.2221 78.4229 86.6221C87.1229 85.5221 91.7229 90.4221 94.0229 94.5221C94.2229 95.1221 94.5229 95.6221 94.8229 96.2221C98.6229 102.722 118.723 96.8221 132.223 81.1221C146.723 64.3221 145.623 65.6221 152.923 55.5221C167.623 35.3221 167.223 56.1221 170.923 58.9221C176.123 62.8221 172.823 65.7221 180.923 79.1221C184.523 85.1221 191.123 91.0221 189.523 98.1221C184.623 120.422 194.023 142.922 170.423 163.422C165.123 168.022 157.723 172.022 149.023 173.722C149.423 176.722 150.623 181.122 153.323 185.822C173.823 184.422 194.423 181.522 215.023 178.022C218.223 166.922 216.623 153.722 210.223 141.222Z" fill="#423232"/>
<path d="M94.923 96.122C94.623 95.622 94.323 95.022 94.123 94.422C94.423 95.022 94.723 95.622 94.923 96.122Z" fill="#FEE4BF"/>
<path d="M192.523 97.7221C192.523 97.7221 218.923 89.1221 208.923 63.7221C203.423 49.7221 203.123 33.8221 197.423 23.6221C189.523 9.52206 176.923 5.32207 158.323 9.22207C126.323 15.9221 178.223 8.22207 181.423 31.3221C184.523 54.4221 192.523 97.7221 192.523 97.7221Z" fill="#423232"/>
</svg>
