<svg width="177" height="160" viewBox="0 0 177 160" fill="none" xmlns="http://www.w3.org/2000/svg">
<path d="M173.92 97.0394C169.22 92.7394 167.92 86.4395 167.52 82.2395C170.52 84.2395 174.42 78.1395 174.22 70.9395C173.92 60.2395 171.12 52.3394 167.82 46.8394C170.12 43.9394 171.82 40.5395 172.72 36.7395C176.82 20.1395 163.32 7.43945 143.62 2.63945C131.52 -0.360549 109.32 1.13945 83.2202 0.739449C78.7202 0.639449 74.0202 0.839447 69.4202 1.33945C63.8202 1.93945 58.3202 3.13945 53.2202 5.23945C44.9202 8.33945 37.3202 13.2394 31.5202 20.3394C21.3202 32.9394 18.4202 47.3394 17.9202 58.5394C17.4202 71.8394 14.2202 84.9395 7.92019 96.7395C1.12019 109.439 -3.0798 122.939 3.6202 134.539C3.8202 134.839 4.02019 135.139 4.22019 135.539C1.02019 151.339 18.8202 149.939 22.3202 133.939C21.6202 136.939 21.1202 139.539 20.8202 141.339C18.4202 157.039 29.8202 159.039 35.5202 148.139C36.1202 147.039 37.6202 142.539 39.2202 136.839C39.2202 137.839 39.3202 138.839 39.4202 139.739C39.6202 161.639 55.2202 163.539 54.3202 148.739C53.9202 142.139 55.0202 132.939 56.7202 122.939C28.3202 114.439 32.7202 84.4394 45.4202 82.8394C60.0202 80.9394 63.1202 96.0394 63.1202 96.0394C64.2202 100.739 65.8202 106.339 68.2202 109.039C72.5202 113.739 79.9202 110.439 75.1202 95.6395C74.1202 92.5395 73.2202 89.0394 72.6202 85.3394C76.4202 86.3394 79.7202 84.2394 78.1202 80.0394C76.6202 76.2394 75.8202 72.7395 75.6202 69.4395C75.3202 64.3395 76.6202 59.7395 78.8202 55.9395C81.1202 65.0395 90.7202 62.2394 91.3202 55.6395C91.5202 53.4394 92.2202 50.8395 93.2202 47.9395C95.6202 51.0395 98.9202 53.9394 103.02 56.0394C110.62 59.8394 116.02 58.0395 117.22 54.1395C122.12 55.8395 126.52 57.1395 129.92 57.9395C140.12 60.4395 150.22 59.1395 158.12 54.9395C158.52 55.8395 158.72 56.6395 158.82 56.9395C158.92 57.4395 159.02 57.9395 159.12 58.4395C160.02 62.7395 160.52 66.9395 160.12 73.2395C160.12 73.5395 160.12 73.7394 160.02 74.0394C160.02 74.2394 160.02 74.4395 159.92 74.6395C159.92 75.1395 159.82 75.5394 159.82 76.0394C159.82 76.3394 159.72 76.5394 159.72 76.8394C159.72 77.2394 159.62 77.7395 159.52 78.2395C159.42 78.6395 159.42 79.0395 159.32 79.4395C159.32 79.7395 159.22 80.1395 159.22 80.4395C159.12 81.0395 159.02 81.6395 158.92 82.3394C158.92 82.4394 158.92 82.6395 158.82 82.7395C158.72 83.5395 158.52 84.3395 158.42 85.2395C157.92 88.0395 157.32 91.0394 156.62 94.5394C152.42 113.939 158.92 133.539 145.22 151.739C144.62 157.139 149.32 163.939 155.12 156.839C159.62 151.339 157.52 132.939 157.22 129.239C157.62 133.139 163.82 145.539 169.62 143.739C172.82 142.739 174.22 141.039 173.72 135.139C173.12 126.839 166.62 118.639 165.72 106.539C171.72 111.639 180.22 102.739 173.92 97.0394Z" fill="#423232"/>
</svg>
