<svg width="250" height="194" viewBox="0 0 250 194" fill="none" xmlns="http://www.w3.org/2000/svg">
<path d="M217.429 74.6691C216.029 74.6691 212.928 74.4691 211.529 74.4691C211.029 70.3691 210.129 63.9691 210.129 66.0691C210.129 67.9691 209.629 71.8691 209.229 74.4691C207.729 74.4691 206.129 74.3691 204.629 74.2691C204.729 65.3691 201.029 53.3691 200.729 52.6691C202.129 61.2691 201.629 69.5691 201.229 74.0691C198.929 73.9691 196.629 73.7691 194.129 73.6691C194.829 58.1691 188.629 49.9691 184.429 47.8691C180.829 46.0691 170.529 48.9691 165.429 48.2691C142.529 45.1691 124.029 38.9691 111.329 47.2691C98.6285 55.5691 101.729 91.6691 97.0285 97.1691C96.2285 94.3691 92.3285 82.9691 79.5285 84.5691C67.4285 86.0691 62.8285 114.069 87.8285 123.669C87.6285 129.169 82.5285 139.369 78.4285 141.669C78.4285 141.669 77.7285 134.369 69.7285 124.769C61.7285 115.169 45.7285 88.4691 56.5285 52.0691C67.3285 15.6691 99.4285 -5.33091 158.429 11.6691C158.429 11.6691 184.529 2.2691 204.729 22.9691C216.929 35.2691 222.429 57.8691 217.429 74.6691Z" fill="#423232"/>
<path d="M158.528 11.5691C158.528 11.5691 136.128 -1.53093 86.628 0.169066C45.928 1.56907 66.028 22.0691 66.028 22.0691C66.028 22.0691 35.628 22.4691 29.128 32.7691C22.728 43.0691 41.528 50.3691 41.528 50.3691C41.528 50.3691 18.728 57.9691 27.728 70.4691C36.728 82.9691 75.628 75.6691 75.628 75.6691C75.628 75.6691 81.628 52.3691 104.928 35.4691C121.928 23.0691 158.328 17.1691 158.528 11.5691Z" fill="#423232"/>
</svg>
