<svg width="250" height="183" viewBox="0 0 250 183" fill="none" xmlns="http://www.w3.org/2000/svg">
<g filter="url(#filter0_d_112_2064)">
<path d="M126.212 0.100076C67.2121 -2.39992 49.8121 48.6001 54.8121 77.8001C59.7121 106 77.6121 119 77.6121 119L89.7121 114.8C89.7121 114.8 85.0121 113.2 80.5121 109.9C65.0121 98.1001 69.8121 76.7001 80.4121 75.3001C91.0121 74.0001 95.5121 81.6001 97.2121 85.8001C102.812 67.3001 94.9121 62.7001 102.812 49.6001C127.512 22.9001 145.112 39.8001 156.812 44.4001C167.512 48.6001 174.412 43.4001 180.312 37.9001C183.812 34.6001 188.812 35.5001 188.812 35.5001C188.812 35.5001 182.012 2.50008 126.212 0.100076Z" fill="#99807F"/>
</g>
<defs>
<filter id="filter0_d_112_2064" x="-4" y="0.0114746" width="258" height="190.989" filterUnits="userSpaceOnUse" color-interpolation-filters="sRGB">
<feFlood flood-opacity="0" result="BackgroundImageFix"/>
<feColorMatrix in="SourceAlpha" type="matrix" values="0 0 0 0 0 0 0 0 0 0 0 0 0 0 0 0 0 0 127 0" result="hardAlpha"/>
<feOffset dy="4"/>
<feGaussianBlur stdDeviation="2"/>
<feComposite in2="hardAlpha" operator="out"/>
<feColorMatrix type="matrix" values="0 0 0 0 0 0 0 0 0 0 0 0 0 0 0 0 0 0 0.25 0"/>
<feBlend mode="normal" in2="BackgroundImageFix" result="effect1_dropShadow_112_2064"/>
<feBlend mode="normal" in="SourceGraphic" in2="effect1_dropShadow_112_2064" result="shape"/>
</filter>
</defs>
</svg>
