<svg width="250" height="209" viewBox="0 0 250 209" fill="none" xmlns="http://www.w3.org/2000/svg">
<path d="M212.085 61.4527C212.085 48.8527 203.585 38.3527 192.085 35.0527C192.685 32.5527 192.785 29.9527 192.185 27.2527C190.185 18.5527 182.385 12.4527 173.485 13.0527C169.985 13.2527 166.685 14.5527 163.985 16.5527C159.785 6.85273 150.085 0.0527344 138.885 0.0527344C126.985 0.0527344 116.885 7.65273 113.085 18.2527C108.885 13.2527 102.585 10.0527 95.5848 10.0527C83.3848 10.0527 73.3848 19.6527 72.7848 31.7527C70.8848 31.1527 68.7848 30.8527 66.6848 30.9527C58.5848 31.4527 51.9848 38.0527 51.3848 46.1527C51.1848 48.8527 51.6848 51.4527 52.6848 53.8527C41.2848 55.0527 32.3848 64.7527 32.3848 76.4527C32.3848 85.2527 37.3848 92.9527 44.7848 96.7527C41.7848 99.7527 39.8848 103.853 39.8848 108.353C39.8848 116.753 46.2848 123.753 54.4848 124.653C53.9848 126.253 53.7848 128.153 54.3848 130.053C55.2848 133.353 57.9848 135.953 61.2848 136.653C63.2848 137.053 65.1848 136.853 66.8848 136.153C67.7848 137.453 68.6848 138.553 69.4848 139.553C70.4848 140.753 71.2848 141.853 72.0848 142.953C76.6848 149.553 87.1848 146.653 87.5848 138.653C87.5848 138.553 87.5848 138.553 87.5848 138.453C62.5848 128.853 67.0848 100.953 79.2848 99.3527C92.0848 97.7527 96.0848 109.153 96.7848 111.953C110.485 103.153 90.9848 71.4527 111.085 62.0527C128.985 53.7527 147.785 66.3527 170.785 69.4527C179.285 70.6527 187.285 62.2527 190.885 66.9527C191.585 69.0527 192.185 71.1527 192.685 73.3527C194.285 80.4527 195.085 86.4527 192.385 101.653C198.985 98.0527 202.185 92.6527 202.785 87.3527C202.985 85.5527 202.985 83.6527 202.885 81.8527C208.485 76.9527 212.085 69.6527 212.085 61.4527Z" fill="#423232"/>
</svg>
