<svg width="250" height="202" viewBox="0 0 250 202" fill="none" xmlns="http://www.w3.org/2000/svg">
<path d="M200.171 42.2852C193.071 67.9852 172.471 63.6852 153.171 56.6852C127.471 47.2852 104.871 54.8852 104.771 78.0852C104.571 112.085 96.0705 101.785 95.1705 100.485C92.9705 96.2852 88.2705 91.0852 79.3705 92.1852C67.6705 93.6852 63.0705 119.485 84.8705 130.085C88.6705 149.385 78.2705 147.585 78.2705 147.585C74.7705 133.385 45.3705 103.185 45.2705 83.2852C45.2705 56.4852 58.7705 48.8852 58.7705 48.8852C59.1705 30.1852 78.6705 9.58517 111.471 10.2852C144.271 10.8852 164.37 9.98517 170.77 2.28517C177.17 -5.61483 207.271 16.5852 200.171 42.2852Z" fill="#423232"/>
<path d="M200.971 73.1852C199.971 79.6852 197.171 84.6852 193.271 88.3852C194.771 77.4852 193.971 72.2852 192.671 66.1852C189.871 53.6852 183.871 42.8852 173.871 34.8852C178.871 34.4852 183.971 35.5852 188.571 38.4852C188.571 38.3852 205.071 45.0852 200.971 73.1852Z" fill="#423232"/>
</svg>
