<svg width="250" height="197" viewBox="0 0 250 197" fill="none" xmlns="http://www.w3.org/2000/svg">
<path d="M193.95 59.7844C193.65 58.2844 193.25 56.6843 192.75 55.1843C192.25 53.6843 191.05 52.3844 189.45 52.0844C184.25 51.1844 179.25 42.1843 172.05 41.1843C149.15 38.0843 133.85 39.9843 112.35 48.3843C90.15 56.9843 113.95 88.0844 98.05 98.2844C97.25 95.4844 93.35 84.0844 80.55 85.6843C68.45 87.1843 63.85 115.184 88.85 124.784C77.95 142.584 78.75 135.484 70.75 125.884C62.75 116.284 46.75 91.3844 57.55 54.9843C68.35 18.5843 117.25 -0.415651 162.75 18.0843C170.55 21.2843 175.25 29.1844 182.05 30.4844C245.35 42.5844 195.45 66.9844 193.95 59.7844Z" fill="#423232"/>
<path d="M132.45 40.8843C132.45 40.8843 123.95 38.3843 118.85 51.6843C113.75 64.9843 95.95 83.2843 81.15 61.9843C66.35 40.7843 88.55 23.7843 111.65 30.6843C134.75 37.5843 132.15 32.3843 132.45 40.8843Z" fill="#423232"/>
<path d="M147.15 31.1844C147.15 31.1844 169.65 45.4844 184.45 39.8844C193.75 36.3844 204.25 23.4844 196.95 13.8844C188.25 2.38438 161.35 11.0844 146.35 6.28438C123.85 -0.915622 88.9505 -5.71562 72.5505 21.2844C68.4505 28.0844 64.7505 34.9844 58.9505 40.3844C52.9505 45.9844 46.9505 55.0844 46.4505 69.2844C45.5505 97.5844 67.7505 122.184 67.7505 122.184C67.7505 122.184 54.5505 73.7844 79.4505 66.5844C104.35 59.3844 111.25 34.4844 127.75 34.4844C144.25 34.4844 136.55 15.8844 147.15 31.1844Z" fill="#423232"/>
<path d="M169.05 43.8844C169.05 43.8844 187.15 66.4844 200.75 65.1844C214.35 63.8844 229.65 34.6844 192.25 24.6844C154.85 14.6844 169.05 43.8844 169.05 43.8844Z" fill="#423232"/>
<path d="M132.45 40.8843C132.45 40.8843 144.35 70.2843 175.95 73.7843C207.65 77.3843 220.45 19.3843 172.05 13.8843C123.65 8.38433 132.45 40.8843 132.45 40.8843Z" fill="#423232"/>
<path d="M107.151 27.0844C107.151 27.0844 114.551 60.6844 130.151 62.1844C145.751 63.6844 141.551 20.2844 121.151 17.2844C100.751 14.2844 107.151 27.0844 107.151 27.0844Z" fill="#423232"/>
</svg>
