<svg width="250" height="202" viewBox="0 0 250 202" fill="none" xmlns="http://www.w3.org/2000/svg">
<path d="M192.928 65.2442C192.628 63.7442 192.228 62.1442 191.728 60.6442C191.228 59.1442 190.028 57.8442 188.428 57.5442C183.228 56.6442 176.428 61.9442 169.228 60.9442C146.328 57.8442 132.828 45.5442 111.328 53.8442C89.1275 62.4442 101.728 98.2442 97.0275 103.744C96.2275 100.944 92.3275 89.5442 79.5275 91.1442C67.4275 92.6442 62.8275 120.644 87.8275 130.244C87.6275 135.744 77.7275 140.944 69.7275 131.344C61.7275 121.744 45.7275 96.8442 56.5275 60.4442C67.3275 24.0442 116.228 5.04419 161.728 23.5442C169.528 26.7442 174.228 34.6442 181.028 35.9442C244.228 47.9442 200.628 107.744 198.728 123.844C198.228 129.344 194.428 72.4442 192.928 65.2442Z" fill="#423232"/>
<path d="M87.9268 130.344C87.9268 130.344 87.7268 138.544 79.3268 153.744C79.3268 153.744 77.3268 145.344 72.9268 137.644C68.6268 129.944 63.8268 126.644 58.5268 110.544C53.2268 94.4442 59.3268 101.644 64.1268 108.244C69.0268 114.944 72.2268 131.344 87.9268 130.344Z" fill="#423232"/>
<path d="M176.327 54.8442C176.327 54.8442 186.327 35.2443 150.127 17.5442C113.927 -0.155751 76.8273 12.2443 54.5273 9.84425C54.5273 9.84425 79.7273 26.8443 105.427 31.2443C131.127 35.6443 176.327 54.8442 176.327 54.8442Z" fill="#423232"/>
<path d="M104.928 19.7442C104.928 19.7442 56.2275 19.2442 36.2275 71.4442C36.2275 71.4442 56.0275 59.0442 84.4275 56.4442C112.828 53.8442 117.328 22.3442 104.928 19.7442Z" fill="#423232"/>
<path d="M181.527 57.1442C181.527 57.1442 212.227 46.3442 193.127 20.4442C171.027 -9.35581 99.8271 2.24419 99.8271 2.24419C99.8271 2.24419 125.527 9.04419 136.227 23.9442C146.827 38.9442 173.327 63.5442 181.527 57.1442Z" fill="#423232"/>
<path d="M159.327 59.0442C159.327 59.0442 139.127 48.2442 126.827 58.7442C111.427 71.9442 115.427 136.744 115.427 136.744C115.427 136.744 97.3267 104.044 97.6267 73.3442C97.9267 42.6442 112.027 34.9442 126.827 36.2442C141.627 37.5442 157.427 54.2442 159.327 59.0442Z" fill="#423232"/>
<path d="M171.027 61.1442C171.027 61.1442 134.727 29.8442 132.827 85.1442C132.827 85.1442 121.327 73.5442 130.627 47.2442C139.927 20.9442 169.027 41.9442 171.027 61.1442Z" fill="#423232"/>
</svg>
