<svg width="250" height="211" viewBox="0 0 250 211" fill="none" xmlns="http://www.w3.org/2000/svg">
<path d="M193.75 81.3634C193.55 80.1634 193.25 78.9634 193.05 77.6634C191.95 72.7634 190.35 68.1634 188.25 63.8634L176.45 68.7634C173.05 70.1634 169.25 70.5634 165.55 69.9634L118.75 61.8634C113.05 60.8634 107.55 64.1634 105.65 69.5634C104.25 73.4634 102.55 77.9634 100.75 81.7634C86.5498 84.0634 72.7498 81.0634 59.6498 75.4634C58.6498 75.0634 57.7498 74.6634 56.7498 74.1634C58.5498 65.0634 51.6498 27.0634 60.2498 17.1634C63.1498 13.8634 66.0498 13.4634 68.8498 14.4634C75.3498 16.7634 82.6498 15.4634 87.3498 10.4634C91.1498 6.56342 95.9498 3.16342 101.85 3.06342C104.75 2.96342 107.05 3.56343 108.95 4.66343C114.95 7.96343 122.25 6.86343 127.65 2.76343C129.35 1.56343 131.15 0.763428 133.15 0.763428C136.05 0.763428 138.65 1.96342 140.75 3.56342C144.75 6.56342 150.05 7.26343 154.95 6.26343C155.25 6.16343 155.55 6.16343 155.85 6.16343C157.05 6.16343 158.35 6.46342 159.45 6.96342C163.65 8.76342 168.35 8.96343 172.55 7.16343C174.55 6.36343 176.95 6.36343 179.35 8.66343C182.35 11.5634 186.25 13.4634 190.45 13.5634C191.55 13.5634 192.95 14.0634 194.65 15.1634C195.45 15.7634 196.15 16.8634 196.65 18.3634C197.45 20.6634 199.35 22.3634 201.75 23.0634C203.25 23.5634 204.35 25.0634 204.65 28.4634C205.65 39.2634 196.25 72.6634 193.75 81.3634Z" fill="#423232"/>
<path d="M201.549 22.9634C197.149 24.5634 196.349 23.6634 191.349 22.3634C186.349 21.0634 181.949 26.6634 178.349 20.8634C173.149 12.3634 163.549 18.1634 161.649 16.5634C159.749 14.9634 153.849 9.66343 145.549 15.2634C140.049 18.9634 133.049 12.3634 124.249 12.3634C106.649 12.3634 103.449 25.2634 97.3494 19.3634C91.2494 13.5634 84.7494 17.4634 75.7494 19.0634C66.7494 20.6634 62.1494 15.2634 62.1494 15.2634C64.3494 13.7634 66.5494 13.7634 68.6494 14.4634C75.1494 16.7634 82.4494 15.4634 87.1494 10.4634C90.9494 6.56342 95.7494 3.16342 101.649 3.06342C104.549 2.96342 106.849 3.56343 108.749 4.66343C114.749 7.96343 122.049 6.86343 127.449 2.76343C129.149 1.56343 130.949 0.763428 132.949 0.763428C135.849 0.763428 138.449 1.96342 140.549 3.56342C144.549 6.56342 149.849 7.26343 154.749 6.26343C155.049 6.16343 155.349 6.16343 155.649 6.16343C156.849 6.16343 158.149 6.46342 159.249 6.96342C163.449 8.76342 168.149 8.96343 172.349 7.16343C174.349 6.36343 176.749 6.36343 179.149 8.66343C182.149 11.5634 186.049 13.4634 190.249 13.5634C191.349 13.5634 192.749 14.0634 194.449 15.1634C195.249 15.7634 195.949 16.8634 196.449 18.3634C197.249 20.5634 199.249 22.2634 201.549 22.9634Z" fill="#5E4949"/>
<path d="M96.5499 114.164C94.8499 109.964 90.3499 102.264 79.7499 103.664C69.1499 104.964 64.3499 126.464 79.9499 138.264C84.4499 141.564 89.1499 143.164 89.1499 143.164L77.0499 147.364C77.0499 147.364 55.0499 134.864 54.2499 106.264C53.8499 92.9636 55.2499 82.1635 56.7499 74.2635C70.6499 80.6635 85.4499 84.3636 100.75 81.8636C99.0499 85.3636 97.1499 88.2636 95.3499 89.6636C89.8499 93.6636 97.2499 104.364 96.5499 114.164Z" fill="#99807F"/>
<path d="M96.7498 88.2635C96.2498 88.7635 95.8498 89.2635 95.3498 89.5635C94.1498 90.4635 93.5498 91.7635 93.3498 93.2635C87.1498 93.5635 78.2498 90.9635 75.1498 89.9635C74.4498 89.7635 74.0498 89.1635 74.0498 88.4635V87.9635C74.0498 86.8635 75.0498 86.1635 76.0498 86.3635C82.9498 88.2635 96.2498 88.2635 96.7498 88.2635Z" fill="#423232"/>
<path d="M94.6494 101.664C89.1494 101.264 83.8494 100.264 81.4494 99.7636C80.6494 99.5636 80.1494 98.9636 80.1494 98.1636C80.1494 97.1636 81.0494 96.4636 82.0494 96.5636C86.5494 97.2636 91.3494 97.1636 93.6494 97.0636C93.8494 98.4636 94.2494 99.9636 94.6494 101.664Z" fill="#423232"/>
</svg>
