<svg width="250" height="232" viewBox="0 0 250 232" fill="none" xmlns="http://www.w3.org/2000/svg">
<path d="M192.774 58.4714C192.474 56.9714 192.074 55.3714 191.574 53.8714C191.074 52.3714 189.874 51.0714 188.274 50.7714C183.074 49.8714 178.074 52.4714 170.874 51.4714C147.974 48.3714 132.674 38.6714 111.174 47.0714C88.9742 55.6714 101.574 91.4714 96.8742 96.9714C96.0742 94.1714 92.1742 82.7714 79.3742 84.3714C67.2742 85.8714 62.6742 113.871 87.6742 123.471C87.4742 128.971 77.5742 134.171 69.5742 124.571C61.5742 114.971 45.5742 90.0714 56.3742 53.6714C67.1742 17.2714 116.074 -1.72864 161.574 16.7714C169.374 19.9714 174.374 26.8714 180.874 29.1714C194.174 34.0714 194.274 65.6714 192.774 58.4714Z" fill="#423232"/>
<path d="M87.7737 123.571C87.7737 123.571 87.5737 131.771 79.1737 146.971C79.1737 146.971 77.1737 138.571 72.7737 130.871C68.4737 123.171 59.9737 107.071 54.7737 90.9714C49.5737 74.8714 59.1737 94.8714 64.0737 101.571C68.8737 108.171 72.0737 124.571 87.7737 123.571Z" fill="#423232"/>
<path d="M73.6747 115.471C73.6747 115.471 70.8746 134.171 88.7746 157.771C106.675 181.371 107.675 205.571 101.075 231.171C101.075 231.171 90.6747 223.471 59.1747 200.871C27.6747 178.271 20.0746 139.671 61.4746 103.271C61.5746 103.271 73.2747 105.471 73.6747 115.471Z" fill="#423232"/>
<path d="M145.374 34.7714C149.074 37.0714 153.074 38.5714 157.374 38.8714C162.674 39.2714 170.574 42.8714 182.174 53.3714C195.874 65.7714 189.074 -15.3286 103.774 3.8714C74.5741 10.3714 53.7741 36.1714 50.1741 65.0714C49.9741 67.0714 49.7741 69.0714 49.6741 71.0714C48.8741 97.6714 70.3741 120.871 70.3741 120.871C70.3741 120.871 61.5741 83.8714 81.6741 68.5714C99.8741 54.6714 112.574 38.3714 128.474 38.3714C138.074 38.2714 143.174 33.4714 145.374 34.7714Z" fill="#423232"/>
<path d="M148.174 13.2714C148.174 13.2714 178.474 70.9714 193.474 70.4714C208.474 69.9714 224.074 22.9714 192.274 5.17138C170.074 -7.32862 148.174 13.2714 148.174 13.2714Z" fill="#423232"/>
<path d="M161.674 29.5714C161.674 29.5714 186.474 56.0714 174.774 63.6714C168.074 67.9714 161.674 54.9714 161.674 54.9714C161.674 54.9714 153.774 67.8714 141.174 61.3714C128.574 54.9714 136.974 36.4714 136.974 36.4714C136.974 36.4714 154.074 19.2714 161.674 29.5714Z" fill="#423232"/>
<path d="M139.474 38.5714C139.474 38.5714 134.974 65.8714 113.774 69.8714C92.5742 73.8714 90.0742 52.0714 90.0742 52.0714C90.0742 52.0714 121.474 17.5714 139.474 38.5714Z" fill="#423232"/>
<path d="M192.374 87.0714C192.374 87.0714 204.874 79.9714 204.174 62.2714C203.474 44.5714 194.174 56.5714 194.174 56.5714C194.174 56.5714 195.174 72.0714 192.374 87.0714Z" fill="#423232"/>
</svg>
