<svg width="250" height="194" viewBox="0 0 250 194" fill="none" xmlns="http://www.w3.org/2000/svg">
<path d="M83.1752 122.632L79.1752 148.132C79.1752 148.132 78.1752 135.032 73.9752 127.932C70.7752 122.432 61.3752 116.632 57.0752 98.7316L65.1752 99.4315C65.1752 99.4315 67.8752 90.9316 67.8752 91.5316C67.8752 92.0316 67.8752 100.232 67.8752 100.232L70.3752 100.432C70.0752 107.932 73.5752 116.932 83.1752 122.632Z" fill="#99807F"/>
<path d="M209.775 85.9315L202.175 87.5316C201.975 97.6316 201.575 104.932 201.575 104.932H190.075C190.075 104.932 191.775 97.8315 193.475 81.6315C195.075 67.0315 191.075 55.1316 187.075 49.3316C182.375 45.1316 173.875 51.1316 173.475 51.4316L174.375 49.3316C171.875 50.9316 170.075 52.5316 170.075 52.5316C170.075 52.5316 168.975 50.2316 166.875 47.2316C166.975 48.2316 167.075 49.2316 166.975 50.0316C166.975 50.0316 165.475 47.4316 162.975 44.5316C163.975 47.7316 163.675 50.4316 163.675 50.4316C154.975 37.8316 147.475 39.6316 143.675 41.9316C132.875 54.1316 132.275 85.9315 132.275 85.9315L121.475 84.8316C121.475 84.8316 121.375 81.2315 121.675 75.6315C119.375 91.1315 118.975 104.932 118.975 104.932L98.7752 103.432L97.8752 99.2316C97.8752 99.2316 94.7752 84.2316 80.1752 86.0316C74.6752 86.7316 70.6752 92.9316 70.3752 100.332L67.8752 100.132C67.8752 100.132 67.8752 91.9315 67.8752 91.4315C67.8752 90.9315 65.1752 99.3316 65.1752 99.3316L57.0752 98.6315L42.0752 97.2316C42.0752 97.2316 47.1752 36.4316 66.2752 21.0316C77.0752 12.3316 84.7752 10.4316 89.3752 10.4316C92.9752 10.4316 94.7752 11.5316 94.7752 11.5316C98.2752 7.93156 105.575 1.53155 114.675 0.831554C127.575 -0.168446 189.275 15.3316 196.975 31.3316C197.275 31.9316 197.575 32.6316 197.775 33.3316C200.375 39.5316 207.275 58.9315 209.775 85.9315Z" fill="#423232"/>
</svg>
