<svg width="250" height="202" viewBox="0 0 250 202" fill="none" xmlns="http://www.w3.org/2000/svg">
<path d="M205.553 72.8452C202.753 81.5452 196.653 89.6452 192.353 94.4452C195.053 79.2452 194.253 73.2452 192.653 66.1452C192.153 63.9452 191.553 61.8452 190.853 59.7452C175.153 75.0452 148.253 59.9452 148.253 59.9452C148.253 59.9452 142.553 64.6452 132.553 63.5452C121.853 62.4452 118.953 55.8452 118.953 55.8452C116.053 76.0452 96.9531 68.3452 100.453 88.4452C101.453 93.9452 101.453 99.2452 96.7531 104.745C95.9531 101.945 92.0531 90.5452 79.2531 92.1452C67.1531 93.6452 62.5531 121.645 87.5531 131.245C87.2531 140.545 72.4531 163.845 72.9531 137.845C73.0531 132.545 57.8531 132.945 49.5531 115.445C45.9531 107.845 46.9531 100.745 48.5531 95.6452C50.1531 90.7452 50.0531 85.4452 48.4531 80.5452C46.6531 74.8452 45.2531 66.2452 48.5531 55.8452C54.1531 38.0452 66.1531 33.9452 69.2531 31.8452C72.3531 29.7452 71.3531 14.3452 97.6531 5.74521C114.653 0.145213 132.853 9.84521 136.653 9.14521C140.453 8.44521 167.053 -9.05479 187.553 7.44521C207.353 23.4452 199.953 42.3452 199.953 42.3452C199.953 42.3452 212.353 51.8452 205.553 72.8452Z" fill="#423232"/>
</svg>
