<svg width="250" height="198" viewBox="0 0 250 198" fill="none" xmlns="http://www.w3.org/2000/svg">
<path d="M192.378 60.1684C192.078 58.6684 191.678 57.0684 191.178 55.5684C190.678 54.0684 189.478 52.7684 187.878 52.4684C182.678 51.5684 177.678 42.5684 170.478 41.5684C147.578 38.4684 132.278 40.3684 110.778 48.7684C88.5777 57.3684 101.178 93.1684 96.4777 98.6684C95.6777 95.8684 91.7777 84.4684 78.9777 86.0684C66.8777 87.5684 62.2777 115.568 87.2777 125.168C87.0777 130.668 77.1777 135.868 69.1777 126.268C61.1777 116.668 45.1777 91.7684 55.9777 55.3684C66.7777 18.9684 115.678 -0.0316181 161.178 18.4684C168.978 21.6684 173.678 29.5684 180.478 30.8684C243.778 42.9684 193.878 67.3684 192.378 60.1684Z" fill="#423232"/>
<path d="M87.3785 125.268C87.3785 125.268 87.1785 133.468 78.7785 148.668C78.7785 148.668 76.7785 140.268 72.3785 132.568C68.0785 124.868 58.7785 115.968 53.5785 99.8684C48.3785 83.7684 58.7785 96.5684 63.6785 103.268C68.4785 109.868 71.6785 126.268 87.3785 125.268Z" fill="#423232"/>
<path d="M170.478 48.1684C170.478 48.1684 152.178 31.3684 143.878 52.8684C135.578 74.3684 106.778 103.868 82.8777 69.5684C58.9777 35.2684 94.8777 7.8684 132.178 18.9684C169.678 30.1684 170.078 34.4684 170.478 48.1684Z" fill="#423232"/>
<path d="M170.478 48.1684C170.478 48.1684 188.578 82.0684 207.778 66.9684C224.878 53.4684 221.478 21.6684 195.378 14.2684C171.378 7.46838 168.778 19.8684 144.778 6.66838C120.778 -6.53162 77.2782 2.26838 69.1782 33.1684C69.1782 33.1684 45.7782 41.3684 44.8782 69.6684C43.9782 97.9684 66.1782 122.568 66.1782 122.568C66.1782 122.568 52.9782 74.1684 77.8782 66.9684C102.778 59.7684 109.678 34.8684 126.178 34.8684C142.678 34.8684 159.978 32.8684 170.478 48.1684Z" fill="#423232"/>
</svg>
