<svg width="290" height="190" viewBox="0 0 290 190" fill="none" xmlns="http://www.w3.org/2000/svg">
<path d="M47.8595 43.8782C47.8595 43.8782 28.4595 54.5782 17.8595 85.0782C7.25946 115.578 7.55945 160.978 7.55945 160.978H235.759C235.759 160.978 229.359 86.0782 206.759 61.0782C206.759 61.0782 208.259 83.4782 163.959 85.7782C119.659 88.0782 66.3595 73.9782 65.0595 65.7782C63.8595 57.3782 47.8595 43.8782 47.8595 43.8782Z" fill="white"/>
<path d="M216.059 162.778C153.259 191.778 49.8594 165.578 49.8594 165.578C49.8594 165.578 47.7594 140.078 55.3594 94.1782C55.6594 92.0782 55.9594 89.9782 56.1594 88.0782C58.3594 67.2782 53.2594 52.9782 47.8594 43.9782C47.8594 41.6782 50.2594 40.0782 52.9594 37.7782C54.0594 36.8782 55.5594 36.7782 56.3594 37.3782C57.7594 39.3782 59.0594 41.3782 60.1594 43.4782C71.3594 64.1782 93.3594 75.1782 116.759 77.4782C148.659 80.6782 161.959 80.1782 177.859 76.6782C193.159 73.2782 200.059 64.2782 195.759 49.2782C195.659 49.0782 195.659 48.7782 195.559 48.4782C198.259 48.2782 204.559 53.4782 206.659 61.1782C208.859 70.6782 210.559 81.3782 211.859 92.0782C216.159 126.978 216.059 162.778 216.059 162.778Z" fill="#444444"/>
<path d="M158.759 92.0782C160.637 92.0782 162.159 90.556 162.159 88.6782C162.159 86.8004 160.637 85.2782 158.759 85.2782C156.882 85.2782 155.359 86.8004 155.359 88.6782C155.359 90.556 156.882 92.0782 158.759 92.0782Z" fill="white"/>
<path d="M159.559 104.678C161.437 104.678 162.959 103.156 162.959 101.278C162.959 99.4004 161.437 97.8782 159.559 97.8782C157.681 97.8782 156.159 99.4004 156.159 101.278C156.159 103.156 157.681 104.678 159.559 104.678Z" fill="white"/>
</svg>
