<svg width="295" height="190" viewBox="0 0 295 190" fill="none" xmlns="http://www.w3.org/2000/svg">
<path d="M235.787 68.6923C221.587 50.3923 199.587 42.7923 187.487 38.2923C186.487 33.2923 171.687 27.2923 166.187 28.4923L166.987 31.7923C167.387 33.3923 169.387 40.7923 166.287 50.2923C163.687 58.2923 153.187 61.8923 135.387 53.7923C100.687 38.0923 96.6869 20.3923 96.6869 20.3923C96.1869 12.2923 67.2869 31.4923 55.9869 41.6923C50.3869 46.6923 47.9869 48.7923 42.1869 53.2923C29.4869 62.9923 14.3869 76.9923 8.68691 96.2923C-0.913087 129.092 0.686914 149.192 0.686914 149.192H258.887C258.887 149.292 255.087 93.5923 235.787 68.6923Z" fill="#A862F9"/>
<path d="M49.7867 149.292C49.7867 149.292 48.8867 126.992 45.8867 120.992" stroke="#544D4D" stroke-width="3" stroke-miterlimit="10" stroke-linecap="round" stroke-linejoin="round"/>
<path d="M226.387 99.4922C226.387 99.4922 231.987 130.892 229.787 149.292" stroke="#544D4D" stroke-width="3" stroke-miterlimit="10" stroke-linecap="round" stroke-linejoin="round"/>
<path d="M210.187 129.692C210.187 129.692 195.387 131.892 182.387 131.292" stroke="#544D4D" stroke-width="3" stroke-miterlimit="10" stroke-linecap="round" stroke-linejoin="round"/>
<path d="M53.187 47.7923C53.187 47.7923 46.887 64.0922 55.587 70.5922C64.287 76.9922 81.587 73.7923 81.587 73.7923C81.587 73.7923 82.787 94.3923 99.387 95.9923C115.987 97.5923 125.587 85.0922 125.587 85.0922C125.587 85.0922 139.187 103.492 158.687 102.192C178.187 100.792 177.287 78.0922 177.287 78.0922C177.287 78.0922 184.987 83.1922 194.287 79.6922C205.587 75.4922 201.687 56.8923 194.287 51.6922C194.287 51.6922 209.287 53.6923 204.687 45.3923C199.987 37.0923 178.887 27.3923 165.987 28.5923C165.987 28.5923 167.987 44.0922 152.787 47.1922C134.287 50.8923 113.387 42.9923 102.587 27.4923C95.687 17.5923 96.487 17.1923 90.587 18.5923C84.687 19.9923 50.687 38.3923 53.187 47.7923Z" fill="white"/>
<path d="M77.1865 25.0923C78.6865 28.9923 76.5865 28.9923 79.2865 33.3923C80.5865 35.4923 83.7865 36.6923 85.7865 39.1923C87.3865 41.1923 87.7865 44.6923 89.8865 46.7923C91.7865 48.6923 95.1865 49.0923 97.4865 50.9923C99.5865 52.6923 100.687 55.9923 103.187 57.4923C105.487 58.8923 108.887 58.5923 111.487 59.7923C113.887 60.9923 115.787 63.8923 118.487 64.7923C121.087 65.6923 124.287 64.5923 127.187 65.1923C130.687 65.9923 133.687 68.5923 136.887 68.9923C140.587 69.4923 144.087 67.6923 147.187 67.6923C150.887 67.6923 154.487 69.2923 157.487 68.6923C161.187 67.9923 163.687 64.9923 166.487 63.4923C169.787 61.7923 173.587 61.2923 175.787 58.8923C178.187 56.2923 178.187 52.2923 179.387 49.1923C180.687 45.8923 183.287 42.9923 183.487 39.6923C183.687 36.0923 181.387 32.7923 180.587 29.7923" stroke="#E2E2E2" stroke-width="3" stroke-miterlimit="10" stroke-linecap="round" stroke-linejoin="round"/>
<path d="M78.6865 48.1923C78.6865 48.1923 57.0865 48.7923 64.1865 58.6923C71.2865 68.4923 78.6865 48.1923 78.6865 48.1923Z" fill="#A862F9"/>
<path d="M106.787 68.7922C106.787 68.7922 88.8868 80.1922 99.7868 84.8922C110.687 89.5922 106.787 68.7922 106.787 68.7922Z" fill="#A862F9"/>
<path d="M156.786 75.4922C156.786 75.4922 149.386 94.5922 160.586 91.9922C171.786 89.4922 156.786 75.4922 156.786 75.4922Z" fill="#A862F9"/>
<path d="M184.187 60.1923C184.187 60.1923 187.087 76.9923 193.987 70.3923C200.787 63.6923 184.187 60.1923 184.187 60.1923Z" fill="#A862F9"/>
<path d="M189.487 38.1923C189.487 38.1923 196.987 49.9923 200.187 44.9923C203.387 39.8923 189.487 38.1923 189.487 38.1923Z" fill="#A862F9"/>
<path d="M101.887 26.2922C101.887 26.2922 94.9869 29.8922 93.0869 33.1922" stroke="#E2E2E2" stroke-width="3" stroke-miterlimit="10" stroke-linecap="round" stroke-linejoin="round"/>
<path d="M111.887 36.0923C111.887 36.0923 106.187 42.8923 105.487 45.2923" stroke="#E2E2E2" stroke-width="3" stroke-miterlimit="10" stroke-linecap="round" stroke-linejoin="round"/>
<path d="M124.787 44.3923C124.787 44.3923 121.787 50.2923 120.887 53.4923" stroke="#E2E2E2" stroke-width="3" stroke-miterlimit="10" stroke-linecap="round" stroke-linejoin="round"/>
<path d="M139.587 48.1923C139.587 48.1923 139.187 53.6923 139.587 57.7923" stroke="#E2E2E2" stroke-width="3" stroke-miterlimit="10" stroke-linecap="round" stroke-linejoin="round"/>
<path d="M154.387 47.0923C154.387 47.0923 156.387 53.0923 157.187 56.8923" stroke="#E2E2E2" stroke-width="3" stroke-miterlimit="10" stroke-linecap="round" stroke-linejoin="round"/>
<path d="M163.987 39.3923C163.987 39.3923 169.487 43.3923 170.387 46.1923" stroke="#E2E2E2" stroke-width="3" stroke-miterlimit="10" stroke-linecap="round" stroke-linejoin="round"/>
<path d="M166.187 30.7922C166.187 30.7922 171.287 30.9922 173.387 34.1922" stroke="#E2E2E2" stroke-width="3" stroke-miterlimit="10" stroke-linecap="round" stroke-linejoin="round"/>
</svg>
