<svg width="290" height="190" viewBox="0 0 290 190" fill="none" xmlns="http://www.w3.org/2000/svg">
<path d="M101.15 29.8125C101.15 29.8125 99.1504 17.4125 95.7504 18.1125C79.9504 21.7125 33.8504 35.1125 17.7504 69.9125C2.55039 103.012 1.15039 149.412 1.15039 149.412H254.05C254.05 149.412 249.45 78.9125 223.65 57.3125C208.35 44.4125 194.55 36.5125 183.25 31.7125C168.25 25.3125 153.15 38.7125 148.85 38.4125C141.15 38.0125 101.15 29.8125 101.15 29.8125Z" fill="#544D4D"/>
<path d="M50.6504 149.412L46.1504 112.312" stroke="white" stroke-width="3" stroke-miterlimit="10" stroke-linecap="round" stroke-linejoin="round"/>
<path d="M225.25 99.7125C225.25 99.7125 222.25 107.012 223.15 114.312C224.05 121.612 226.65 132.312 222.95 149.412" stroke="white" stroke-width="3" stroke-miterlimit="10" stroke-linecap="round" stroke-linejoin="round"/>
<path d="M89.6501 8.01246C89.6501 8.01246 82.4501 10.6125 81.1501 12.0125C79.8501 13.4125 79.2501 14.3125 79.2501 14.3125C79.2501 14.3125 75.6501 18.3125 73.6501 28.0125C72.7501 32.1125 74.8501 38.8125 73.2501 44.1125C68.6501 58.8125 90.4501 81.4125 126.45 94.7125C153.75 104.812 183.85 95.6125 188.05 76.6125C192.05 58.3125 189.65 50.0125 187.75 44.1125C183.95 32.7125 182.75 29.5125 177.65 25.1125C174.45 22.3125 172.25 28.1125 160.25 31.4125C156.55 32.4125 152.05 33.2125 146.25 33.4125C111.75 34.7125 97.1501 15.1125 91.9501 9.51246C90.6501 8.41246 90.0501 7.81246 89.6501 8.01246Z" fill="white"/>
<path d="M159.95 31.3125C156.25 32.3125 151.75 33.1125 145.95 33.3125C111.45 34.6125 96.8504 15.0125 91.6504 9.41246" stroke="#CCCCCC" stroke-width="3" stroke-miterlimit="10" stroke-linecap="round" stroke-linejoin="round"/>
<path d="M178.25 21.5125C187.35 29.1125 203.15 49.0125 199.35 93.5125C197.45 115.512 208.15 124.612 205.75 128.112C205.35 128.712 204.85 129.012 204.45 129.112C202.75 129.512 201.15 130.312 200.35 131.912C200.05 132.612 199.55 133.112 198.85 133.512C198.25 133.912 197.55 133.912 196.95 133.812C194.85 133.312 192.55 134.512 191.25 136.312C190.75 137.012 190.15 137.512 189.25 137.712C188.65 137.912 188.05 137.812 187.65 137.712C185.95 137.212 184.05 137.712 182.55 138.912C182.15 139.212 181.75 139.412 181.25 139.412C180.35 139.412 179.65 139.012 179.05 138.412C177.65 137.112 175.65 136.612 173.65 137.312C173.45 137.412 173.35 137.412 173.15 137.412C171.75 137.612 170.65 136.512 169.85 134.612C169.05 132.812 167.15 132.012 165.15 132.212C164.75 132.212 164.35 132.212 163.85 132.112C159.95 131.212 154.95 125.812 154.85 119.212C154.75 112.712 156.25 101.412 158.75 96.1125C166.45 79.8125 169.25 68.1125 169.65 59.3125C170.45 43.2125 160.25 28.8125 161.25 28.5125C171.45 26.4125 178.25 21.5125 178.25 21.5125Z" fill="white"/>
<path d="M158.65 96.1125C166.35 79.8125 169.15 68.1125 169.55 59.3125C170.15 46.9125 164.15 35.4125 161.95 30.7125" stroke="#CCCCCC" stroke-width="3" stroke-miterlimit="10" stroke-linecap="round" stroke-linejoin="round"/>
<path d="M154.751 119.212C154.651 112.712 156.151 101.412 158.651 96.1125C166.351 79.8125 169.151 68.1125 169.551 59.3125" stroke="#CCCCCC" stroke-width="3" stroke-miterlimit="10" stroke-linecap="round" stroke-linejoin="round"/>
<path d="M163.651 84.3125C163.651 84.3125 133.251 87.3125 113.251 72.2125" stroke="#CCCCCC" stroke-width="3" stroke-miterlimit="10" stroke-linecap="round" stroke-linejoin="round"/>
<path d="M171.851 31.6125C174.651 35.7125 177.851 41.7125 178.651 49.1125" stroke="#CCCCCC" stroke-width="3" stroke-miterlimit="10" stroke-linecap="round" stroke-linejoin="round"/>
<path d="M184.551 137.713C184.551 137.713 179.451 126.913 184.551 103.413C189.951 78.4125 187.451 66.1125 187.451 66.1125" stroke="#CCCCCC" stroke-width="3" stroke-miterlimit="10" stroke-linecap="round" stroke-linejoin="round"/>
<path d="M73.4502 33.0126C73.4502 33.0126 80.1502 46.8126 88.2502 53.2126" stroke="#CCCCCC" stroke-width="3" stroke-miterlimit="10" stroke-linecap="round" stroke-linejoin="round"/>
<path d="M168.751 66.1125C168.751 66.1125 149.751 67.4125 136.351 62.2125" stroke="#CCCCCC" stroke-width="3" stroke-miterlimit="10" stroke-linecap="round" stroke-linejoin="round"/>
</svg>
