<svg width="292" height="195" viewBox="0 0 292 195" fill="none" xmlns="http://www.w3.org/2000/svg">
<path d="M75.7861 21.8C75.7861 21.8 90.3861 16 93.0861 15.8L93.2861 18.1C93.2861 18.1 81.6861 23.1 80.9861 23.9C80.3861 24.6 75.7861 21.8 75.7861 21.8Z" fill="#7E5D6D"/>
<path d="M255.886 151.5H3.08594C3.08594 151.5 4.58594 105.1 19.7859 72C31.2859 47 58.8859 30.5 78.9859 23.3C84.6859 21.3 89.0859 19.1 93.1859 18C93.1859 18.5 93.4859 22.2 93.4859 22.6C93.4859 22.6 109.286 38.1 144.886 40C161.386 40.9 162.986 30.6 162.986 30.6C164.886 30.2 166.686 29.7 168.486 29.1C169.086 28.9 173.286 27.2 173.786 27C186.686 30.4 202.486 40 225.386 59.2C251.286 81.1 255.886 151.5 255.886 151.5Z" fill="#423232"/>
<mask id="mask0_112_4769" style="mask-type:alpha" maskUnits="userSpaceOnUse" x="3" y="18" width="253" height="134">
<path d="M255.886 151.5H3.08594C3.08594 151.5 4.58594 105.1 19.7859 72C31.2859 47 58.8859 30.5 78.9859 23.3C84.6859 21.3 89.0859 19.1 93.1859 18C93.1859 18.5 93.4859 22.2 93.4859 22.6C93.4859 22.6 109.286 38.1 144.886 40C161.386 40.9 162.986 30.6 162.986 30.6C164.886 30.2 166.686 29.7 168.486 29.1C169.086 28.9 173.286 27.2 173.786 27C186.686 30.4 202.486 40 225.386 59.2C251.286 81.1 255.886 151.5 255.886 151.5Z" fill="#423232"/>
</mask>
<g mask="url(#mask0_112_4769)">
<path d="M93.2863 34.7C103.786 49.5 131.786 72.1 154.186 76.4C164.886 78.4 180.186 41.7 166.286 26.9C154.386 14.2 103.786 10.9 95.6863 16.5C85.7863 23.1 90.6863 31.1 93.2863 34.7Z" stroke="#FFFF8D" stroke-width="5" stroke-miterlimit="10"/>
</g>
<path d="M207.186 49.8C213.648 49.8 218.886 44.5618 218.886 38.1C218.886 31.6383 213.648 26.4 207.186 26.4C200.725 26.4 195.486 31.6383 195.486 38.1C195.486 44.5618 200.725 49.8 207.186 49.8Z" fill="#FFFF8D"/>
<path d="M52.5859 151.5L48.0859 114.5" stroke="#544D4D" stroke-width="3" stroke-miterlimit="10" stroke-linecap="round" stroke-linejoin="round"/>
<path d="M227.187 101.8C227.187 101.8 224.187 109.1 225.087 116.4C225.987 123.7 228.587 134.4 224.887 151.5" stroke="#544D4D" stroke-width="3" stroke-miterlimit="10" stroke-linecap="round" stroke-linejoin="round"/>
<path d="M75.7863 21.8C77.6863 21.2 80.9863 21.8 81.9863 23.5C85.8863 29.9 95.2863 48.6 99.1863 85.7C102.286 114.7 97.5863 166.9 97.5863 166.9L0.486328 162.3C0.486328 162.3 3.38633 113 11.8863 79.9C20.1863 47.8 41.9863 33.4 75.7863 21.8Z" fill="white"/>
<path d="M176.286 27.9C176.286 27.9 207.186 86 198.186 163.6H264.886C264.886 163.6 264.586 102 249.586 68.5C234.586 35.1 182.086 25.3 182.086 25.3C182.086 25.3 178.786 26.9 176.286 27.9Z" fill="white"/>
<path d="M176.287 27.9L173.887 27.2C173.887 27.2 177.387 25.5 178.887 24.5L179.787 24C179.787 24 184.587 26.2 186.287 27C187.987 27.8 180.387 31.5 180.387 31.5C180.387 31.5 176.587 27.9 176.287 27.9Z" fill="#7E5D6D"/>
<path d="M67.4868 56.1C67.4868 56.1 53.6868 65.8 54.9868 76.1C56.2868 86.4 98.7868 150.9 98.7868 150.9C98.7868 150.9 103.787 115.9 98.0868 76.3C98.0868 76.3 93.9868 70.8 86.4868 65.3C81.4868 61.8 75.0868 58.1 67.4868 56.1Z" fill="#AD7E5A"/>
<path d="M228.886 76.1C229.286 69.7 214.486 59.3 214.486 59.3C208.586 61 204.386 63.7 201.386 66.6C194.686 72.9 193.786 80 193.786 80L194.186 81.8C201.286 112.7 199.186 152.9 199.186 152.9C199.186 152.9 228.486 82.5 228.886 76.1Z" fill="#AD7E5A"/>
<path d="M97.9866 76.3C97.9866 76.3 90.9866 68.9 82.5866 63.7C63.9866 52.2 36.6866 46.9 36.3866 38C36.1866 28 69.3866 7.1 91.3866 0C91.3866 0.1 91.3866 0.200003 91.3866 0.300003C91.3866 0.400003 91.3866 0.499997 91.3866 0.699997C91.3866 0.899997 91.3866 1.1 91.4866 1.3C91.4866 1.6 91.5866 1.9 91.5866 2.2C91.5866 2.4 91.5866 2.5 91.6866 2.7C92.3866 8.7 92.9866 15.4 93.4866 22.5V22.6C93.4866 22.6 88.8866 24.1 92.1866 47C93.0866 52.6 96.4866 62.4 97.9866 76.3Z" fill="#AD7E5A"/>
<path d="M193.786 79.5C193.786 79.5 187.086 53.5 183.786 45.2C180.486 37 174.286 27.7 173.986 27.2C177.886 25.4 181.386 23.1 184.486 20.4C187.586 17.7 190.086 15 192.186 12.3C203.386 18.2 235.486 36.8 237.086 46.1C238.886 56.2 199.986 55.6 193.786 79.5Z" fill="#AD7E5A"/>
<path d="M157.686 94.1C164.148 94.1 169.386 88.8617 169.386 82.4C169.386 75.9383 164.148 70.7 157.686 70.7C151.225 70.7 145.986 75.9383 145.986 82.4C145.986 88.8617 151.225 94.1 157.686 94.1Z" fill="#FFFF8D"/>
<path d="M157.687 88.4C161 88.4 163.687 85.7137 163.687 82.4C163.687 79.0863 161 76.4 157.687 76.4C154.373 76.4 151.687 79.0863 151.687 82.4C151.687 85.7137 154.373 88.4 157.687 88.4Z" fill="#FFBE71"/>
<path d="M214.486 59.3C208.586 61 204.386 63.7 201.386 66.6C194.686 72.9 193.786 80 193.786 80" stroke="#894B33" stroke-width="3" stroke-miterlimit="10" stroke-linecap="round" stroke-linejoin="round"/>
<path d="M97.9867 76.3C97.9867 76.3 93.8867 70.8 86.3867 65.3C81.4867 61.7 75.0867 58.1 67.3867 56" stroke="#894B33" stroke-width="3" stroke-miterlimit="10" stroke-linecap="round" stroke-linejoin="round"/>
</svg>
