<svg width="292" height="190" viewBox="0 0 292 190" fill="none" xmlns="http://www.w3.org/2000/svg">
<path d="M75.7861 19.1019C75.7861 19.1019 90.3861 13.3019 93.0861 13.1019L93.2861 15.4019C93.2861 15.4019 81.6861 20.4019 80.9861 21.2019C80.3861 21.9019 75.7861 19.1019 75.7861 19.1019Z" fill="#7E5D6D"/>
<path d="M255.886 150.802H3.08594C3.08594 150.802 4.58594 104.402 19.7859 71.3019C31.2859 46.3019 58.8859 29.8019 78.9859 22.6019C84.6859 20.6019 89.0859 18.4019 93.1859 17.3019C93.1859 17.8019 93.4859 21.5019 93.4859 21.9019C93.4859 21.9019 109.286 37.4019 144.886 39.3019C161.386 40.2019 162.986 29.9019 162.986 29.9019C164.886 29.5019 166.686 29.0019 168.486 28.4019C169.086 28.2019 173.286 26.5019 173.786 26.3019C186.686 29.7019 202.486 39.3019 225.386 58.5019C251.286 80.4019 255.886 150.802 255.886 150.802Z" fill="#69D69D"/>
<path d="M207.186 47.1019C213.648 47.1019 218.886 41.8636 218.886 35.4019C218.886 28.9402 213.648 23.7019 207.186 23.7019C200.725 23.7019 195.486 28.9402 195.486 35.4019C195.486 41.8636 200.725 47.1019 207.186 47.1019Z" fill="#FFFF8D"/>
<path d="M52.5859 148.802L48.0859 111.802" stroke="#544D4D" stroke-width="3" stroke-miterlimit="10" stroke-linecap="round" stroke-linejoin="round"/>
<path d="M227.187 99.1019C227.187 99.1019 224.187 106.402 225.087 113.702C225.987 121.002 228.587 131.702 224.887 148.802" stroke="#544D4D" stroke-width="3" stroke-miterlimit="10" stroke-linecap="round" stroke-linejoin="round"/>
<path d="M75.7863 19.1019C77.6863 18.5019 80.9863 19.1019 81.9863 20.8019C85.8863 27.2019 139.586 36.8019 143.486 73.9019C146.586 102.902 140.786 164.202 140.786 164.202L0.486328 159.602C0.486328 159.602 3.38633 110.302 11.8863 77.2019C20.1863 45.1019 41.9863 30.7019 75.7863 19.1019Z" fill="#5889BA"/>
<path d="M166.286 73.8019C166.286 73.8019 172.486 105.902 171.386 160.802H264.886C264.886 160.802 264.586 99.2019 249.586 65.7019C234.586 32.3019 182.086 22.5019 182.086 22.5019C182.086 22.5019 168.786 72.9019 166.286 73.8019Z" fill="#5889BA"/>
<path d="M176.287 28.2019L173.887 27.5019C173.887 27.5019 177.387 25.8019 178.887 24.8019L179.787 24.3019C179.787 24.3019 184.587 26.5019 186.287 27.3019C187.987 28.1019 180.387 31.8019 180.387 31.8019C180.387 31.8019 176.587 28.2019 176.287 28.2019Z" fill="#7E5D6D"/>
<path d="M143.487 73.8019C143.487 73.8019 127.387 60.5019 91.2868 53.3019C59.7868 47.0019 27.1868 50.0019 29.9868 41.6019C38.7868 15.3019 91.6868 -0.198088 91.6868 0.0019121C91.6868 0.101912 91.6868 0.101909 91.6868 0.201909C93.0868 12.5019 102.487 21.2019 114.187 25.3019C122.787 28.3019 134.087 29.6019 138.187 30.1019C142.087 30.5019 143.387 59.6019 143.487 73.8019Z" fill="white"/>
<path d="M143.486 73.8019C141.386 72.4019 139.186 71.2019 136.986 70.0019C135.886 69.4019 134.786 68.9019 133.586 68.3019C132.486 67.8019 131.286 67.2019 130.186 66.7019C125.586 64.7019 120.886 62.9019 116.186 61.3019C114.986 60.9019 113.786 60.5019 112.586 60.2019L108.986 59.1019L105.386 58.1019C104.186 57.8019 102.986 57.4019 101.786 57.2019L98.1864 56.3019C96.9864 56.0019 95.7864 55.8019 94.4864 55.5019C92.0864 55.0019 89.5864 54.5019 87.0864 54.1019C82.1864 53.2019 77.1864 52.5019 72.1864 51.9019C67.1864 51.3019 62.1864 50.8019 57.1864 50.2019C52.1864 49.7019 47.1864 49.2019 42.0864 48.4019C39.5864 48.0019 37.0864 47.5019 34.5864 46.7019C33.3864 46.3019 32.1864 45.8019 31.0864 45.0019C30.7864 44.8019 30.5864 44.5019 30.3864 44.3019C30.1864 44.0019 29.9864 43.8019 29.8864 43.4019C29.5864 42.8019 29.7864 42.1019 29.9864 41.5019C29.8864 42.1019 29.7864 42.8019 30.0864 43.3019C30.1864 43.6019 30.4864 43.8019 30.5864 44.0019C30.7864 44.2019 31.0864 44.4019 31.2864 44.5019C32.2864 45.1019 33.4864 45.5019 34.7864 45.7019C37.1864 46.2019 39.6864 46.5019 42.1864 46.7019C47.1864 47.1019 52.1864 47.3019 57.2864 47.7019C62.2864 48.0019 67.3864 48.4019 72.3864 48.9019C77.3864 49.4019 82.4864 50.1019 87.4864 50.9019C97.4864 52.8019 107.386 55.2019 116.886 58.9019C119.286 59.8019 121.586 60.8019 123.886 61.8019L127.286 63.4019C128.386 64.0019 129.586 64.6019 130.686 65.1019C131.786 65.7019 132.886 66.3019 133.986 67.0019C135.086 67.7019 136.186 68.3019 137.186 69.0019C139.586 70.7019 141.586 72.2019 143.486 73.8019Z" fill="#446F93"/>
<path d="M241.587 49.2019C239.987 39.9019 196.987 8.80195 192.187 9.60195C190.087 12.4019 187.587 15.1019 184.487 17.7019C181.387 20.4019 177.787 22.7019 173.987 24.5019C168.387 26.5019 164.587 28.1019 158.287 28.9019C157.287 29.0019 156.687 30.0019 156.987 30.9019C161.687 43.6019 163.787 60.9019 166.287 73.9019C178.187 62.2019 191.587 57.0019 203.787 54.6019C225.087 50.3019 242.587 54.9019 241.587 49.2019Z" fill="white"/>
<path d="M166.286 73.8019C170.786 68.6019 176.186 64.1019 182.286 60.7019C185.286 59.0019 188.486 57.5019 191.786 56.3019C195.086 55.1019 198.486 54.1019 201.886 53.4019C205.286 52.7019 208.786 52.2019 212.186 51.8019C215.686 51.5019 219.086 51.3019 222.586 51.4019C226.086 51.4019 229.486 51.6019 232.886 51.7019C234.586 51.8019 236.286 51.8019 237.986 51.7019C238.786 51.6019 239.686 51.5019 240.386 51.2019C240.786 51.1019 241.086 50.8019 241.286 50.5019C241.486 50.2019 241.586 49.7019 241.586 49.3019C241.686 49.7019 241.786 50.2019 241.486 50.6019C241.286 51.0019 240.986 51.4019 240.586 51.6019C239.786 52.1019 238.886 52.3019 238.086 52.5019C236.386 52.9019 234.586 53.0019 232.886 53.2019C229.486 53.4019 225.986 53.6019 222.586 53.8019C219.186 54.0019 215.786 54.3019 212.386 54.7019C208.986 55.1019 205.686 55.6019 202.386 56.4019C195.786 57.8019 189.386 59.9019 183.286 62.9019C177.286 65.7019 171.586 69.5019 166.286 73.8019Z" fill="#446F93"/>
<path d="M132.386 92.1019C136.749 92.1019 140.286 88.5649 140.286 84.2019C140.286 79.8388 136.749 76.3019 132.386 76.3019C128.023 76.3019 124.486 79.8388 124.486 84.2019C124.486 88.5649 128.023 92.1019 132.386 92.1019Z" fill="white"/>
<path d="M82.1859 116.602C92.4584 116.602 100.786 108.274 100.786 98.0019C100.786 87.7294 92.4584 79.4019 82.1859 79.4019C71.9134 79.4019 63.5859 87.7294 63.5859 98.0019C63.5859 108.274 71.9134 116.602 82.1859 116.602Z" fill="#446F93"/>
<path d="M217.287 116.602C227.559 116.602 235.887 108.274 235.887 98.0019C235.887 87.7294 227.559 79.4019 217.287 79.4019C207.014 79.4019 198.687 87.7294 198.687 98.0019C198.687 108.274 207.014 116.602 217.287 116.602Z" fill="#446F93"/>
<path d="M179.887 91.002C184.029 91.002 187.387 87.6441 187.387 83.502C187.387 79.3598 184.029 76.002 179.887 76.002C175.745 76.002 172.387 79.3598 172.387 83.502C172.387 87.6441 175.745 91.002 179.887 91.002Z" fill="white"/>
<path d="M143.286 62.8019C142.886 62.5019 142.486 62.2019 142.086 61.9019" stroke="#C3CAD1" stroke-width="3" stroke-linecap="round" stroke-linejoin="round"/>
<path d="M133.986 56.5019C125.986 52.1019 117.086 49.3019 106.586 46.4019C82.3857 39.6019 65.8857 41.8019 44.9857 35.5019C43.8857 35.2019 42.5857 34.8019 41.3857 34.3019" stroke="#C3CAD1" stroke-width="3" stroke-linecap="round" stroke-linejoin="round" stroke-dasharray="2.9 2.9"/>
<path d="M37.5861 31.4019C37.3861 31.0019 37.2861 30.5019 37.2861 30.0019" stroke="#C3CAD1" stroke-width="3" stroke-linecap="round" stroke-linejoin="round"/>
<path d="M137.587 29.9019C141.687 30.2019 150.887 30.5019 160.187 29.7019C161.187 29.6019 162.087 30.3019 162.187 31.3019L162.987 36.5019C163.187 37.5019 162.487 38.5019 161.387 38.6019C157.187 39.2019 146.787 40.4019 137.787 38.8019C136.987 38.7019 136.387 38.0019 136.287 37.2019L135.587 32.0019C135.487 30.9019 136.387 29.9019 137.587 29.9019Z" fill="white"/>
<path d="M139.086 43.8019C143.186 44.1019 152.386 44.4019 161.686 43.6019C162.686 43.5019 163.586 44.2019 163.686 45.2019L164.486 50.4019C164.686 51.4019 163.986 52.4019 162.886 52.5019C158.686 53.1019 148.286 54.3019 139.286 52.7019C138.486 52.6019 137.886 51.9019 137.786 51.1019L137.086 45.9019C136.886 44.7019 137.886 43.7019 139.086 43.8019Z" fill="white"/>
<path d="M164.586 64.2019C164.586 64.2019 164.986 63.8019 165.686 63.2019" stroke="#C3CAD1" stroke-width="3" stroke-linecap="round" stroke-linejoin="round"/>
<path d="M173.886 57.5019C178.986 54.5019 186.186 50.9019 195.686 47.9019C210.686 43.2019 223.686 43.5019 231.286 43.5019" stroke="#C3CAD1" stroke-width="3" stroke-linecap="round" stroke-linejoin="round" stroke-dasharray="3 3"/>
<path d="M236.386 43.4019C236.986 43.3019 237.486 43.2019 237.886 43.1019" stroke="#C3CAD1" stroke-width="3" stroke-linecap="round" stroke-linejoin="round"/>
<path d="M136.687 79.7019C143.987 81.0019 157.987 82.5019 175.687 79.4019C178.487 78.9019 181.087 80.9019 181.287 83.7019V84.2019C181.487 86.6019 179.887 88.8019 177.587 89.3019C170.487 91.0019 154.587 93.4019 134.687 89.1019C132.487 88.6019 130.887 86.6019 130.887 84.4019C130.987 81.4019 133.787 79.1019 136.687 79.7019Z" fill="#C3CAD1"/>
<path d="M162.686 36.9019C164.122 36.9019 165.286 35.7379 165.286 34.3019C165.286 32.866 164.122 31.7019 162.686 31.7019C161.25 31.7019 160.086 32.866 160.086 34.3019C160.086 35.7379 161.25 36.9019 162.686 36.9019Z" fill="#C3CAD1"/>
<path d="M166.287 49.9019C167.722 49.9019 168.887 48.7379 168.887 47.3019C168.887 45.866 167.722 44.7019 166.287 44.7019C164.851 44.7019 163.687 45.866 163.687 47.3019C163.687 48.7379 164.851 49.9019 166.287 49.9019Z" fill="#C3CAD1"/>
</svg>
