<svg width="290" height="190" viewBox="0 0 290 190" fill="none" xmlns="http://www.w3.org/2000/svg">
<path d="M82.5 64.6782C82.5 64.6782 124.2 83.0782 161.2 81.0782C174.1 80.3782 186.4 77.2782 196.2 69.9782C196.2 69.9782 198.4 90.0782 169.5 101.878C140.6 113.778 91.3 81.4782 82.5 64.6782Z" fill="#FFF573"/>
<path d="M154.3 81.2782C154.3 81.2782 145.4 108.778 136.8 109.878C128.2 110.978 84.9002 74.5782 81.2002 63.6782C81.2002 63.5782 117.7 80.0782 154.3 81.2782Z" fill="white"/>
<path d="M154.3 81.2782C154.3 81.2782 168.1 102.478 174.2 103.578C180.3 104.678 192.7 85.1782 195.5 70.3782C195.6 70.3782 183.4 80.8782 154.3 81.2782Z" fill="white"/>
<path d="M235.8 159.178H8C8.2 147.578 9.5 112.378 18.3 87.1782C22.1 76.1782 27.4 67.2782 32.7 60.2782C33.3 59.4782 34 58.5782 34.6 57.7782C43.4 46.8782 51.8 41.0782 53.5 39.7782C54.6 38.8782 56.1 38.7782 56.9 39.3782C158.6 150.478 205.5 81.4782 196.4 51.2782C196.3 51.0782 196.3 50.7782 196.2 50.4782C197.5 50.3782 206.3 57.6782 215.3 74.4782C217.4 78.3782 219.5 82.7782 221.5 87.6782C221.5 87.7782 221.6 87.8782 221.6 87.9782C226.6 100.278 231.1 115.878 233.8 135.278C234.6 142.778 235.4 150.678 235.8 159.178Z" fill="#BF76FF"/>
<path d="M56.7998 39.2782C158.5 150.378 205.4 81.3782 196.3 51.1782C196.2 50.9782 196.2 50.6782 196.1 50.3782" stroke="#A164DD" stroke-width="3" stroke-miterlimit="10" stroke-linecap="round" stroke-linejoin="round"/>
<path d="M77.9 159.178H8C8.2 147.578 9.5 112.378 18.3 87.1782C22.1 76.1782 27.4 67.2782 32.7 60.2782C33.3 59.4782 67.7 53.5782 76.5 119.378C78.9 137.978 78.1 146.478 77.9 159.178Z" fill="#A164DD"/>
<path d="M217.2 159.178C220.9 88.7782 211.2 67.7782 211.2 67.7782C212.9 69.6782 214.5 71.8782 216 74.4782C218.2 78.2782 220.3 82.7782 222.2 87.6782C222.2 87.7782 222.3 87.8782 222.3 87.9782C227.7 102.278 231.7 120.078 234.5 135.278C235.5 142.678 236.3 150.578 236.6 159.078H217.2V159.178Z" fill="#A164DD"/>
<path d="M50.0996 46.1781C49.6996 46.1781 49.2996 45.9781 48.9996 45.6781C48.5996 45.1781 48.2996 44.8782 48.2996 44.8782C47.7996 44.2782 47.8996 43.2781 48.4996 42.7781C49.0996 42.2781 50.0996 42.3781 50.5996 42.9781C50.5996 42.9781 50.7996 43.2781 51.1996 43.6781C51.6996 44.2781 51.6996 45.2781 50.9996 45.7781C50.7996 46.0781 50.3996 46.1781 50.0996 46.1781Z" fill="#A164DD"/>
<path d="M153.799 111.178C153.099 111.178 152.399 111.178 151.699 111.078C150.899 111.078 150.199 110.378 150.299 109.478C150.299 108.678 150.999 107.978 151.899 108.078C152.599 108.078 153.199 108.078 153.899 108.178C154.699 108.178 155.399 108.878 155.399 109.678C155.299 110.478 154.599 111.178 153.799 111.178ZM165.799 110.078C165.099 110.078 164.499 109.578 164.299 108.878C164.099 108.078 164.699 107.278 165.499 107.078C166.099 106.978 166.799 106.778 167.399 106.678C168.199 106.478 168.999 106.978 169.199 107.778C169.399 108.578 168.899 109.378 168.099 109.578C167.399 109.778 166.799 109.878 166.099 109.978C165.899 110.078 165.799 110.078 165.799 110.078ZM139.899 109.578C139.799 109.578 139.699 109.578 139.599 109.578C138.899 109.478 138.299 109.278 137.599 109.078C136.799 108.878 136.299 108.078 136.499 107.278C136.699 106.478 137.499 105.978 138.299 106.178C138.899 106.378 139.599 106.478 140.199 106.578C140.999 106.778 141.499 107.578 141.399 108.378C141.199 109.078 140.499 109.578 139.899 109.578ZM178.999 105.578C178.499 105.578 177.899 105.278 177.699 104.778C177.299 104.078 177.599 103.178 178.399 102.778C178.999 102.478 179.599 102.178 180.099 101.878C180.799 101.478 181.699 101.778 182.099 102.478C182.499 103.178 182.199 104.078 181.499 104.478C180.899 104.778 180.299 105.178 179.699 105.478C179.499 105.578 179.199 105.578 178.999 105.578ZM126.399 105.478C126.199 105.478 125.999 105.478 125.899 105.378C125.299 105.178 124.599 104.878 123.999 104.678C123.199 104.378 122.899 103.478 123.199 102.678C123.499 101.878 124.399 101.578 125.199 101.878C125.799 102.078 126.399 102.378 126.999 102.578C127.799 102.878 128.199 103.778 127.899 104.478C127.599 105.178 126.999 105.478 126.399 105.478ZM113.599 99.6782C113.399 99.6782 113.099 99.5782 112.899 99.4782C112.299 99.1782 111.699 98.8782 111.099 98.4782C110.399 98.0782 110.099 97.1782 110.499 96.4782C110.899 95.7782 111.799 95.4782 112.499 95.8782C113.099 96.1782 113.699 96.4782 114.199 96.7782C114.899 97.1782 115.199 98.0782 114.799 98.7782C114.699 99.3782 114.199 99.6782 113.599 99.6782ZM190.399 97.4782C189.999 97.4782 189.599 97.3782 189.299 97.0782C188.699 96.4782 188.699 95.5782 189.299 94.9782C189.799 94.4782 190.199 94.0782 190.599 93.5782C191.199 92.9782 192.099 92.8782 192.699 93.4782C193.299 94.0782 193.399 94.9782 192.799 95.5782C192.299 96.0782 191.899 96.5782 191.399 97.0782C191.099 97.2782 190.699 97.4782 190.399 97.4782ZM101.599 92.4782C101.299 92.4782 100.999 92.3782 100.799 92.1782C100.199 91.7782 99.6994 91.3782 99.0994 91.0782C98.3994 90.5782 98.1994 89.6782 98.6994 88.9782C99.1994 88.2782 100.099 88.0782 100.799 88.5782C101.299 88.9782 101.899 89.2782 102.499 89.6782C103.199 90.1782 103.399 91.0782 102.899 91.7782C102.599 92.1782 102.099 92.4782 101.599 92.4782ZM198.399 85.9782C198.199 85.9782 197.999 85.9782 197.699 85.7782C196.999 85.3782 196.599 84.4782 196.999 83.7782C197.299 83.1782 197.599 82.5782 197.799 81.9782C198.099 81.1782 198.999 80.8782 199.799 81.1782C200.599 81.4782 200.899 82.3782 200.599 83.1782C200.299 83.7782 199.999 84.4782 199.699 85.0782C199.499 85.6782 198.999 85.9782 198.399 85.9782ZM90.1994 84.1782C89.8994 84.1782 89.5994 84.0782 89.2994 83.8782C88.7994 83.4782 88.1994 83.0782 87.6994 82.6782C87.0994 82.1782 86.8994 81.1782 87.4994 80.5782C87.9994 79.9782 88.9994 79.7782 89.5994 80.3782C90.0994 80.7782 90.5994 81.1782 91.1994 81.5782C91.8994 82.0782 91.9994 83.0782 91.4994 83.6782C91.0994 83.9782 90.6994 84.1782 90.1994 84.1782ZM79.3994 75.2782C78.9994 75.2782 78.6994 75.1782 78.3994 74.8782C77.8994 74.4782 77.3994 73.9782 76.8994 73.5782C76.2994 73.0782 76.1994 72.0782 76.7994 71.4782C77.2994 70.8782 78.2994 70.7782 78.8994 71.3782C79.3994 71.7782 79.8994 72.2782 80.3994 72.6782C80.9994 73.1782 81.0994 74.1782 80.4994 74.7782C80.1994 75.0782 79.7994 75.2782 79.3994 75.2782ZM202.599 72.6782C202.499 72.6782 202.399 72.6782 202.399 72.6782C201.599 72.5782 200.999 71.7782 201.199 70.9782C201.299 70.2782 201.399 69.6782 201.499 69.0782C201.599 68.2782 202.299 67.6782 203.199 67.7782C203.999 67.8782 204.599 68.5782 204.499 69.4782C204.399 70.1782 204.299 70.7782 204.199 71.4782C203.999 72.0782 203.299 72.6782 202.599 72.6782ZM68.9994 65.7782C68.5994 65.7782 68.1994 65.6782 67.9994 65.3782C67.4994 64.8782 66.9994 64.4782 66.5994 63.9782C65.9994 63.3782 65.9994 62.4782 66.5994 61.8782C67.1994 61.2782 68.0994 61.2782 68.6994 61.8782C69.1994 62.3782 69.6994 62.7782 70.0994 63.2782C70.6994 63.8782 70.6994 64.7782 70.0994 65.3782C69.7994 65.5782 69.3994 65.7782 68.9994 65.7782ZM59.0994 55.7782C58.6994 55.7782 58.2994 55.5782 57.9994 55.2782C57.4994 54.7782 57.0994 54.2782 56.5994 53.7782C55.9994 53.1782 56.0994 52.1782 56.6994 51.6782C57.2994 51.1782 58.2994 51.1782 58.7994 51.7782C59.1994 52.2782 59.6994 52.7782 60.1994 53.2782C60.7994 53.8782 60.6994 54.7782 60.0994 55.3782C59.8994 55.5782 59.4994 55.7782 59.0994 55.7782Z" fill="#A164DD"/>
<path d="M202.8 59.6782C202.1 59.6782 201.4 59.1782 201.3 58.3782C201.2 57.7782 201.2 57.4782 201.2 57.4782C201 56.6782 201.6 55.8782 202.4 55.6782C203.2 55.4782 204 56.0782 204.2 56.8782C204.2 56.8782 204.3 57.2782 204.4 57.9782C204.5 58.7782 203.9 59.5782 203.1 59.6782C202.9 59.6782 202.8 59.6782 202.8 59.6782Z" fill="#A164DD"/>
</svg>
