<svg width="290" height="192" viewBox="0 0 290 192" fill="none" xmlns="http://www.w3.org/2000/svg">
<path d="M166.721 29.1C166.721 29.1 151.721 33.5 130.921 26.7C110.121 19.9 89.8205 2 89.8205 2C89.8205 2 83.2205 2.10001 80.7205 7.10001C78.3205 12.1 78.4205 22.4 74.6205 25.2C73.7205 25.8 71.2205 26.5 67.5205 27.5C61.5205 29.2 52.6205 31.8 43.6205 36.9C36.9205 40.7 30.1205 45.8 24.4205 52.8C21.8205 56 19.5205 59.6 17.5205 63.7C1.72053 95.8 8.52053 140.8 8.52053 140.8H252.921C252.921 140.8 245.821 85.2 230.521 66.9C215.221 48.6 186.021 33.8 177.421 29.9V24.1C177.521 24.1 172.221 27.6 166.721 29.1Z" fill="#48D89E"/>
<mask id="mask0_4_1829" style="mask-type:alpha" maskUnits="userSpaceOnUse" x="7" y="2" width="246" height="139">
<path d="M166.721 29.1C166.721 29.1 151.721 33.5 130.921 26.7C110.121 19.9 89.8205 2 89.8205 2C89.8205 2 83.2205 2.10001 80.7205 7.10001C78.3205 12.1 78.4205 22.4 74.6205 25.2C73.7205 25.8 71.2205 26.5 67.5205 27.5C61.5205 29.2 52.6205 31.8 43.6205 36.9C36.9205 40.7 30.1205 45.8 24.4205 52.8C21.8205 56 19.5205 59.6 17.5205 63.7C1.72053 95.8 8.52053 140.8 8.52053 140.8H252.921C252.921 140.8 245.821 85.2 230.521 66.9C215.221 48.6 186.021 33.8 177.421 29.9V24.1C177.521 24.1 172.221 27.6 166.721 29.1Z" fill="#48D89E"/>
</mask>
<g mask="url(#mask0_4_1829)">
<path d="M47.9203 67.3C53.7745 67.3 58.5203 62.5542 58.5203 56.7C58.5203 50.8458 53.7745 46.1 47.9203 46.1C42.0661 46.1 37.3203 50.8458 37.3203 56.7C37.3203 62.5542 42.0661 67.3 47.9203 67.3Z" fill="#FCED7E"/>
<path d="M108.22 62.4C114.074 62.4 118.82 57.6542 118.82 51.8C118.82 45.9458 114.074 41.2 108.22 41.2C102.366 41.2 97.6201 45.9458 97.6201 51.8C97.6201 57.6542 102.366 62.4 108.22 62.4Z" fill="#FCED7E"/>
<path d="M153.821 39.9C159.675 39.9 164.421 35.1542 164.421 29.3C164.421 23.4458 159.675 18.7 153.821 18.7C147.966 18.7 143.221 23.4458 143.221 29.3C143.221 35.1542 147.966 39.9 153.821 39.9Z" fill="#FCED7E"/>
<path d="M89.4203 114.3C95.2745 114.3 100.02 109.554 100.02 103.7C100.02 97.8458 95.2745 93.1 89.4203 93.1C83.5661 93.1 78.8203 97.8458 78.8203 103.7C78.8203 109.554 83.5661 114.3 89.4203 114.3Z" fill="#FCED7E"/>
<path d="M212.821 108.9C218.675 108.9 223.421 104.154 223.421 98.3C223.421 92.4458 218.675 87.7 212.821 87.7C206.966 87.7 202.221 92.4458 202.221 98.3C202.221 104.154 206.966 108.9 212.821 108.9Z" fill="#FCED7E"/>
<path d="M154.42 100.3C160.275 100.3 165.02 95.5542 165.02 89.7C165.02 83.8458 160.275 79.1 154.42 79.1C148.566 79.1 143.82 83.8458 143.82 89.7C143.82 95.5542 148.566 100.3 154.42 100.3Z" fill="#FCED7E"/>
<path d="M204.621 57.3C210.475 57.3 215.221 52.5542 215.221 46.7C215.221 40.8458 210.475 36.1 204.621 36.1C198.766 36.1 194.021 40.8458 194.021 46.7C194.021 52.5542 198.766 57.3 204.621 57.3Z" fill="#FCED7E"/>
</g>
<path d="M177.52 29.9001C177.52 29.9001 178.82 38.9001 176.52 44.0001C172.82 52.4001 147.12 62.0001 116.02 50.8001C91.3199 41.9001 79.2199 29.6001 78.9199 27.7001" stroke="#329369" stroke-width="3" stroke-miterlimit="10" stroke-linecap="round" stroke-linejoin="round"/>
<path d="M97.6199 12.2001C97.1199 12.8001 96.6199 13.6001 96.2199 14.6001C94.8199 18.0001 94.4199 25.1001 94.4199 25.1001" stroke="#329369" stroke-width="3" stroke-miterlimit="10" stroke-linecap="round" stroke-linejoin="round"/>
<path d="M114.52 22.5C114.12 23.3 113.72 24.2 113.52 25.2C113.02 27.8 112.42 36 112.42 36" stroke="#329369" stroke-width="3" stroke-miterlimit="10" stroke-linecap="round" stroke-linejoin="round"/>
<path d="M131.521 29.5C131.321 30.3 131.121 31.3 131.021 32.5C130.821 33.9 130.921 42.4 130.921 42.4" stroke="#329369" stroke-width="3" stroke-miterlimit="10" stroke-linecap="round" stroke-linejoin="round"/>
<path d="M149.721 33.5C149.921 35.8 150.021 39 149.721 42.9" stroke="#329369" stroke-width="3" stroke-miterlimit="10" stroke-linecap="round" stroke-linejoin="round"/>
<path d="M165.021 32.7001C165.321 34.6001 165.621 37.2001 165.721 40.5001" stroke="#329369" stroke-width="3" stroke-miterlimit="10" stroke-linecap="round" stroke-linejoin="round"/>
<path d="M86.7199 2.40002C84.3199 3.30002 81.1199 5.70003 79.9199 12.7" stroke="#329369" stroke-width="3" stroke-miterlimit="10" stroke-linecap="round" stroke-linejoin="round"/>
<path d="M189.321 35.8C184.221 33 180.021 31 177.521 29.9V24.1" stroke="#329369" stroke-width="3" stroke-miterlimit="10" stroke-linecap="round" stroke-linejoin="round"/>
</svg>
