<svg width="295" height="196" viewBox="0 0 295 196" fill="none" xmlns="http://www.w3.org/2000/svg">
<path d="M235.705 74.7783C221.505 56.4783 199.505 48.8783 187.404 44.3783C186.404 39.3783 184.505 33.8783 181.505 28.5783C176.904 31.3783 171.605 33.4783 166.105 34.5783L166.904 37.8783C167.304 39.4783 169.305 46.8783 166.204 56.3783C163.604 64.3783 153.105 67.9783 135.305 59.8783C100.605 44.1783 96.6045 26.4783 96.6045 26.4783C96.0045 16.8783 95.0045 7.87832 94.1045 0.578323C83.3045 2.97832 70.8045 7.87833 64.0045 18.1783C55.6045 30.7783 52.5045 43.5783 53.3045 53.7783C38.7045 63.0783 16.1045 77.1783 8.70449 102.378C-0.895508 135.178 0.704492 155.278 0.704492 155.278H259.104C258.805 155.378 255.005 99.6783 235.705 74.7783Z" fill="#6060D8"/>
<path d="M81.2041 41.9783C81.2041 41.9783 87.3041 65.6784 114.004 82.0784" stroke="#423232" stroke-width="3" stroke-miterlimit="10" stroke-linecap="round" stroke-linejoin="round"/>
<path d="M187.304 44.3784C187.304 44.3784 194.404 75.0784 178.904 89.1784" stroke="#423232" stroke-width="3" stroke-miterlimit="10" stroke-linecap="round" stroke-linejoin="round"/>
<path d="M139.104 84.4784C139.104 84.4784 133.904 99.6784 135.304 110.178" stroke="#423232" stroke-width="3" stroke-miterlimit="10" stroke-linecap="round" stroke-linejoin="round"/>
<path d="M171.004 83.5783C171.004 83.5783 174.904 92.0783 177.704 105.578" stroke="#423232" stroke-width="3" stroke-miterlimit="10" stroke-linecap="round" stroke-linejoin="round"/>
<path d="M53.1045 53.8784C53.1045 53.8784 61.3045 87.2784 110.104 97.0784" stroke="#423232" stroke-width="3" stroke-miterlimit="10" stroke-linecap="round" stroke-linejoin="round"/>
<path d="M136.204 112.478L131.804 112.078C130.204 111.878 129.004 110.378 129.304 108.778L130.804 101.278C131.204 99.1784 133.204 97.6784 135.304 97.9784C137.404 98.1784 139.104 99.9784 139.104 102.178L139.204 109.878C139.204 111.378 137.804 112.678 136.204 112.478Z" fill="white"/>
<path d="M182.104 107.878L177.904 109.378C176.304 109.978 174.604 108.978 174.304 107.378L172.504 99.9783C172.004 97.8783 173.104 95.7783 175.204 94.9783C177.204 94.2783 179.504 95.1783 180.404 97.0783L183.704 103.978C184.404 105.478 183.704 107.278 182.104 107.878Z" fill="white"/>
<path d="M49.7037 155.378C49.7037 155.378 48.8037 133.078 45.8037 127.078" stroke="#544D4D" stroke-width="3" stroke-miterlimit="10" stroke-linecap="round" stroke-linejoin="round"/>
<path d="M226.204 105.578C226.204 105.578 231.804 136.978 229.604 155.378" stroke="#544D4D" stroke-width="3" stroke-miterlimit="10" stroke-linecap="round" stroke-linejoin="round"/>
<path d="M210.104 135.778C210.104 135.778 195.304 137.978 182.304 137.378" stroke="#544D4D" stroke-width="3" stroke-miterlimit="10" stroke-linecap="round" stroke-linejoin="round"/>
</svg>
