<svg width="290" height="190" viewBox="0 0 290 190" fill="none" xmlns="http://www.w3.org/2000/svg">
<path d="M253.887 149.244H1.08691C1.08691 149.244 2.58692 102.844 17.7869 69.7445C29.2869 44.7445 56.3869 30.8445 76.5869 23.6445C82.2869 21.6445 87.4869 20.1445 91.4869 19.0445C91.4869 19.5445 91.5869 19.9445 91.5869 20.4445C91.5869 20.4445 102.387 52.5445 130.487 63.9445C153.387 73.2445 166.987 67.0445 169.087 56.7445C170.387 50.1445 166.287 39.3445 164.187 35.8445C162.987 34.8445 162.187 33.3445 161.787 31.8445L160.987 28.5445C162.887 28.1445 164.687 27.6445 166.487 27.0445C167.087 26.8445 167.587 26.6445 168.187 26.4445C181.087 29.8445 200.487 37.9445 223.387 57.1445C249.287 78.8445 253.887 149.244 253.887 149.244Z" fill="#CE3E3E"/>
<mask id="mask0_112_4733" style="mask-type:alpha" maskUnits="userSpaceOnUse" x="1" y="19" width="253" height="131">
<path d="M253.887 149.244H1.08691C1.08691 149.244 2.58692 102.844 17.7869 69.7445C29.2869 44.7445 56.3869 30.8445 76.5869 23.6445C82.2869 21.6445 87.4869 20.1445 91.4869 19.0445C91.4869 19.5445 91.5869 19.9445 91.5869 20.4445C91.5869 20.4445 102.387 52.5445 130.487 63.9445C153.387 73.2445 166.987 67.0445 169.087 56.7445C170.387 50.1445 166.287 39.3445 164.187 35.8445C162.987 34.8445 162.187 33.3445 161.787 31.8445L160.987 28.5445C162.887 28.1445 164.687 27.6445 166.487 27.0445C167.087 26.8445 167.587 26.6445 168.187 26.4445C181.087 29.8445 200.487 37.9445 223.387 57.1445C249.287 78.8445 253.887 149.244 253.887 149.244Z" fill="#CE3E3E"/>
</mask>
<g mask="url(#mask0_112_4733)">
<path d="M104.851 36.8838L91.416 50.3187L104.851 63.7536L118.286 50.3187L104.851 36.8838Z" fill="white"/>
<path d="M157.467 36.9236L144.032 50.3585L157.467 63.7934L170.902 50.3585L157.467 36.9236Z" fill="white"/>
<path d="M52.1644 36.9148L38.7295 50.3497L52.1644 63.7846L65.5993 50.3497L52.1644 36.9148Z" fill="white"/>
<path d="M209.45 36.8836L196.015 50.3185L209.45 63.7534L222.884 50.3185L209.45 36.8836Z" fill="white"/>
<path d="M80.516 88.9259L67.0811 102.361L80.516 115.796L93.9509 102.361L80.516 88.9259Z" fill="white"/>
<path d="M133.202 88.8951L119.768 102.33L133.202 115.765L146.637 102.33L133.202 88.8951Z" fill="white"/>
<path d="M185.115 88.9257L171.68 102.361L185.115 115.795L198.549 102.361L185.115 88.9257Z" fill="white"/>
<path d="M104.861 140.779L91.4258 154.214L104.861 167.649L118.296 154.214L104.861 140.779Z" fill="white"/>
<path d="M157.477 140.819L144.042 154.254L157.477 167.688L170.912 154.254L157.477 140.819Z" fill="white"/>
<path d="M52.1742 140.81L38.7393 154.245L52.1742 167.68L65.6091 154.245L52.1742 140.81Z" fill="white"/>
<path d="M209.459 140.779L196.024 154.214L209.459 167.648L222.894 154.214L209.459 140.779Z" fill="white"/>
</g>
<path d="M152.687 59.8445C152.687 59.8445 145.787 65.0445 147.287 69.9445C148.687 74.8445 162.087 74.0445 164.687 69.9445C167.187 65.8445 155.987 58.9445 152.687 59.8445Z" fill="#CE3E3E"/>
<path d="M152.587 59.7445C152.687 59.8445 152.687 59.8445 152.787 59.9445C152.787 59.8445 152.787 59.7445 152.787 59.7445C152.687 59.6445 152.587 59.6445 152.587 59.7445Z" fill="white"/>
<path d="M126.087 55.7445C97.9865 44.3445 91.5865 20.4445 91.5865 20.4445C91.5865 19.9445 91.4865 19.5445 91.4865 19.0445C91.3865 17.5445 91.0865 13.2445 90.8865 11.7445C89.0865 12.3445 86.8865 13.5445 84.8865 14.6445C81.2865 16.7445 78.3865 19.7445 76.5865 23.4445C76.5865 23.5445 76.4865 23.5445 76.4865 23.6445C76.2865 49.9445 101.987 70.0445 122.087 77.2445C134.287 81.6445 147.987 75.3445 151.887 63.0445C152.187 61.9445 152.487 60.9445 152.687 59.8445C152.587 59.7445 152.587 59.7445 152.487 59.6445C145.987 61.0445 137.087 60.1445 126.087 55.7445Z" fill="white"/>
<path d="M177.187 51.5445C175.487 37.6445 170.987 32.2445 166.587 26.9445C164.787 27.5445 161.787 28.2445 159.887 28.6445C159.887 28.6445 166.387 37.0445 164.687 48.4445C163.887 53.8445 159.787 57.9445 152.787 59.5445C152.787 59.6445 152.787 59.6445 152.687 59.7445C155.287 62.7445 158.187 65.3445 161.387 67.4445C166.587 70.9445 173.787 68.6445 175.887 62.7445C177.187 59.3445 177.687 55.4445 177.187 51.5445Z" fill="white"/>
<path d="M50.5869 149.245L46.0869 112.245" stroke="#544D4D" stroke-width="3" stroke-miterlimit="10" stroke-linecap="round" stroke-linejoin="round"/>
<path d="M225.187 99.5445C225.187 99.5445 222.187 106.845 223.087 114.145C223.987 121.445 226.587 132.145 222.887 149.245" stroke="#544D4D" stroke-width="3" stroke-miterlimit="10" stroke-linecap="round" stroke-linejoin="round"/>
</svg>
