<svg width="290" height="190" viewBox="0 0 290 190" fill="none" xmlns="http://www.w3.org/2000/svg">
<path d="M195.591 48.5C195.591 48.5 180.091 34 164.791 30.5C164.791 30.5 177.691 51.5 139.791 47.6C110.391 44.6 91.2906 20 91.2906 20C91.2906 20 71.9906 25.4 56.3906 37.3C56.3906 37.3 58.4906 68 93.5906 83.2C128.691 98.4 177.591 90.9 189.191 81.1C200.791 71.3 198.491 51.7 195.591 48.5Z" fill="#444444"/>
<path d="M47.7902 44C47.7902 44 18.3902 54.7 7.79017 85.2C-2.80983 115.7 7.49017 161.1 7.49017 161.1H241.49C241.49 161.1 243.39 108.4 227.19 79.1C223.39 72.3 212.89 61.3 205.39 57.8C205.39 57.8 208.19 83.6 163.89 85.9C119.59 88.2 66.2902 74.1 64.9902 65.9C63.7902 57.5 47.7902 44 47.7902 44Z" fill="white"/>
<path d="M215.99 162.9C153.19 191.9 49.79 165.7 49.79 165.7C49.79 165.7 47.69 140.2 55.29 94.3C55.59 92.2 55.89 90.1 56.09 88.2C58.29 67.4 53.19 53.1 47.79 44.1C47.79 41.8 50.19 40.2 52.89 37.9C53.99 37 55.49 36.9 56.29 37.5C57.69 39.5 58.99 41.5 60.09 43.6C71.29 64.3 93.29 75.3 116.69 77.6C148.59 80.8 161.89 80.3 177.79 76.8C193.09 73.4 199.99 64.4 195.69 49.4C195.59 49.2 195.59 48.9 195.49 48.6C198.19 48.4 204.49 53.6 206.59 61.3C208.79 70.8 210.49 81.5 211.79 92.2C216.09 127.1 215.99 162.9 215.99 162.9Z" fill="#444444"/>
<path d="M71.0898 28.1C71.0898 28.1 90.4898 67.2 124.09 88.6C127.19 90.6 131.29 89.8 133.49 86.9L151.89 62.9L173.69 82.4C176.19 84.7 180.29 83.4 181.09 80.1C182.99 71.7 184.49 56.1 177.39 35.3" stroke="white" stroke-width="3" stroke-miterlimit="10" stroke-linecap="round" stroke-linejoin="round"/>
<path d="M156.691 149.1C159.291 119.2 151.891 63 151.891 63" stroke="white" stroke-width="3" stroke-miterlimit="10" stroke-linecap="round" stroke-linejoin="round"/>
<path d="M167.491 95.9C169.479 95.9 171.091 94.2882 171.091 92.3C171.091 90.3118 169.479 88.7 167.491 88.7C165.502 88.7 163.891 90.3118 163.891 92.3C163.891 94.2882 165.502 95.9 167.491 95.9Z" fill="white"/>
<path d="M169.09 113.9C171.078 113.9 172.69 112.288 172.69 110.3C172.69 108.312 171.078 106.7 169.09 106.7C167.102 106.7 165.49 108.312 165.49 110.3C165.49 112.288 167.102 113.9 169.09 113.9Z" fill="white"/>
<path d="M147.89 45.8C147.89 45.8 132.59 36.5 126.29 38.1C119.89 39.7 122.09 62.7 126.19 66.4C130.29 70.1 147.79 58.3 148.89 57.3C149.99 56.3 149.49 47.4 147.89 45.8Z" fill="white"/>
<path d="M153.69 45.9C153.69 45.9 159.69 36.5 165.79 35.3C171.79 34.1 174.59 59.5 171.89 61.9C169.19 64.2 156.59 59.2 155.19 57.6C153.69 56.1 152.89 49 153.69 45.9Z" fill="white"/>
<path d="M160.09 53.9C160.39 48.4 156.49 43.7 151.29 43.2C146.09 42.7 141.59 46.7 141.09 52.2C140.69 57.8 144.59 62.7 149.89 63.2C155.29 63.6 159.79 59.5 160.09 53.9Z" fill="#444444"/>
<path d="M141.089 52.2C141.189 56.1 143.289 59.6 146.489 61.3C149.589 63 153.589 62.5 156.189 60.1C158.789 57.8 159.789 53.9 158.889 50.5C157.989 47.1 155.189 44 151.289 43.2C152.289 43.2 153.189 43.4 154.189 43.7C155.089 44 155.989 44.5 156.789 45.1C158.389 46.3 159.689 48.1 160.289 50C160.989 52 161.089 54.1 160.589 56.2C160.289 57.2 159.889 58.2 159.389 59.1C158.889 60 158.189 60.8 157.389 61.6C155.789 63 153.789 64 151.689 64.1C149.589 64.3 147.389 63.8 145.689 62.6C143.889 61.5 142.589 59.8 141.789 58C140.989 56.2 140.789 54.1 141.089 52.2Z" fill="white"/>
</svg>
