<svg width="296" height="190" viewBox="0 0 296 190" fill="none" xmlns="http://www.w3.org/2000/svg">
<path d="M260.204 148.901H0.00358537C0.00358537 148.901 -0.796415 85.9011 21.5036 56.6011C37.8036 35.1011 67.5036 29.4011 85.7036 24.1011C90.4036 22.8011 94.5036 21.3011 97.9036 20.4011C99.0036 23.4011 110.104 52.8011 136.704 63.6011C159.604 72.9011 173.204 66.7011 175.304 56.4011C176.604 49.8011 172.504 39.0011 170.404 35.5011C169.204 34.5011 168.404 33.0011 168.004 31.5011L167.204 28.2011C169.004 27.8011 170.704 27.3011 172.504 26.8011C173.404 27.0011 174.304 27.2011 175.204 27.4011C188.104 30.5011 214.904 31.1011 237.304 50.0011C263.404 71.6011 260.204 148.901 260.204 148.901Z" fill="#444444"/>
<path d="M163.603 81.0012C157.203 82.2012 114.003 79.2011 91.6032 49.3011C82.4032 37.0011 84.1032 25.6011 87.0032 20.1011C89.5032 15.3011 95.2032 8.90116 97.0032 9.00116V9.10115C129.503 34.5011 171.003 27.3011 172.703 26.8011C173.203 26.6011 173.803 26.5011 174.303 26.3011C180.003 29.5011 186.903 37.2011 186.403 50.1011C185.703 68.3011 168.203 79.6012 163.603 81.0012Z" fill="white"/>
<path d="M87.0031 22.7011C87.0031 22.7011 76.4031 21.9011 71.5031 29.4011C66.6031 36.9011 77.7031 39.5011 82.9031 37.5011C82.9031 37.5011 74.5031 42.0011 77.5031 49.1011C80.5031 56.2011 90.1031 52.1011 90.1031 52.1011C90.1031 52.1011 81.7031 61.3011 88.8031 68.2011C95.9031 75.1011 104.203 68.2011 104.203 68.2011C104.203 68.2011 99.7031 78.7011 107.203 82.6011C114.703 86.5011 120.503 76.2011 120.503 76.2011C120.503 76.2011 118.103 86.9011 125.403 90.8011C132.703 94.7011 137.803 85.6011 138.903 82.2011C138.903 82.2011 138.903 93.6011 149.203 94.0011C159.503 94.4011 158.403 74.9011 158.403 74.9011L87.0031 22.7011Z" fill="white"/>
<path d="M166.004 78.7011C166.004 78.7011 169.204 86.3012 175.704 85.9011C182.204 85.6012 183.804 78.3012 180.904 72.1012C180.904 72.1012 186.404 75.8012 192.104 72.1012C197.904 68.4012 192.704 59.5011 189.504 58.3011C189.504 58.3011 198.804 58.8012 198.304 51.7012C197.804 44.6012 189.804 43.7012 189.804 43.7012C189.804 43.7012 196.704 43.2011 197.004 37.6011C197.304 32.0011 188.104 26.8011 175.204 27.4011C175.204 27.4011 179.604 43.3012 175.304 56.5012C171.204 69.5012 166.004 78.7011 166.004 78.7011Z" fill="white"/>
<path d="M93.5038 12.1011C93.5038 12.1011 86.4038 12.1011 80.4038 15.9011C72.8038 20.6011 78.2038 30.0011 89.1038 26.7011C100.004 23.4011 93.5038 12.1011 93.5038 12.1011Z" fill="white"/>
<path d="M185.204 30.6011C185.204 30.6011 192.604 29.4011 191.004 26.3011C189.404 23.4011 183.404 21.7011 182.204 22.4011C180.004 23.7011 177.204 25.2011 174.304 26.1011C166.604 28.6011 183.104 32.1011 185.204 30.6011Z" fill="white"/>
<path d="M159.603 77.4011C159.603 77.4011 151.003 100.501 157.403 104.601C163.803 108.701 163.403 82.7011 163.403 82.7011C163.403 82.7011 168.503 103.901 176.703 101.601C184.803 99.2011 165.103 76.3011 163.603 75.9011" stroke="white" stroke-width="3" stroke-miterlimit="10" stroke-linecap="round"/>
<path d="M55.4035 33.3011C55.4035 33.3011 62.0035 93.9011 5.00353 98.5011C5.00353 98.5011 -4.19647 68.1011 13.2035 45.1011C29.3035 23.7011 55.4035 33.3011 55.4035 33.3011Z" fill="#D8D8D8"/>
<path d="M49.8039 31.9011C41.2039 30.3011 24.7039 29.8011 13.1039 45.1011C6.90391 53.4011 4.00391 62.6011 3.00391 71.1011C10.5039 70.8011 18.0039 69.5011 25.2039 66.7011C39.9039 61.1011 47.8039 47.2011 49.8039 31.9011Z" fill="#D8D8D8"/>
<path d="M31.2033 48.6011C37.4033 44.5011 42.6033 38.5011 45.3033 31.2011C36.2033 30.5011 22.9033 32.1011 13.1033 45.0011C11.7033 46.9011 10.5033 48.8011 9.40332 50.7011C16.1033 55.7011 24.4033 52.9011 31.2033 48.6011Z" fill="#F7F7F7"/>
<path d="M55.4037 33.3011C55.4037 33.3011 53.3037 32.5011 49.8037 31.9011C47.8037 47.3011 39.9037 61.2011 25.2037 66.7011C18.0037 69.5011 10.6037 70.9011 3.00368 71.1011C1.10368 86.1011 4.90368 98.5011 4.90368 98.5011C62.0037 93.9011 55.4037 33.3011 55.4037 33.3011Z" fill="#A8A8A8"/>
<path d="M211.403 35.3011C211.403 35.3011 217.303 56.6011 229.603 72.4011C237.503 82.5011 245.903 90.4011 257.803 96.2011C257.803 96.2011 263.703 68.1011 252.103 51.2011C236.003 27.6011 211.403 35.3011 211.403 35.3011Z" fill="#D8D8D8"/>
<path d="M216.003 34.4011C213.103 34.8011 211.403 35.3011 211.403 35.3011C211.403 35.3011 217.303 56.6011 229.603 72.4011C237.503 82.5011 245.903 90.4011 257.803 96.2011C257.803 96.2011 260.403 83.8011 258.703 70.5011C251.003 68.2011 243.703 64.9011 237.203 60.6011C227.603 54.5011 218.803 45.3011 216.003 34.4011Z" fill="#A8A8A8"/>
<path d="M216.004 34.4011C218.704 45.3011 227.604 54.5011 237.204 60.6011C243.704 64.8011 251.004 68.2011 258.704 70.5011C257.904 63.8011 255.904 56.9011 252.104 51.2011C240.304 33.9011 223.904 33.4011 216.004 34.4011Z" fill="#D8D8D8"/>
<path d="M250.604 49.2012C242.104 38.0012 231.604 34.8012 223.604 34.2012C228.504 44.8012 239.404 49.5012 250.604 49.2012Z" fill="#F7F7F7"/>
<path d="M92.7037 12.1011C92.7037 12.1011 88.8037 18.5011 88.5037 24.7011C88.2037 30.8011 99.9037 51.9011 122.204 63.4011C146.404 75.9011 163.004 73.7011 163.004 73.7011C163.004 73.7011 178.904 65.9011 183.604 52.1011C187.804 39.6011 182.904 28.6011 180.804 24.8011" stroke="#D8D8D8" stroke-width="3" stroke-miterlimit="10" stroke-linecap="round"/>
<path d="M163.104 73.7011C163.104 73.7011 164.204 45.7011 161.104 29.3011" stroke="#D8D8D8" stroke-width="3" stroke-miterlimit="10" stroke-linecap="round"/>
<path d="M162.603 47.0012C165.309 47.0012 167.503 44.8074 167.503 42.1012C167.503 39.395 165.309 37.2012 162.603 37.2012C159.897 37.2012 157.703 39.395 157.703 42.1012C157.703 44.8074 159.897 47.0012 162.603 47.0012Z" fill="#F4D16C"/>
<path d="M163.204 62.0012C165.91 62.0012 168.104 59.8074 168.104 57.1012C168.104 54.395 165.91 52.2012 163.204 52.2012C160.498 52.2012 158.304 54.395 158.304 57.1012C158.304 59.8074 160.498 62.0012 163.204 62.0012Z" fill="#F4D16C"/>
</svg>
