<svg width="290" height="190" viewBox="0 0 290 190" fill="none" xmlns="http://www.w3.org/2000/svg">
<path d="M254.021 149.486H1.2207C1.2207 149.486 2.3207 102.886 17.9207 69.986C29.4207 45.586 59.0207 31.686 79.6207 24.586C84.2207 22.986 88.4207 21.786 91.8207 20.886C92.9207 23.886 104.021 53.286 130.621 64.086C153.521 73.386 167.121 67.186 169.221 56.886C170.521 50.286 166.421 39.486 164.321 35.986C163.121 34.986 162.321 33.486 161.921 31.986L161.121 28.686C162.921 28.286 164.621 27.786 166.421 27.286C167.321 27.486 168.221 27.686 169.121 27.886C182.021 30.986 201.121 38.486 223.521 57.386C249.421 78.986 254.021 149.486 254.021 149.486Z" fill="#FFDE55"/>
<path d="M172.821 84.086C169.321 85.086 157.121 72.386 154.621 70.186C152.321 72.786 136.121 91.086 128.121 89.886C119.321 88.586 96.8207 73.486 85.4207 49.786C79.1207 36.786 78.9207 28.886 79.6207 24.586C79.9207 22.586 80.5207 21.286 80.8207 20.586C81.8207 18.286 89.0207 9.386 90.8207 9.486V9.58601C91.7207 19.186 94.8207 28.486 100.021 36.586C106.421 46.486 116.521 58.386 130.621 64.086C153.521 73.386 165.421 64.186 167.421 53.886C168.721 47.286 166.421 39.486 164.321 35.986C163.121 34.986 162.321 33.486 161.921 31.986L161.121 28.686C162.921 28.286 164.621 27.786 166.421 27.286C166.921 27.086 167.521 26.986 168.021 26.786C168.321 27.186 168.721 27.586 169.021 27.986C173.221 32.786 177.621 39.386 180.021 50.586C184.121 68.486 176.721 82.886 172.821 84.086Z" fill="#423232"/>
<path d="M154.32 69.586C154.32 69.586 161.62 73.786 161.42 77.286C161.22 80.786 163.32 91.886 163.32 91.886" stroke="#423232" stroke-width="3" stroke-miterlimit="10" stroke-linecap="round" stroke-linejoin="round"/>
<path d="M154.22 82.886C155.546 82.886 156.62 81.8115 156.62 80.486C156.62 79.1605 155.546 78.086 154.22 78.086C152.895 78.086 151.82 79.1605 151.82 80.486C151.82 81.8115 152.895 82.886 154.22 82.886Z" fill="#423232"/>
<path d="M155.121 92.286C156.446 92.286 157.521 91.2115 157.521 89.886C157.521 88.5606 156.446 87.486 155.121 87.486C153.795 87.486 152.721 88.5606 152.721 89.886C152.721 91.2115 153.795 92.286 155.121 92.286Z" fill="#423232"/>
<path d="M50.7207 149.486L46.2207 112.386" stroke="#544D4D" stroke-width="3" stroke-miterlimit="10" stroke-linecap="round" stroke-linejoin="round"/>
<path d="M225.321 99.7859C225.321 99.7859 222.321 107.086 223.221 114.386C224.121 121.686 226.721 132.386 223.021 149.486" stroke="#544D4D" stroke-width="3" stroke-miterlimit="10" stroke-linecap="round" stroke-linejoin="round"/>
</svg>
