<svg width="290" height="190" viewBox="0 0 290 190" fill="none" xmlns="http://www.w3.org/2000/svg">
<path d="M47 45.8445C47 45.8445 50.7 43.0445 57.6 47.2445C70.5 55.1445 86.9 97.3445 51.7 126.844C51.7 126.844 45.4 163.645 51.7 170.645C51.7 170.645 166.9 176.445 216.6 170.645C216.6 170.645 217.4 148.044 214.2 124.944C210.2 95.6445 205.1 66.7445 186.2 40.1445C183.5 36.3445 178.5 34.6445 175.4 33.7445L161.8 29.8445C161.8 29.8445 173.8 64.5445 140.5 56.5445C120.1 51.6445 103.2 32.2445 89.2 23.3445C85.9 21.2445 81.4 21.9445 78.5 23.1445C71.9 25.9445 47.5 40.5445 47 45.8445Z" fill="#444444"/>
<mask id="mask0_112_4901" style="mask-type:alpha" maskUnits="userSpaceOnUse" x="47" y="22" width="170" height="152">
<path d="M47 45.8445C47 45.8445 50.7 43.0445 57.6 47.2445C70.5 55.1445 86.9 97.3445 51.7 126.844C51.7 126.844 45.4 163.645 51.7 170.645C51.7 170.645 166.9 176.445 216.6 170.645C216.6 170.645 217.4 148.044 214.2 124.944C210.2 95.6445 205.1 66.7445 186.2 40.1445C183.5 36.3445 178.5 34.6445 175.4 33.7445L161.8 29.8445C161.8 29.8445 173.8 64.5445 140.5 56.5445C120.1 51.6445 103.2 32.2445 89.2 23.3445C85.9 21.2445 81.4 21.9445 78.5 23.1445C71.9 25.9445 47.5 40.5445 47 45.8445Z" fill="#444444"/>
</mask>
<g mask="url(#mask0_112_4901)">
<path d="M49 46.5445C60.4 36.6445 60.7 43.8445 78.7 38.1445C86.7 35.6445 95.5 27.8445 107.2 26.9445C116.2 26.2445 126.1 32.1445 137.2 33.3445C146.4 34.3445 157.3 30.4445 167.9 33.1445C176.9 35.4445 184.7 44.0445 194.9 47.9445" stroke="#6D5F5E" stroke-width="4" stroke-miterlimit="10" stroke-linecap="round" stroke-linejoin="round"/>
<path d="M49.2998 57.9444C62.1998 49.5444 61.4998 56.9445 80.0998 52.0445C88.3998 49.8445 97.5998 42.1444 109.4 41.3444C118.6 40.6444 128.8 46.6445 140 47.5445C149.4 48.3445 160.4 43.8445 171.2 46.2445C180.6 48.2445 188.8 56.7445 199.2 60.2445" stroke="#6D5F5E" stroke-width="4" stroke-miterlimit="10" stroke-linecap="round" stroke-linejoin="round"/>
<path d="M49.5 69.3445C63.6 62.5445 62.1 69.9445 81.3 65.9445C89.9 64.1445 99.5 56.4445 111.4 55.6445C120.9 55.0445 131.3 61.0445 142.7 61.7445C152.4 62.3445 163.5 57.4445 174.5 59.3445C184.2 61.0445 193 69.3445 203.6 72.3445" stroke="#6D5F5E" stroke-width="4" stroke-miterlimit="10" stroke-linecap="round" stroke-linejoin="round"/>
<path d="M49.7998 80.8444C64.7998 75.5444 62.6998 82.9444 82.3998 79.7444C91.2998 78.2444 101.3 70.7444 113.4 69.9444C123.2 69.3444 133.9 75.5444 145.4 75.9444C155.4 76.3444 166.6 70.9444 177.7 72.4444C187.8 73.8444 197.1 81.9444 207.9 84.4444" stroke="#6D5F5E" stroke-width="4" stroke-miterlimit="10" stroke-linecap="round" stroke-linejoin="round"/>
<path d="M50.0996 92.3444C65.8996 88.5444 63.2996 95.8444 83.3996 93.3444C92.5996 92.2444 103.1 84.7445 115.3 84.1445C125.3 83.6445 136.4 89.9444 148 90.2444C158.4 90.4444 169.6 84.6444 180.9 85.7444C191.4 86.7444 201.3 94.6445 212.3 96.6445" stroke="#6D5F5E" stroke-width="4" stroke-miterlimit="10" stroke-linecap="round" stroke-linejoin="round"/>
<path d="M50.4004 103.844C66.9004 101.344 63.8004 108.544 84.3004 106.944C93.8004 106.144 104.7 98.8445 117.2 98.3445C127.5 97.9445 138.8 104.444 150.6 104.544C161.3 104.644 172.7 98.3445 184.2 99.0445C195.1 99.7445 205.6 107.344 216.8 108.644" stroke="#6D5F5E" stroke-width="4" stroke-miterlimit="10" stroke-linecap="round" stroke-linejoin="round"/>
<path d="M50.5996 115.444C67.5996 114.244 64.0996 121.244 85.0996 120.444C94.8996 120.044 106.3 112.844 119 112.544C129.7 112.344 141.2 119.044 153.2 119.044C164.2 119.044 175.8 112.344 187.4 112.644C198.7 112.944 209.8 120.244 221.2 120.944" stroke="#6D5F5E" stroke-width="4" stroke-miterlimit="10" stroke-linecap="round" stroke-linejoin="round"/>
<path d="M50.9004 127.044C68.4004 126.944 64.6004 133.944 85.9004 133.844C96.0004 133.744 107.8 126.744 120.8 126.644C131.8 126.544 143.6 133.544 155.8 133.444C167.2 133.344 178.9 126.344 190.7 126.244C202.4 126.144 214.2 133.144 225.7 133.044" stroke="#6D5F5E" stroke-width="4" stroke-miterlimit="10" stroke-linecap="round" stroke-linejoin="round"/>
<path d="M51.0996 138.644C68.9996 139.544 64.8996 146.544 86.5996 147.144C96.9996 147.444 109.3 140.544 122.5 140.644C133.8 140.744 145.9 147.944 158.3 147.844C170.1 147.744 182 140.344 194 139.944C206.1 139.544 218.6 146.044 230.2 145.144" stroke="#6D5F5E" stroke-width="4" stroke-miterlimit="10" stroke-linecap="round" stroke-linejoin="round"/>
<path d="M51.2998 150.244C69.5998 152.144 65.1998 159.044 87.2998 160.344C97.9998 160.944 110.8 154.244 124.3 154.644C136 154.944 148.3 162.444 161 162.244C173.2 162.144 185.3 154.344 197.4 153.644C210 152.844 223.1 158.944 234.7 157.244" stroke="#6D5F5E" stroke-width="4" stroke-miterlimit="10" stroke-linecap="round" stroke-linejoin="round"/>
<path d="M51.4004 161.844C70.0004 164.544 65.4004 171.444 88.0004 173.444C99.0004 174.444 112.3 167.844 126.1 168.444C138.1 168.944 150.7 176.745 163.6 176.645C176.1 176.545 188.5 168.444 200.8 167.344C213.8 166.144 227.6 171.745 239.2 169.145" stroke="#6D5F5E" stroke-width="4" stroke-miterlimit="10" stroke-linecap="round" stroke-linejoin="round"/>
</g>
</svg>
