<svg width="290" height="190" viewBox="0 0 290 190" fill="none" xmlns="http://www.w3.org/2000/svg">
<path d="M254.045 149.289H1.24512C1.24512 149.289 2.74511 102.889 17.9451 69.7894C29.4451 44.7894 56.5451 30.8894 76.7451 23.6894C82.4451 21.6894 87.6451 20.1894 91.6451 19.0894C91.6451 19.5894 91.7451 19.9894 91.7451 20.4894C91.7451 20.4894 102.545 52.5894 130.645 63.9894C153.545 73.2894 167.145 67.0894 169.245 56.7894C170.545 50.1894 166.445 39.3894 164.345 35.8894C163.145 34.8894 162.345 33.3894 161.945 31.8894L161.145 28.5894C163.045 28.1894 164.845 27.6894 166.645 27.0894C167.245 26.8894 167.745 26.6894 168.345 26.4894C181.245 29.8894 200.645 37.9894 223.545 57.1894C249.445 78.7894 254.045 149.289 254.045 149.289Z" fill="#BEE3EB"/>
<path d="M121.945 74.3893C87.4452 58.8893 74.0452 31.1894 76.6452 23.6894C76.6452 23.6894 76.6453 23.5893 76.7453 23.4893C78.5453 19.7893 81.4453 16.7894 85.0453 14.6894C87.0453 13.4894 89.2453 12.3893 91.0453 11.7893C91.1453 13.1893 91.5452 17.5894 91.6452 19.0894C91.6452 19.5894 91.7453 19.9893 91.7453 20.4893C91.7453 20.4893 98.1453 44.3893 126.245 55.7893C149.145 65.0893 163.345 58.9894 164.845 48.5894C166.545 37.0894 160.045 28.7893 160.045 28.7893C161.945 28.3893 164.945 27.6894 166.745 27.0894C171.145 32.3894 175.645 37.6894 177.345 51.6894C179.745 71.7894 157.645 90.4893 121.945 74.3893Z" fill="white"/>
<path d="M50.7451 149.289L46.2451 112.189" stroke="#544D4D" stroke-width="3" stroke-miterlimit="10" stroke-linecap="round" stroke-linejoin="round"/>
<path d="M225.345 99.5894C225.345 99.5894 222.345 106.889 223.245 114.189C224.145 121.489 226.745 132.189 223.045 149.289" stroke="#544D4D" stroke-width="3" stroke-miterlimit="10" stroke-linecap="round" stroke-linejoin="round"/>
</svg>
