<svg width="292" height="192" viewBox="0 0 292 192" fill="none" xmlns="http://www.w3.org/2000/svg">
<path d="M75.6406 21.6153C75.6406 21.6153 90.2406 15.8153 92.9406 15.6153L93.1406 17.9153C93.1406 17.9153 81.5406 22.9153 80.8406 23.7153C80.1406 24.5153 75.6406 21.6153 75.6406 21.6153Z" fill="#7E5D6D"/>
<path d="M255.841 151.415H3.04102C3.04102 151.415 4.54101 105.015 19.741 71.9153C31.241 46.9153 58.841 30.4153 78.941 23.2153C84.641 21.2153 89.041 19.0153 93.141 17.9153C93.141 18.4153 93.441 22.1153 93.441 22.5153C93.441 22.5153 110.041 45.4153 147.041 45.1153C169.241 45.0153 163.041 30.6153 163.041 30.6153C164.941 30.2153 166.741 29.7153 168.541 29.1153C169.141 28.9153 173.341 27.2153 173.841 27.0153C186.741 30.4153 202.541 40.0153 225.441 59.2153C251.241 80.9153 255.841 151.415 255.841 151.415Z" fill="#E89D6B"/>
<mask id="mask0_4_1828" style="mask-type:alpha" maskUnits="userSpaceOnUse" x="3" y="17" width="253" height="135">
<path d="M255.841 151.415H3.04102C3.04102 151.415 4.54101 105.015 19.741 71.9153C31.241 46.9153 58.841 30.4153 78.941 23.2153C84.641 21.2153 89.041 19.0153 93.141 17.9153C93.141 18.4153 93.441 22.1153 93.441 22.5153C93.441 22.5153 110.041 45.4153 147.041 45.1153C169.241 45.0153 163.041 30.6153 163.041 30.6153C164.941 30.2153 166.741 29.7153 168.541 29.1153C169.141 28.9153 173.341 27.2153 173.841 27.0153C186.741 30.4153 202.541 40.0153 225.441 59.2153C251.241 80.9153 255.841 151.415 255.841 151.415Z" fill="#E89D6B"/>
</mask>
<g mask="url(#mask0_4_1828)">
<path d="M54.9414 15.7153C60.4414 15.9153 63.2414 16.0153 68.7414 15.9153C73.6414 18.8153 76.0414 20.2153 81.0414 22.9153C86.1414 22.6153 88.7414 22.4153 93.8414 21.8153C98.9414 24.2153 101.441 25.4153 106.541 27.7153C111.741 26.9153 114.341 26.4153 119.441 25.4153C124.641 27.4153 127.341 28.3153 132.541 30.0153C137.741 28.7153 140.341 27.9153 145.541 26.4153C150.941 27.8153 153.641 28.5153 159.041 29.7153C164.241 27.8153 166.841 26.9153 172.041 24.8153C177.541 25.7153 180.341 26.1153 185.841 26.8153C190.941 24.4153 193.541 23.2153 198.641 20.6153C204.241 20.9153 207.041 21.0153 212.641 21.1153C217.641 18.1153 220.141 16.6153 225.141 13.5153C231.441 13.0153 234.541 12.7153 240.841 12.0153C240.341 14.4153 240.141 15.6153 239.741 18.0153C234.541 18.6153 231.841 18.9153 226.641 19.3153C221.541 22.5153 219.041 24.1153 213.841 27.1153C208.141 27.1153 205.341 27.0153 199.641 26.7153C194.441 29.3153 191.841 30.6153 186.641 33.0153C181.041 32.3153 178.241 31.9153 172.641 31.1153C167.441 33.2153 164.741 34.2153 159.541 36.0153C154.041 34.8153 151.341 34.1153 145.941 32.7153C140.741 34.2153 138.041 35.0153 132.841 36.3153C127.541 34.5153 124.841 33.6153 119.541 31.6153C114.341 32.6153 111.741 33.1153 106.441 33.9153C101.241 31.6153 98.7414 30.5153 93.5414 28.0153C88.3414 28.5153 85.7414 28.7153 80.6414 29.0153C75.6414 26.3153 73.1414 24.9153 68.2414 21.9153C63.6414 21.9153 61.3414 21.9153 56.7414 21.7153C56.0414 19.4153 55.7414 18.2153 54.9414 15.7153Z" fill="#FFFF8D"/>
<path d="M53.541 41.1153C59.041 41.2153 61.741 41.2153 67.341 41.0153C72.341 43.8153 74.841 45.1153 79.841 47.7153C84.941 47.3153 87.441 47.0153 92.541 46.3153C97.641 48.6153 100.241 49.7153 105.441 51.8153C110.541 50.9153 113.041 50.3153 118.241 49.2153C123.541 51.0153 126.241 51.9153 131.541 53.5153C136.641 52.0153 139.241 51.3153 144.341 49.6153C149.741 50.9153 152.541 51.5153 157.941 52.6153C163.041 50.6153 165.541 49.6153 170.641 47.4153C176.241 48.2153 178.941 48.5153 184.541 49.0153C189.541 46.5153 192.041 45.2153 197.041 42.5153C202.641 42.7153 205.541 42.7153 211.141 42.6153C216.041 39.6153 218.441 38.0153 223.341 34.8153C229.641 34.2153 232.841 33.9153 239.141 33.0153C238.741 35.4153 238.641 36.6153 238.241 38.9153C232.941 39.6153 230.341 39.9153 225.141 40.4153C220.141 43.7153 217.741 45.3153 212.741 48.4153C207.041 48.5153 204.141 48.5153 198.441 48.3153C193.341 51.0153 190.841 52.3153 185.741 54.9153C180.141 54.4153 177.241 54.1153 171.641 53.3153C166.541 55.5153 163.941 56.5153 158.741 58.5153C153.241 57.4153 150.441 56.8153 144.941 55.5153C139.741 57.2153 137.241 57.9153 132.041 59.4153C126.641 57.8153 123.941 56.9153 118.641 55.1153C113.441 56.2153 110.941 56.8153 105.741 57.7153C100.541 55.6153 97.841 54.5153 92.641 52.1153C87.541 52.7153 84.941 53.0153 79.841 53.5153C74.741 50.9153 72.241 49.5153 67.241 46.7153C62.641 46.8153 60.341 46.9153 55.841 46.8153C54.841 44.6153 54.441 43.4153 53.541 41.1153Z" fill="#FFFF8D"/>
<path d="M52.1416 66.1153C57.5416 66.0153 60.3416 65.9153 65.8416 65.7153C70.8416 68.4153 73.4416 69.7153 78.5416 72.1153C83.5416 71.5153 86.0416 71.2153 91.0416 70.4153C96.2416 72.6153 98.8416 73.6153 104.142 75.6153C109.142 74.5153 111.642 74.0153 116.742 72.7153C122.142 74.4153 124.842 75.2153 130.242 76.7153C135.242 75.1153 137.742 74.3153 142.742 72.6153C148.242 73.8153 151.042 74.3153 156.542 75.3153C161.542 73.2153 164.042 72.2153 168.942 69.9153C174.542 70.5153 177.342 70.8153 182.942 71.2153C187.842 68.6153 190.342 67.3153 195.142 64.5153C200.842 64.5153 203.642 64.5153 209.342 64.3153C214.142 61.2153 216.542 59.6153 221.242 56.4153C227.542 55.7153 230.742 55.3153 237.042 54.3153C236.742 56.6153 236.642 57.8153 236.442 60.2153C231.142 61.0153 228.542 61.4153 223.242 62.0153C218.442 65.3153 215.942 67.0153 211.142 70.1153C205.342 70.3153 202.442 70.4153 196.742 70.3153C191.742 73.1153 189.342 74.4153 184.342 77.1153C178.642 76.7153 175.842 76.5153 170.142 75.8153C165.142 78.1153 162.642 79.2153 157.542 81.3153C151.942 80.4153 149.142 79.8153 143.642 78.6153C138.542 80.4153 136.042 81.2153 130.942 82.8153C125.442 81.3153 122.742 80.5153 117.342 78.8153C112.242 80.1153 109.742 80.7153 104.642 81.7153C99.3416 79.7153 96.6416 78.6153 91.4416 76.4153C86.3416 77.2153 83.8416 77.5153 78.7416 78.1153C73.5416 75.6153 71.0416 74.3153 65.9416 71.6153C61.4416 71.8153 59.1416 71.9153 54.6416 72.0153C53.6416 69.7153 53.1416 68.5153 52.1416 66.1153Z" fill="#FFFF8D"/>
<path d="M50.6416 91.0153C56.0416 90.8153 58.7416 90.6153 64.1416 90.2153C69.2416 92.8153 71.8416 94.0153 77.0416 96.3153C81.9416 95.6153 84.4416 95.2153 89.4416 94.3153C94.7416 96.4153 97.4416 97.4153 102.742 99.2153C107.642 98.0153 110.142 97.4153 115.142 96.0153C120.542 97.6153 123.342 98.3153 128.742 99.6153C133.642 97.9153 136.142 97.0153 141.042 95.2153C146.642 96.2153 149.342 96.7153 154.942 97.5153C159.842 95.3153 162.242 94.2153 167.142 91.9153C172.842 92.4153 175.642 92.6153 181.342 92.9153C186.142 90.3153 188.542 88.9153 193.342 86.1153C199.042 86.0153 201.942 85.9153 207.642 85.6153C212.342 82.5153 214.642 80.9153 219.242 77.6153C225.642 76.8153 228.842 76.3153 235.142 75.2153C234.942 77.5153 234.942 78.7153 234.742 81.0153C229.442 81.9153 226.842 82.3153 221.542 83.0153C216.842 86.4153 214.442 88.0153 209.742 91.2153C203.942 91.5153 201.042 91.6153 195.242 91.7153C190.442 94.6153 187.942 96.0153 183.142 98.6153C177.442 98.3153 174.542 98.2153 168.842 97.7153C163.942 100.115 161.442 101.215 156.542 103.415C150.842 102.615 148.042 102.115 142.442 101.115C137.442 103.015 134.942 103.915 129.942 105.615C124.442 104.315 121.642 103.515 116.142 102.015C111.142 103.415 108.642 104.015 103.642 105.215C98.2416 103.315 95.5416 102.415 90.1416 100.315C85.1416 101.215 82.6416 101.615 77.6416 102.315C72.3416 99.9153 69.7416 98.7153 64.6416 96.1153C60.1416 96.5153 57.9416 96.6153 53.4416 96.8153C52.3416 94.5153 51.7416 93.3153 50.6416 91.0153Z" fill="#FFFF8D"/>
<path d="M49.2412 115.615C54.5412 115.215 57.2412 115.015 62.6412 114.415C67.8412 116.815 70.4412 118.015 75.7412 120.215C80.6412 119.415 83.0412 118.915 87.9412 117.915C93.3412 119.815 96.0412 120.815 101.441 122.515C106.341 121.215 108.741 120.515 113.541 119.015C119.041 120.415 121.841 121.115 127.341 122.315C132.141 120.515 134.541 119.615 139.441 117.615C145.041 118.515 147.841 118.915 153.541 119.615C158.341 117.315 160.641 116.215 165.441 113.815C171.141 114.215 174.041 114.315 179.741 114.515C184.441 111.815 186.741 110.415 191.441 107.515C197.241 107.315 200.041 107.215 205.841 106.815C210.341 103.615 212.641 102.015 217.141 98.7154C223.541 97.8154 226.741 97.3154 233.141 96.1154C233.041 98.4154 233.041 99.5154 232.941 101.815C227.641 102.815 225.041 103.215 219.741 104.015C215.141 107.415 212.841 109.115 208.241 112.315C202.441 112.815 199.441 112.915 193.641 113.115C188.941 116.015 186.541 117.515 181.841 120.215C176.041 120.115 173.141 120.015 167.341 119.615C162.541 122.115 160.141 123.215 155.341 125.515C149.641 124.815 146.741 124.415 141.041 123.515C136.141 125.515 133.741 126.415 128.841 128.215C123.241 127.015 120.441 126.315 114.841 124.915C109.941 126.415 107.441 127.115 102.541 128.415C97.0412 126.715 94.3412 125.815 88.8412 123.815C83.9412 124.815 81.4412 125.315 76.5412 126.115C71.2412 123.915 68.5412 122.715 63.2412 120.315C58.8412 120.815 56.6412 121.015 52.2412 121.315C51.0412 119.115 50.4412 117.915 49.2412 115.615Z" fill="#FFFF8D"/>
<path d="M47.7412 140.015C53.0412 139.515 55.6412 139.215 60.9412 138.515C66.2412 140.815 68.9412 141.915 74.2412 144.015C79.0412 143.015 81.4412 142.515 86.2412 141.415C91.7412 143.215 94.4412 144.115 99.9412 145.715C104.741 144.315 107.041 143.515 111.841 141.915C117.441 143.215 120.241 143.815 125.841 144.915C130.541 143.015 132.941 142.015 137.641 140.015C143.341 140.815 146.141 141.115 151.841 141.715C156.541 139.415 158.841 138.215 163.441 135.715C169.241 136.015 172.041 136.015 177.841 136.115C182.441 133.315 184.641 131.915 189.241 129.015C195.041 128.715 197.941 128.515 203.741 128.015C208.141 124.815 210.341 123.115 214.741 119.815C221.141 118.815 224.441 118.315 230.841 117.015C230.841 119.215 230.841 120.415 230.941 122.615C225.641 123.615 223.041 124.115 217.741 124.915C213.241 128.315 211.041 130.015 206.541 133.315C200.641 133.915 197.741 134.115 191.841 134.415C187.241 137.415 184.941 138.815 180.341 141.715C174.541 141.715 171.541 141.615 165.741 141.415C161.041 143.915 158.741 145.215 153.941 147.515C148.141 147.015 145.241 146.615 139.541 145.915C134.741 148.015 132.341 149.015 127.641 150.915C121.941 149.815 119.141 149.215 113.441 147.915C108.641 149.515 106.241 150.315 101.441 151.715C95.8412 150.115 93.1412 149.315 87.5412 147.515C82.7412 148.715 80.2412 149.215 75.4412 150.215C70.0412 148.115 67.3412 147.015 61.9412 144.715C57.5412 145.315 55.4412 145.615 51.0412 146.015C49.7412 143.515 49.0412 142.315 47.7412 140.015Z" fill="#FFFF8D"/>
<path d="M89.3409 31.8153C89.3409 31.8153 94.7409 51.7153 136.441 56.7153C178.241 61.6153 178.641 35.3153 169.441 20.5153C160.241 5.71527 96.7409 9.31526 89.9409 16.4153C83.1409 23.5153 89.3409 31.8153 89.3409 31.8153Z" fill="white"/>
</g>
<path d="M52.541 151.415L48.041 114.315" stroke="#544D4D" stroke-width="3" stroke-miterlimit="10" stroke-linecap="round" stroke-linejoin="round"/>
<path d="M227.141 101.715C227.141 101.715 224.141 109.015 225.041 116.315C225.941 123.615 228.541 134.315 224.841 151.415" stroke="#544D4D" stroke-width="3" stroke-miterlimit="10" stroke-linecap="round" stroke-linejoin="round"/>
<path d="M75.6404 21.6154C77.5404 21.0154 80.8404 21.6154 81.8404 23.3154C85.7404 29.7154 95.1404 48.4154 99.0404 85.5154C102.14 114.515 97.4404 166.715 97.4404 166.715L0.44043 162.115C0.44043 162.115 3.34043 112.815 11.8404 79.7154C20.1404 47.6154 41.9404 33.2154 75.6404 21.6154Z" fill="#755B7A"/>
<path d="M176.24 27.7153C176.24 27.7153 207.14 85.8153 198.14 163.415H264.94C264.94 163.415 264.54 110.715 249.54 77.3153C234.54 43.9153 182.04 25.2153 182.04 25.2153C182.04 25.2153 178.74 26.8153 176.24 27.7153Z" fill="#755B7A"/>
<path d="M176.241 27.7154L173.841 27.0154C173.841 27.0154 177.341 25.3154 178.841 24.3154L179.741 23.8154C179.741 23.8154 184.541 26.0154 186.241 26.8154C187.941 27.6154 180.341 31.3154 180.341 31.3154C180.341 31.3154 176.541 27.8154 176.241 27.7154Z" fill="#7E5D6D"/>
<path d="M97.9405 76.2154C97.9405 76.2154 94.5405 66.5154 86.8405 57.9154C79.7405 49.9154 66.7405 37.5154 65.8405 34.7154C64.1405 29.0154 74.7405 7.51537 91.3405 0.0153656C91.3405 0.115366 91.3405 0.215369 91.3405 0.315369C91.3405 0.415369 91.3405 0.515378 91.3405 0.715378C91.3405 0.915378 91.3405 1.11537 91.4405 1.31537C91.4405 1.61537 91.5405 1.91538 91.5405 2.21538C91.5405 2.41538 91.5405 2.51538 91.6405 2.71538C92.3405 8.71538 92.9405 15.4154 93.4405 22.5154V22.6154C93.4405 22.6154 88.8405 24.1154 92.1405 47.0154C93.0405 52.5154 96.4405 62.3154 97.9405 76.2154Z" fill="#4B3C4F"/>
<path d="M193.74 79.3154C193.74 79.3154 187.04 53.3153 183.74 45.0153C180.44 36.8153 174.24 27.5153 173.94 27.0153C177.84 25.2153 181.34 22.9153 184.44 20.2153C187.54 17.5153 190.04 14.8153 192.14 12.1153C194.64 14.9153 209.54 31.7153 211.14 40.9153C212.94 51.1153 199.94 55.5154 193.74 79.3154Z" fill="#4B3C4F"/>
</svg>
