<svg width="290" height="210" viewBox="0 0 290 210" fill="none" xmlns="http://www.w3.org/2000/svg">
<path d="M253.56 149.4H0.759766C0.759766 149.4 2.25977 103 17.4598 69.9C28.9598 44.9 56.0598 31 76.2598 23.8C81.9598 21.8 87.1598 20.3 91.1598 19.2C91.1598 19.7 91.2598 20.1 91.2598 20.6C91.2598 20.6 102.06 52.7 130.16 64.1C153.06 73.4 166.66 67.2 168.76 56.9C170.06 50.3 165.96 39.5 163.86 36C162.66 35 161.86 33.5 161.46 32L160.66 28.7C162.56 28.3 164.36 27.8 166.16 27.2C166.76 27 167.26 26.8 167.86 26.6C180.76 30 200.16 38.1 223.06 57.3C248.96 79 253.56 149.4 253.56 149.4Z" fill="#444444"/>
<path d="M121.46 74.6C86.9599 59.1 73.5599 31.4 76.1599 23.9C76.1599 23.9 76.1599 23.8 76.2599 23.7C78.0599 20 80.9599 17 84.5599 14.9C86.5599 13.7 88.7599 12.6 90.5599 12C90.6599 13.4 91.0599 17.8 91.1599 19.3C91.1599 19.8 97.6599 44.5 125.76 55.9C148.66 65.2 162.46 59.3 163.96 48.9C165.66 37.4 159.56 28.9 159.56 28.9C161.46 28.5 164.46 27.8 166.26 27.2C170.66 32.5 175.16 37.8 176.86 51.8C179.26 71.9 157.16 90.6 121.46 74.6Z" fill="#444444"/>
<path d="M50.2598 149.4L45.7598 112.4" stroke="#544D4D" stroke-width="3" stroke-miterlimit="10" stroke-linecap="round" stroke-linejoin="round"/>
<path d="M224.86 99.7C224.86 99.7 221.86 107 222.76 114.3C223.66 121.6 226.26 132.3 222.56 149.4" stroke="#544D4D" stroke-width="3" stroke-miterlimit="10" stroke-linecap="round" stroke-linejoin="round"/>
<path d="M50.4596 207.7C50.4596 207.7 51.3596 158 50.4596 106.1C49.5596 54.2 86.2596 42.7 86.2596 42.7C86.2596 42.7 89.4596 31.6 94.7596 28.2" stroke="white" stroke-width="3" stroke-miterlimit="10" stroke-linecap="round" stroke-linejoin="round"/>
<path d="M94.9595 207.7C89.1595 63.8 107.86 62.4 107.86 62.4C107.86 62.4 108.06 55.6 113.06 48.9" stroke="white" stroke-width="3" stroke-miterlimit="10" stroke-linecap="round" stroke-linejoin="round"/>
<path d="M135.96 207.7C139.66 173.4 135.96 74.4 135.96 74.4C135.96 74.4 137.86 65.8 136.76 59.4" stroke="white" stroke-width="3" stroke-miterlimit="10" stroke-linecap="round" stroke-linejoin="round"/>
<path d="M182.86 207.7C187.16 102.3 166.96 68.6 166.96 68.6C166.96 68.6 165.66 59.6 160.26 55.9" stroke="white" stroke-width="3" stroke-miterlimit="10" stroke-linecap="round" stroke-linejoin="round"/>
<path d="M220.46 207.7C220.46 207.7 228.36 164.8 218.46 112.4C208.56 60 175.36 46.6 175.36 46.6C175.36 46.6 169.96 37.5 163.46 37.9" stroke="white" stroke-width="3" stroke-miterlimit="10" stroke-linecap="round" stroke-linejoin="round"/>
<path d="M35.46 46.6C35.46 46.6 36.26 66.3 59.46 66.4C59.46 66.4 70.36 94.7 97.56 89.6C97.56 89.6 113.86 115.6 136.66 98.3C136.66 98.3 162.26 113.6 175.16 92.8C175.16 92.8 201.26 99.7 203.86 73.8C203.86 73.8 218.36 70.7 215.76 51.4" stroke="white" stroke-width="3" stroke-miterlimit="10" stroke-linecap="round" stroke-linejoin="round"/>
<path d="M58.8597 31.2C58.8597 31.2 52.4597 43.8 69.8597 53.2C69.8597 53.2 72.3597 72.2 100.36 76.4C100.36 76.4 114.66 94.1 136.46 87.7C136.46 87.7 164.06 98.8 171.96 80.7C171.96 80.7 194.26 80.6 190.66 57.3C190.66 57.3 198.16 49 191.56 35.8" stroke="white" stroke-width="3" stroke-miterlimit="10" stroke-linecap="round" stroke-linejoin="round"/>
<path d="M76.2598 23.8C76.2598 23.8 74.1598 35 86.3598 42.7C86.3598 42.7 87.0598 56.4 107.86 62.4C107.86 62.4 117.36 76.2 136.06 74.4C136.06 74.4 158.96 82.9 167.06 68.6C167.06 68.6 180.36 61 175.26 46.5C175.26 46.5 177.36 35.8 169.06 27.5" stroke="white" stroke-width="3" stroke-miterlimit="10" stroke-linecap="round" stroke-linejoin="round"/>
<path d="M161.993 86.8449C162.026 83.9733 159.77 81.6189 156.954 81.5861C154.137 81.5534 151.827 83.8547 151.794 86.7263C151.76 89.5979 154.017 91.9523 156.833 91.9851C159.649 92.0178 161.959 89.7165 161.993 86.8449Z" fill="white"/>
<path d="M167.86 100.4C168.56 105.7 165.06 110.6 160.06 111.2C155.06 111.9 150.46 108.1 149.76 102.7C149.06 97.4 152.26 90.1 157.26 89.4C162.26 88.7 167.16 95.1 167.86 100.4Z" fill="white"/>
<path d="M154.859 94.1001C154.659 94.3001 154.559 94.4 154.459 94.5C154.359 94.6 154.159 94.6 154.059 94.7C153.759 94.8 153.559 94.9 153.259 95C152.759 95.2 152.259 95.3 151.659 95.4C150.659 95.6 149.559 95.7 148.559 95.8C147.559 95.8 146.459 95.8001 145.359 95.6001C144.759 95.5001 144.259 95.4001 143.559 95.1001C143.259 95.0001 142.859 94.8 142.359 94.4C142.159 94.3 142.059 94.1 141.859 94C141.659 93.8 141.459 93.4 141.259 93.2C141.159 92.8 140.959 92.5001 140.959 92.1001C140.859 91.3001 140.959 90.7001 140.959 90.1001C141.059 89.5001 141.059 89 141.159 88.5C141.359 87.5 141.659 86.5001 141.959 85.6001C142.659 83.7001 143.559 81.8001 144.959 80.1001V80C144.959 79.9 145.059 79.9 145.159 80L145.259 80.1001L144.359 85.9C144.159 87.8 143.759 89.8001 143.959 91.6001C143.959 91.7001 143.959 91.8 144.059 91.9C144.059 91.9 144.159 92.0001 144.159 92.1001C144.359 92.2001 144.559 92.3 144.759 92.4C145.159 92.6 145.659 92.7 146.059 92.9C146.959 93.2 147.959 93.3 148.859 93.5C149.859 93.7 150.759 93.8 151.759 93.9C152.259 94 152.759 94 153.159 94C153.359 94 153.659 94 153.859 94C154.059 94 154.359 94 154.459 93.9H154.559C154.659 93.9 154.759 93.9 154.759 94C154.859 94 154.859 94.0001 154.859 94.1001Z" fill="white"/>
<path d="M154.06 99.9C152.26 101.3 150.16 102.2 148.06 102.8C145.96 103.4 143.76 103.7 141.36 103.4H141.16L140.86 103.3L140.26 103.1C139.86 103 139.46 102.8 139.06 102.6L138.56 102.3L138.16 101.9C137.86 101.7 137.56 101.4 137.36 101.2C136.36 100.2 135.76 99 135.36 97.9C134.56 95.7 134.36 93.4 134.86 91.1V91C134.86 90.9 134.96 90.9 135.06 90.9C135.16 90.9 135.16 91 135.16 91C135.46 92 135.76 93 136.16 93.9C136.56 94.9 136.96 95.8 137.46 96.7C138.46 98.4 139.86 100.1 141.86 100.4C143.86 100.7 145.96 100.6 147.96 100.4C149.96 100.2 152.06 100 154.06 99.6C154.16 99.6 154.26 99.6 154.26 99.7C154.26 99.8 154.16 99.8 154.06 99.9Z" fill="white"/>
<path d="M152.759 104.9C150.559 105.9 148.559 106.7 146.959 107.7C146.159 108.2 145.559 108.7 145.159 109.2C145.059 109.3 144.959 109.5 144.859 109.6C144.759 109.7 144.759 109.9 144.659 110C144.559 110.1 144.559 110.3 144.459 110.4L144.359 110.6C144.359 110.7 144.359 110.8 144.259 110.9C143.859 112.3 143.859 114.1 143.959 116.1C144.159 118.1 144.459 120.2 144.559 122.6V122.7C144.559 122.8 144.459 122.8 144.459 122.9C144.359 122.9 144.359 122.9 144.359 122.8C143.159 120.9 142.259 118.9 141.659 116.7C141.059 114.6 140.759 112.3 141.359 110C141.659 108.9 142.259 107.8 143.159 107.1C144.059 106.3 145.059 105.8 146.059 105.4C148.159 104.7 150.459 104.5 152.659 104.6C152.759 104.6 152.759 104.7 152.759 104.7C152.859 104.8 152.859 104.8 152.759 104.9Z" fill="white"/>
<path d="M155.259 108C154.959 109.8 154.559 111.2 154.459 112.4C154.359 113 154.459 113.5 154.559 113.8C154.559 113.9 154.559 114 154.659 114C154.659 114.1 154.659 114.1 154.759 114.2C154.759 114.3 154.759 114.3 154.859 114.4L155.059 114.8C155.659 116 156.159 117.4 156.659 118.8C157.059 120.3 157.459 121.8 157.559 123.7V123.8C157.559 123.9 157.459 123.9 157.459 123.9C157.459 123.9 157.359 123.9 157.359 123.8C156.459 122.6 155.559 121.3 154.659 120C153.859 118.7 153.059 117.4 152.359 116C152.059 115.3 151.759 114.5 151.859 113.7C151.859 112.9 152.059 112.1 152.459 111.4C153.159 110 154.159 108.7 155.259 107.7C155.359 107.7 155.359 107.7 155.459 107.7V107.8L155.259 108Z" fill="white"/>
<path d="M160.959 93.1C161.059 93 161.259 92.8 161.459 92.6L162.059 92.1L163.159 91.1C163.959 90.5 164.659 89.9 165.459 89.3L167.659 87.7C167.959 87.5 168.359 87.2 168.559 87C168.659 86.9 168.759 86.8 168.659 87C168.659 87 168.559 87.1 168.559 87.2C168.559 87.2 168.459 87.3 168.459 87.4C168.459 87.5 168.359 87.6 168.359 87.7C168.259 87.9 168.259 88 168.359 88.2C168.359 88.1 168.259 87.7 168.159 87.3L167.859 86C167.659 85.1 167.359 84.2 167.159 83.2C166.759 81.3 166.459 79.3 166.559 77.1V77C166.559 76.9 166.659 76.9 166.659 76.9C166.759 76.9 166.759 76.9 166.759 77C167.659 78.7 168.459 80.5 169.259 82.3C169.659 83.2 170.059 84.1 170.359 85C170.659 85.9 171.059 86.8 171.259 87.9C171.259 88.1 171.259 88.2 171.259 88.4C171.159 88.6 171.159 88.7 171.059 88.8C170.859 89 170.659 89.2 170.459 89.3C170.059 89.6 169.659 89.9 169.159 90.1C168.259 90.6 167.459 91 166.559 91.4C165.659 91.8 164.759 92.2 163.859 92.5C163.359 92.7 162.959 92.8 162.459 92.9C162.259 93 161.959 93 161.759 93.1C161.659 93.1 161.559 93.1 161.359 93.2C161.259 93.2 161.159 93.3 160.859 93.1C160.759 93 160.759 93 160.859 92.9C160.759 93 160.859 93 160.959 93.1Z" fill="white"/>
<path d="M162.959 98.4C164.959 97.2 166.859 96.4 168.759 95.7C170.659 95 172.559 94.4 174.059 93.8L174.159 93.7H174.259C174.259 93.7 174.359 93.7 174.359 93.6C174.459 93.6 174.559 93.5 174.559 93.4L174.659 93.3L174.759 93.1C174.859 93 174.959 92.9 175.059 92.8C175.459 92.3 175.959 91.6 176.359 90.7C177.159 89.1 177.959 87.1 178.959 85.1V85C178.959 84.9 179.059 84.9 179.159 84.9L179.259 85C179.359 87.1 179.259 89.2 178.659 91.2C178.359 92.2 178.059 93.2 177.459 94.1C176.959 95 176.059 95.8 175.059 96.3C173.059 97.1 171.059 97.5 168.959 97.9C166.859 98.2 164.859 98.5 162.759 98.6C162.659 98.6 162.659 98.5 162.659 98.5C162.859 98.5 162.859 98.5 162.959 98.4Z" fill="white"/>
<path d="M165.459 102.9C167.259 101.2 169.559 100.3 172.159 100.1C173.459 100 174.859 100.2 176.359 100.8C176.759 101 177.059 101.2 177.359 101.4C177.659 101.6 177.959 101.9 178.359 102.2C178.659 102.5 178.959 102.8 179.159 103.1L179.559 103.6C179.659 103.8 179.759 103.9 179.859 104.1C180.659 105.4 180.959 106.7 181.159 108C181.359 109.3 181.259 110.6 181.059 111.8C180.659 114.2 179.759 116.5 178.159 118.3C178.059 118.4 178.059 118.4 177.959 118.3C177.959 118.3 177.859 118.2 177.959 118.2C178.259 117.1 178.459 116.1 178.559 115C178.659 113.9 178.759 112.8 178.759 111.7C178.759 109.5 178.459 107.3 177.359 105.5C176.859 104.6 176.159 103.8 175.159 103.3C174.259 102.8 173.159 102.6 172.059 102.5C170.959 102.4 169.859 102.5 168.859 102.6C167.759 102.7 166.659 102.9 165.659 103.2C165.559 103.2 165.459 103.2 165.459 103.1C165.359 103 165.359 102.9 165.459 102.9Z" fill="white"/>
<path d="M164.059 106.6C165.959 106.4 167.659 107 169.259 108.2C170.059 108.8 170.759 109.7 171.159 110.9C171.259 111.2 171.359 111.5 171.359 111.8C171.459 112.1 171.459 112.4 171.459 112.7C171.459 113 171.459 113.4 171.459 113.6L171.359 114.3C171.059 116 170.459 117.5 169.659 118.9C168.759 120.3 167.759 121.6 166.259 122.7H166.159C166.059 122.7 166.059 122.7 165.959 122.7V122.6C166.459 121.2 166.959 119.7 167.359 118.2C167.759 116.7 168.159 115.3 168.459 113.8C168.659 113 168.659 112.4 168.459 111.7C168.259 111 167.959 110.3 167.459 109.8C166.559 108.7 165.359 107.7 164.059 106.9C163.959 106.9 163.959 106.8 164.059 106.7C163.959 106.6 163.959 106.6 164.059 106.6Z" fill="white"/>
</svg>
