<svg width="290" height="190" viewBox="0 0 290 190" fill="none" xmlns="http://www.w3.org/2000/svg">
<path d="M255.8 149.819L2.49972 144.219C-0.100279 80.4185 26.0997 46.7185 36.3997 40.1185C55.6997 27.6185 80.7997 23.9185 92.5997 22.8185C95.5997 30.2185 107 54.5185 130.7 64.1185C153.6 73.4185 167.2 67.2185 169.3 56.9185C170.6 50.3185 166.5 39.5185 164.4 36.0185C163.2 35.0185 162.4 33.5185 162 32.0185L161.2 28.7185C162.9 28.3185 164.6 27.9185 166.3 27.3185C208.2 32.0185 225.2 43.4185 235.2 62.9185C245.5 83.0185 255.8 149.819 255.8 149.819Z" fill="#474E51"/>
<path d="M46.8998 149.419C46.8998 149.419 45.5998 117.019 44.2998 111.019" stroke="#544D4D" stroke-width="3" stroke-miterlimit="10" stroke-linecap="round" stroke-linejoin="round"/>
<path d="M224.1 149.419C224.1 149.419 221.1 129.319 221.1 125.819C221.1 122.419 223.7 111.219 224.1 101.419" stroke="#544D4D" stroke-width="3" stroke-miterlimit="10" stroke-linecap="round" stroke-linejoin="round"/>
<path d="M76.4004 124.219V112.319L105.1 124.019C105.1 124.019 81.9004 124.619 76.4004 124.219Z" fill="white"/>
<path d="M112.5 123.619C112.5 123.619 84.2 125.519 69 123.619" stroke="#544D4D" stroke-width="3.4265" stroke-miterlimit="10" stroke-linecap="round" stroke-linejoin="round"/>
<path d="M144.8 85.5186L141.2 160.119C141.2 160.119 172.9 181.719 172.9 181.119C172.9 180.519 187.9 154.319 187.9 154.319L164.5 82.5186C164.5 82.5186 161.5 85.6186 144.8 85.5186Z" fill="#D85656"/>
<path d="M152 61.5186C152 61.5186 138.3 74.4186 136.5 77.8186C134.7 81.2186 144.2 86.6186 144.2 86.6186C144.2 86.6186 159.5 89.8186 166.4 83.6186C166.4 83.6186 170.3 79.3186 169.5 75.2186C168.8 71.2186 152 61.5186 152 61.5186Z" fill="#EA6363"/>
<path d="M89.7 11.0186L91 10.7186C94.7 22.6186 118.2 50.7186 152 61.5186L131 88.0186C129.6 89.8186 127.1 90.1186 125.3 88.8186C116.7 82.4186 93.7 63.6186 84.3 39.6186C82.3 34.6186 81.9 29.1185 82.9 23.9185L84.2 16.8186C84.7 13.9186 86.9 11.6186 89.7 11.0186Z" fill="white"/>
<path d="M180 78.9185C179.4 82.2185 175.5 83.5186 173 81.2186L151.9 61.5186C151.9 61.5186 164.2 49.8186 161.2 28.6186C165.3 27.7186 169.2 26.4186 172.8 24.7186C172.9 24.9186 174.3 27.6186 175.9 32.1186C179.3 41.4186 183.6 58.5185 180 78.9185Z" fill="white"/>
</svg>
