<svg width="290" height="190" viewBox="0 0 290 190" fill="none" xmlns="http://www.w3.org/2000/svg">
<path d="M196.1 48.7C196.1 48.7 180.6 34.2 165.3 30.7C165.3 30.7 167.1 56.5 148.9 54.6C119.5 51.5 91.8004 20.3 91.8004 20.3C91.8004 20.3 72.5004 25.7 56.9004 37.6C56.9004 37.6 59.0004 68.3 94.1004 83.5C129.2 98.7 178.1 91.2 189.7 81.4C201.3 71.6 199 51.9 196.1 48.7Z" fill="white"/>
<path d="M48.3009 44.2C48.3009 44.2 28.9009 54.9 18.3009 85.4C7.70086 115.9 8.00086 161.3 8.00086 161.3H236.201C236.201 161.3 229.801 86.4 207.201 61.4C207.201 61.4 208.701 83.8 164.401 86.1C120.101 88.4 66.8009 74.3 65.5009 66.1C64.3009 57.7 48.3009 44.2 48.3009 44.2Z" fill="white"/>
<path d="M216.501 163.1C153.701 192.1 50.3008 165.9 50.3008 165.9C50.3008 165.9 48.2008 140.4 55.8008 94.5C56.1008 92.4 56.4008 90.3 56.6008 88.4C58.8008 67.6 53.7008 53.3 48.3008 44.3C48.3008 42 50.7008 40.4 53.4008 38.1C54.5008 37.2 74.2008 25 75.0008 25.6C76.4008 27.6 77.7008 29.6 78.8008 31.7C90.0008 52.4 93.9008 74.6 117.201 77.8C140.201 81 162.401 80.5 178.301 77C193.601 73.6 183.401 48.2 176.601 35.7C176.301 35.2 176.301 35 176.001 34.8C178.301 33.3 205.001 53.8 207.101 61.4C211.501 72.4 212.701 80.6 214.001 91.3C218.301 126.4 216.501 163.1 216.501 163.1Z" fill="#77A0E0"/>
<path d="M79.2008 77.1C82.7354 77.1 85.6008 74.2346 85.6008 70.7C85.6008 67.1654 82.7354 64.3 79.2008 64.3C75.6662 64.3 72.8008 67.1654 72.8008 70.7C72.8008 74.2346 75.6662 77.1 79.2008 77.1Z" fill="#647184"/>
<path d="M198.501 79.8C201.704 79.8 204.301 77.2033 204.301 74C204.301 70.7967 201.704 68.2 198.501 68.2C195.298 68.2 192.701 70.7967 192.701 74C192.701 77.2033 195.298 79.8 198.501 79.8Z" fill="#647184"/>
<path d="M123.901 88.9C139.101 89.8 158.101 90.1 174.001 87.8C184.701 86.3 194.401 94.2 195.201 104.9C195.901 115.5 196.201 128.4 194.501 139.7C191.001 164.1 103.701 162.9 102.301 141.4C101.501 130.3 100.801 121.3 100.001 113.9C98.5011 100 109.901 88.1 123.901 88.9Z" stroke="#647184" stroke-width="3" stroke-miterlimit="10"/>
<path d="M153.001 54.5C153.001 54.5 134.701 76.7 129.101 75C123.501 73.3 88.7012 54.8 83.2012 23.2C83.2012 23.2 87.5012 16.2 91.3012 14C91.3012 14 101.801 32.5 120.801 43.6C138.901 54.1 153.001 54.5 153.001 54.5Z" fill="white"/>
<path d="M153.001 54.5C153.001 54.5 134.701 76.7 129.101 75C123.501 73.3 88.7012 54.8 83.2012 23.2" stroke="#D0D6DD" stroke-width="3" stroke-miterlimit="10" stroke-linecap="round" stroke-linejoin="round"/>
<path d="M153.001 54.5C153.001 54.5 167.201 71.1 171.901 71.3C176.601 71.5 178.601 42.3 164.501 27.5C164.501 27.5 162.301 28.1 161.401 28.3C161.301 28.2 168.401 49.5 153.001 54.5Z" fill="white"/>
<path d="M153.001 54.5C153.001 54.5 167.201 71.1 171.901 71.3C176.601 71.5 178.601 42.3 164.501 27.5" stroke="#D0D6DD" stroke-width="3" stroke-miterlimit="10" stroke-linecap="round" stroke-linejoin="round"/>
<path d="M151.601 56.1C151.601 56.1 148.801 59.2 149.801 66C150.801 72.7 150.601 79.4 150.601 79.4" stroke="#D0D6DD" stroke-width="3" stroke-miterlimit="10" stroke-linecap="round" stroke-linejoin="round"/>
<path d="M156.7 71.1C157.971 71.1 159 70.0702 159 68.8C159 67.5297 157.971 66.5 156.7 66.5C155.43 66.5 154.4 67.5297 154.4 68.8C154.4 70.0702 155.43 71.1 156.7 71.1Z" fill="#D0D6DD"/>
</svg>
