<svg width="290" height="190" viewBox="0 0 290 190" fill="none" xmlns="http://www.w3.org/2000/svg">
<path d="M76.5723 2.5C76.5723 2.5 85.8723 0.3 89.7723 0L90.9723 10.9C91.0723 10.8 76.6723 5.3 76.5723 2.5Z" fill="#544646"/>
<path d="M253.973 149.2H1.17285C1.17285 149.2 2.67285 102.8 17.8728 69.7C32.6728 37.7 72.9728 23.8 91.5728 19C91.5728 19.5 91.6729 19.9 91.6729 20.4C91.6729 20.4 102.473 52.5 130.573 63.9C153.473 73.2 167.073 67 169.173 56.7C170.473 50.1 166.373 39.3 164.273 35.8C163.073 34.8 162.273 33.3 161.873 31.8L161.073 28.5C163.573 28 165.973 27.3 168.273 26.4C181.173 29.8 200.573 37.9 223.473 57.1C249.373 78.7 253.973 149.2 253.973 149.2Z" fill="#544646"/>
<path d="M50.6729 149.2L46.1729 112.1" stroke="white" stroke-width="3" stroke-miterlimit="10" stroke-linecap="round" stroke-linejoin="round"/>
<path d="M225.273 99.5C225.273 99.5 222.273 106.8 223.173 114.1C224.073 121.4 226.673 132.1 222.973 149.2" stroke="white" stroke-width="3" stroke-miterlimit="10" stroke-linecap="round" stroke-linejoin="round"/>
<path d="M122.873 82.5001C67.5728 66.5001 53.6729 34.0001 53.6729 34.0001C53.6729 34.0001 62.3729 28.6001 66.4729 23.0001C68.9729 19.6001 91.4729 15.7001 91.4729 15.7001C91.8729 20.0001 91.4729 15.7001 91.7729 20.4001C91.7729 20.4001 102.573 52.5001 130.673 63.9001C153.573 73.2001 167.173 67.0001 169.273 56.7001C170.573 50.1001 166.473 39.3001 164.373 35.8001C163.173 34.8001 162.373 33.3001 161.973 31.8001L161.173 28.5001C166.873 27.3001 172.273 25.1001 176.973 22.2001C177.173 22.5001 177.273 22.8001 177.373 23.1001C179.473 28.2001 185.873 32.8001 185.873 32.8001C199.273 64.4001 179.173 98.8001 122.873 82.5001Z" fill="#544646"/>
<path d="M201.772 41.4C201.772 41.4 206.372 39.2 210.972 39.7C215.572 40.2 237.472 57.9 239.572 61.6C241.772 65.3001 241.672 77.1001 239.072 78.6001C236.572 80.0001 234.972 76.8 234.972 76.8C234.972 76.8 236.872 66 234.772 64C232.672 62 212.372 45 211.672 44.9C210.972 44.8 207.172 48 207.172 48L201.772 41.4Z" fill="#544646"/>
<path d="M50.6724 38.9C50.6724 38.9 41.6724 35.1 37.7724 35.7C33.8724 36.3 13.6724 53.7 11.7724 61.4C9.87242 69.1 16.2724 83 16.2724 83L20.7724 75.9C20.7724 75.9 17.5724 65.3 18.5724 61.1C19.5724 56.9 35.5724 42.5 37.1724 42.5C38.7724 42.5 48.3724 46.8 48.3724 46.8L50.6724 38.9Z" fill="#544646"/>
<path d="M92.2725 44.6C101.872 63 121.072 87.5 153.172 99C182.072 109.4 180.272 74.5 176.072 53.6C147.272 59.9 118.372 60.4 92.2725 44.6Z" fill="#443F3F"/>
<path d="M176.073 53.7C174.973 48.2 173.673 43.7 172.773 41.2C170.773 35.8 167.773 31 165.073 27.4C163.773 27.8 162.473 28.1 161.173 28.4L161.973 31.7C162.373 33.3 163.173 34.7 164.373 35.7C164.573 36.1 164.873 36.6 165.173 37.2C142.473 46 115.673 34.4 115.673 34.4C107.573 34 108.173 42 111.973 51.5C97.5726 37.8 91.7726 20.4 91.7726 20.4C91.5726 17.4 91.3725 14.5 91.0725 11.6C91.0725 11.6 83.6726 15.7 84.9726 24.9C85.5726 28.8 87.8725 36.1 92.3725 44.6C118.373 60.4 147.273 59.9 176.073 53.7Z" fill="#E26076"/>
<path d="M76.5723 2.5C76.5723 2.5 99.8723 13.3 118.672 18.3C120.472 18.8 121.872 20.4 122.072 22.3C122.772 29.1 124.672 45 126.272 51.1C128.372 59 169.072 99.2 169.472 104.3C169.872 109.4 128.372 108.2 103.672 78.6C78.8723 49 80.7723 43.6 80.7723 43.6C80.7723 43.6 76.5723 15.2 76.5723 2.5Z" fill="#544646"/>
<path d="M187.472 13.2001L193.872 15.9001C195.872 16.7001 196.872 19.0001 196.172 21.1001C193.272 29.9001 186.072 51.8001 185.772 59.4001C185.372 69.0001 165.572 130.7 165.572 130.7C165.572 130.7 153.472 114.8 162.372 99.1001C169.372 86.7001 169.772 60.2001 169.072 56.7001C168.172 52.1001 164.372 41.3001 162.272 34.5001C161.172 30.8001 160.972 28.5001 160.972 28.5001C160.972 28.5001 174.772 26.2001 187.472 13.2001Z" fill="#544646"/>
<path d="M113.073 29.6C114.674 29.6 115.973 28.1225 115.973 26.3C115.973 24.4774 114.674 23 113.073 23C111.471 23 110.173 24.4774 110.173 26.3C110.173 28.1225 111.471 29.6 113.073 29.6Z" fill="white"/>
<path d="M159.273 90.6C151.973 82.8 131.573 64.3 125.373 60.2C121.773 57.8 117.873 56 113.773 54.7C87.7729 46.3 79.2729 32.6 79.2729 32.6L78.1729 23" stroke="#443F3F" stroke-width="3" stroke-miterlimit="10" stroke-linecap="round" stroke-linejoin="round"/>
<path d="M163.973 96.1C163.973 96.1 161.573 108 162.573 113.8C163.573 119.6 164.373 136.9 164.373 136.9" stroke="#443F3F" stroke-width="3" stroke-miterlimit="10" stroke-linecap="round" stroke-linejoin="round"/>
<path d="M191.572 35.8C191.572 35.8 186.672 53 184.372 59.8C181.972 66.6 171.072 80.2 168.072 86.7" stroke="#443F3F" stroke-width="3" stroke-miterlimit="10" stroke-linecap="round" stroke-linejoin="round"/>
<path d="M178.473 94.7C180.295 94.7 181.773 93.2225 181.773 91.4C181.773 89.5774 180.295 88.1 178.473 88.1C176.65 88.1 175.173 89.5774 175.173 91.4C175.173 93.2225 176.65 94.7 178.473 94.7Z" fill="white"/>
</svg>
