<svg width="290" height="190" viewBox="0 0 290 190" fill="none" xmlns="http://www.w3.org/2000/svg">
<path d="M75.5576 27.0145C75.5576 27.0145 91.8576 51.3145 94.2576 76.7145L106.658 80.9145C106.658 80.9145 98.2576 43.3145 81.4576 24.0145C81.5576 24.0145 78.6576 23.6145 75.5576 27.0145Z" fill="#423232"/>
<path d="M181.758 76.9145C181.758 76.9145 183.458 51.1145 170.558 32.9145C170.558 32.9145 171.358 32.1145 175.858 34.3145C179.058 35.8145 188.458 48.7145 189.358 74.8145C189.458 74.8145 182.858 77.0145 181.758 76.9145Z" fill="#423232"/>
<path d="M206.858 61.6145C204.758 54.0145 198.458 48.8145 195.758 48.9145C195.858 49.1145 195.858 49.4145 195.958 49.7145C200.158 64.8145 193.258 73.8145 178.058 77.1145C162.158 80.6145 148.858 81.1145 116.958 77.9145C93.5578 75.6145 71.5578 64.6145 60.3578 43.9145C59.2578 41.8145 57.9578 39.7145 56.5578 37.8145C55.7578 37.2145 54.2578 37.3145 53.1578 38.2145C50.3578 40.5145 48.0578 42.2145 48.0578 44.4145C48.0578 44.4145 28.6578 55.1145 18.0578 85.6145C9.35781 110.815 7.95781 146.015 7.75781 157.615H235.558C233.858 142.115 226.458 83.2145 206.858 61.6145Z" fill="#FFF573"/>
<path d="M33.6582 81.2145C39.7333 81.2145 44.6582 76.2896 44.6582 70.2145C44.6582 64.1393 39.7333 59.2145 33.6582 59.2145C27.5831 59.2145 22.6582 64.1393 22.6582 70.2145C22.6582 76.2896 27.5831 81.2145 33.6582 81.2145Z" fill="#423232"/>
<path d="M80.2586 88.0145C84.5112 88.0145 87.9586 84.5671 87.9586 80.3145C87.9586 76.0619 84.5112 72.6145 80.2586 72.6145C76.006 72.6145 72.5586 76.0619 72.5586 80.3145C72.5586 84.5671 76.006 88.0145 80.2586 88.0145Z" fill="#423232"/>
<path d="M117.258 119.414C122.394 119.414 126.558 115.251 126.558 110.114C126.558 104.978 122.394 100.814 117.258 100.814C112.122 100.814 107.958 104.978 107.958 110.114C107.958 115.251 112.122 119.414 117.258 119.414Z" fill="#423232"/>
<path d="M163.558 102.215C167.479 102.215 170.658 99.0357 170.658 95.1145C170.658 91.1933 167.479 88.0145 163.558 88.0145C159.637 88.0145 156.458 91.1933 156.458 95.1145C156.458 99.0357 159.637 102.215 163.558 102.215Z" fill="#423232"/>
<path d="M196.158 116.915C202.178 116.915 207.058 112.034 207.058 106.015C207.058 99.9946 202.178 95.1145 196.158 95.1145C190.138 95.1145 185.258 99.9946 185.258 106.015C185.258 112.034 190.138 116.915 196.158 116.915Z" fill="#423232"/>
<path d="M221.558 88.0145C225.811 88.0145 229.258 84.5671 229.258 80.3145C229.258 76.0619 225.811 72.6145 221.558 72.6145C217.306 72.6145 213.858 76.0619 213.858 80.3145C213.858 84.5671 217.306 88.0145 221.558 88.0145Z" fill="#423232"/>
<path d="M184.158 88.0145C167.758 95.0145 113.258 95.7145 85.1576 82.1145C67.4576 73.5145 57.5576 62.3145 52.6576 54.1145C49.3576 48.6145 48.1576 44.7145 48.0576 44.4145C48.0576 42.2145 50.3576 40.5145 53.1576 38.2145C54.2576 37.3145 55.7576 37.2145 56.5576 37.8145C57.9576 39.8145 59.2576 41.8145 60.3576 43.9145C71.5576 64.6145 93.5576 75.6145 116.958 77.9145C148.858 81.1145 162.158 80.6145 178.058 77.1145C193.358 73.7145 200.258 64.7145 195.958 49.7145C195.858 49.5145 195.858 49.2145 195.758 48.9145C198.458 48.7145 204.758 53.9145 206.858 61.6145C206.858 61.6145 209.858 77.1145 184.158 88.0145Z" fill="white"/>
</svg>
