<svg width="290" height="190" viewBox="0 0 290 190" fill="none" xmlns="http://www.w3.org/2000/svg">
<path d="M253.887 149.1H1.08691C1.08691 149.1 2.58692 102.7 17.7869 69.6C29.2869 44.6 56.3869 30.7 76.5869 23.5C82.2869 21.5 87.4869 20 91.4869 18.9C91.4869 19.4 91.5869 19.8 91.5869 20.3C91.5869 20.3 100.687 40.7 128.787 52C151.687 61.3 159.687 57.6 161.787 47.3C163.087 40.7 166.387 39.2 164.287 35.7C163.087 34.7 162.287 33.2 161.887 31.7L161.087 28.4C162.987 28 164.787 27.5 166.587 26.9C167.187 26.7 167.687 26.5 168.287 26.3C181.187 29.7 200.587 37.8 223.487 57C249.287 78.7 253.887 149.1 253.887 149.1Z" fill="#CC5292"/>
<mask id="mask0_112_4745" style="mask-type:alpha" maskUnits="userSpaceOnUse" x="1" y="18" width="253" height="132">
<path d="M253.887 149.1H1.08691C1.08691 149.1 2.58692 102.7 17.7869 69.6C29.2869 44.6 56.3869 30.7 76.5869 23.5C82.2869 21.5 87.4869 20 91.4869 18.9C91.4869 19.4 91.5869 19.8 91.5869 20.3C91.5869 20.3 100.687 40.7 128.787 52C151.687 61.3 159.687 57.6 161.787 47.3C163.087 40.7 166.387 39.2 164.287 35.7C163.087 34.7 162.287 33.2 161.887 31.7L161.087 28.4C162.987 28 164.787 27.5 166.587 26.9C167.187 26.7 167.687 26.5 168.287 26.3C181.187 29.7 200.587 37.8 223.487 57C249.287 78.7 253.887 149.1 253.887 149.1Z" fill="#CC5292"/>
</mask>
<g mask="url(#mask0_112_4745)">
<path d="M14.0867 112.6C5.88667 112.6 -1.51333 107.4 -4.21333 99.7C-6.01333 94.8 -5.71333 89.5 -3.51333 84.8C-1.31333 80.1 2.58667 76.5 7.48667 74.8C9.58667 74 11.7867 73.6 14.0867 73.6C22.2867 73.6 29.6867 78.8 32.3867 86.5C35.9867 96.6 30.7867 107.8 20.6867 111.4C18.5867 112.2 16.3867 112.6 14.0867 112.6Z" stroke="#6F2696" stroke-width="3" stroke-miterlimit="10" stroke-linecap="round" stroke-linejoin="round"/>
<path d="M23.0865 89.9C24.8865 94.8 22.2866 100.3 17.3865 102C12.4865 103.8 6.98655 101.2 5.28655 96.3C3.48655 91.4 6.08655 85.9 10.9865 84.2C15.8865 82.4 21.2866 85 23.0865 89.9Z" fill="white"/>
<path d="M36.5867 65C28.3867 65 20.9867 59.8 18.2867 52.1C16.4867 47.2 16.7867 41.9 18.9867 37.2C21.1867 32.5 25.0867 28.9 29.9867 27.2C32.0867 26.4 34.2867 26 36.5867 26C44.7867 26 52.1867 31.2 54.8867 38.9C56.6867 43.8 56.3867 49.1 54.1867 53.8C51.9867 58.5 48.0867 62.1 43.1867 63.8C40.9867 64.6 38.7867 65 36.5867 65Z" stroke="#6F2696" stroke-width="3" stroke-miterlimit="10" stroke-linecap="round" stroke-linejoin="round"/>
<path d="M45.4869 42.3C47.2869 47.2 44.6869 52.7 39.7869 54.4C34.8869 56.2 29.3869 53.6 27.6869 48.7C25.8869 43.8 28.4869 38.3 33.3869 36.6C38.2869 34.8 43.6869 37.3 45.4869 42.3Z" fill="white"/>
<path d="M58.6865 18C50.4865 18 43.0865 12.8 40.3865 5.10001C36.7865 -4.99999 41.9865 -16.2 52.0865 -19.8C54.1865 -20.6 56.3865 -21 58.6865 -21C66.8865 -21 74.2865 -15.8 76.9865 -8.09999C80.5865 2.00001 75.3865 13.2 65.2865 16.8C63.1865 17.6 60.9865 18 58.6865 18Z" stroke="#6F2696" stroke-width="3" stroke-miterlimit="10" stroke-linecap="round" stroke-linejoin="round"/>
<path d="M71.4871 112.8C63.2871 112.8 55.8871 107.6 53.1871 99.9C51.3871 95 51.6871 89.7 53.8871 85C56.0871 80.3 59.9871 76.7 64.8871 75C66.9871 74.2 69.1871 73.8 71.4871 73.8C79.6871 73.8 87.0871 79 89.7871 86.7C91.5871 91.6 91.2871 96.9 89.0871 101.6C86.8871 106.3 82.9871 109.9 78.0871 111.6C75.9871 112.4 73.6871 112.8 71.4871 112.8Z" stroke="#6F2696" stroke-width="3" stroke-miterlimit="10" stroke-linecap="round" stroke-linejoin="round"/>
<path d="M80.3864 90.1C82.1864 95 79.5864 100.5 74.6864 102.2C69.7864 104 64.2864 101.4 62.5864 96.5C60.7864 91.6 63.3864 86.0999 68.2864 84.3999C73.1864 82.5999 78.5864 85.1 80.3864 90.1Z" fill="white"/>
<path d="M93.8865 65.1C85.6865 65.1 78.2865 59.9 75.5865 52.2C73.7865 47.3 74.0865 42 76.2865 37.3C78.4865 32.6 82.3865 29 87.2865 27.3C89.3865 26.5 91.5865 26.1 93.8865 26.1C102.086 26.1 109.486 31.3 112.186 39C113.986 43.9 113.686 49.2 111.486 53.9C109.286 58.6 105.386 62.2 100.486 63.9C98.3865 64.7 96.1865 65.1 93.8865 65.1Z" stroke="#6F2696" stroke-width="3" stroke-miterlimit="10" stroke-linecap="round" stroke-linejoin="round"/>
<path d="M102.886 42.4C104.686 47.3 102.086 52.8 97.1864 54.5C92.2864 56.3 86.7864 53.7 85.0864 48.8C83.2864 43.9 85.8864 38.4 90.7864 36.7C95.6864 34.9 101.086 37.5 102.886 42.4Z" fill="white"/>
<path d="M48.9863 160.4C40.7863 160.4 33.3863 155.2 30.6863 147.5C27.0863 137.4 32.2863 126.2 42.3863 122.6C44.4863 121.8 46.6863 121.4 48.9863 121.4C57.1863 121.4 64.5863 126.6 67.2863 134.3C70.8863 144.4 65.6863 155.6 55.5863 159.2C53.4863 160 51.2863 160.4 48.9863 160.4Z" stroke="#6F2696" stroke-width="3" stroke-miterlimit="10" stroke-linecap="round" stroke-linejoin="round"/>
<path d="M57.9869 137.7C59.7869 142.6 57.1869 148.1 52.2869 149.8C47.3869 151.6 41.8869 149 40.1869 144.1C38.3869 139.2 40.9869 133.7 45.8869 132C50.7869 130.2 56.1869 132.8 57.9869 137.7Z" fill="white"/>
<path d="M116.087 18.1C107.887 18.1 100.487 12.9 97.7867 5.20001C95.9867 0.300012 96.2867 -5 98.4867 -9.7C100.687 -14.4 104.587 -18 109.487 -19.7C111.587 -20.5 113.787 -20.9 116.087 -20.9C124.287 -20.9 131.687 -15.7 134.387 -8C137.987 2.1 132.787 13.3 122.687 16.9C120.487 17.8 118.287 18.1 116.087 18.1Z" stroke="#6F2696" stroke-width="3" stroke-miterlimit="10" stroke-linecap="round" stroke-linejoin="round"/>
<path d="M108.087 156.9C99.8867 156.9 92.4867 151.7 89.7867 144C87.9867 139.1 88.2867 133.8 90.4867 129.1C92.6867 124.4 96.5867 120.8 101.487 119.1C103.587 118.3 105.787 117.9 108.087 117.9C116.287 117.9 123.687 123.1 126.387 130.8C128.187 135.7 127.887 141 125.687 145.7C123.487 150.4 119.587 154 114.687 155.7C112.587 156.5 110.387 156.9 108.087 156.9Z" stroke="#6F2696" stroke-width="3" stroke-miterlimit="10" stroke-linecap="round" stroke-linejoin="round"/>
<path d="M116.987 134.2C118.787 139.1 116.187 144.6 111.287 146.3C106.387 148.1 100.887 145.5 99.1869 140.6C97.3869 135.7 99.9869 130.2 104.887 128.5C109.787 126.7 115.287 129.3 116.987 134.2Z" fill="white"/>
<path d="M130.587 109.3C122.387 109.3 114.987 104.1 112.287 96.4C108.687 86.3 113.887 75.1 123.987 71.5C126.087 70.7 128.287 70.3 130.587 70.3C138.787 70.3 146.187 75.5 148.887 83.2C150.687 88.1 150.387 93.4 148.187 98.1C145.987 102.8 142.087 106.4 137.187 108.1C134.987 108.9 132.787 109.3 130.587 109.3Z" stroke="#6F2696" stroke-width="3" stroke-miterlimit="10" stroke-linecap="round" stroke-linejoin="round"/>
<path d="M139.487 86.6C141.287 91.5 138.687 97 133.787 98.7C128.887 100.5 123.387 97.9 121.687 93C119.887 88.1 122.487 82.5999 127.387 80.8999C132.287 79.0999 137.687 81.6 139.487 86.6Z" fill="white"/>
<path d="M152.687 62.3C144.487 62.3 137.087 57.1 134.387 49.4C130.787 39.3 135.987 28.1 146.087 24.5C148.187 23.7 150.387 23.3 152.687 23.3C160.887 23.3 168.287 28.5 170.987 36.2C174.587 46.3 169.387 57.5 159.287 61.1C157.187 61.9 154.887 62.3 152.687 62.3Z" stroke="#6F2696" stroke-width="3" stroke-miterlimit="10" stroke-linecap="round" stroke-linejoin="round"/>
<path d="M161.587 39.6C163.387 44.5 160.787 50 155.887 51.7C150.987 53.5 145.487 50.9 143.787 46C141.987 41.1 144.587 35.6 149.487 33.9C154.387 32.1 159.887 34.6 161.587 39.6Z" fill="white"/>
<path d="M165.486 157C157.286 157 149.886 151.8 147.186 144.1C143.586 134 148.786 122.8 158.886 119.2C160.986 118.4 163.186 118 165.486 118C173.686 118 181.086 123.2 183.786 130.9C187.386 141 182.186 152.2 172.086 155.8C169.886 156.7 167.686 157 165.486 157Z" stroke="#6F2696" stroke-width="3" stroke-miterlimit="10" stroke-linecap="round" stroke-linejoin="round"/>
<path d="M174.386 134.3C176.186 139.2 173.586 144.7 168.686 146.4C163.786 148.2 158.286 145.6 156.586 140.7C154.786 135.8 157.386 130.3 162.286 128.6C167.186 126.8 172.586 129.4 174.386 134.3Z" fill="white"/>
<path d="M187.887 109.4C179.687 109.4 172.287 104.2 169.587 96.5C165.987 86.4 171.187 75.2 181.287 71.6C183.387 70.8 185.587 70.4 187.887 70.4C196.087 70.4 203.487 75.6 206.187 83.3C207.987 88.2 207.687 93.5 205.487 98.2C203.287 102.9 199.387 106.5 194.487 108.2C192.387 109 190.187 109.4 187.887 109.4Z" stroke="#6F2696" stroke-width="3" stroke-miterlimit="10" stroke-linecap="round" stroke-linejoin="round"/>
<path d="M196.787 86.7C198.587 91.6 195.987 97.1 191.087 98.8C186.187 100.6 180.687 98 178.987 93.1C177.187 88.2 179.787 82.7 184.687 81C189.587 79.2 195.087 81.8 196.787 86.7Z" fill="white"/>
<path d="M209.987 62.4C201.787 62.4 194.387 57.2 191.687 49.5C189.887 44.6 190.187 39.3 192.387 34.6C194.587 29.9 198.487 26.3 203.387 24.6C205.487 23.8 207.687 23.4 209.987 23.4C218.187 23.4 225.587 28.6 228.287 36.3C231.887 46.4 226.687 57.6 216.487 61.2C214.487 62 212.287 62.4 209.987 62.4Z" stroke="#6F2696" stroke-width="3" stroke-miterlimit="10" stroke-linecap="round" stroke-linejoin="round"/>
<path d="M218.987 39.7C220.787 44.6 218.187 50.1 213.287 51.8C208.387 53.6 202.887 51 201.187 46.1C199.387 41.2 201.987 35.7 206.887 34C211.787 32.2 217.187 34.8 218.987 39.7Z" fill="white"/>
</g>
<path d="M152.587 59.6C152.687 59.7 152.687 59.7 152.787 59.8C152.787 59.7 152.787 59.6 152.787 59.6C152.687 59.5 152.587 59.5 152.587 59.6Z" fill="white"/>
<path d="M50.5869 149.1L46.0869 112.1" stroke="#544D4D" stroke-width="3" stroke-miterlimit="10" stroke-linecap="round" stroke-linejoin="round"/>
<path d="M225.187 99.4C225.187 99.4 222.187 106.7 223.087 114C223.987 121.3 226.587 132 222.887 149.1" stroke="#544D4D" stroke-width="3" stroke-miterlimit="10" stroke-linecap="round" stroke-linejoin="round"/>
<path d="M176.387 22.4C176.387 22.4 162.687 32.1 136.287 28C113.987 24.5 98.687 16.4 93.187 13.1C91.787 12.2 90.787 10.7 90.687 9L90.587 7.5C90.587 7.5 85.887 7.9 85.087 14.5C84.687 17.7 84.687 22.8 84.787 27.3C84.887 33.3 87.287 39.1 91.487 43.4C98.187 50.3 112.087 59.3 127.987 62C166.287 68.4 176.687 51.7 176.387 42.8C176.087 32.4 176.387 22.4 176.387 22.4Z" fill="#CC5292"/>
<path d="M84.7871 27.2C84.8871 33.2 87.2871 39 91.4871 43.3C98.1871 50.2 112.087 59.2 127.987 61.9C166.287 68.3 176.687 51.6 176.387 42.7" stroke="#993665" stroke-width="3" stroke-miterlimit="10" stroke-linecap="round" stroke-linejoin="round"/>
<path d="M150.087 29C150.087 29 158.487 30 158.287 39.3C158.087 48.6 158.487 61.5 158.487 61.5" stroke="#993665" stroke-width="3" stroke-miterlimit="10" stroke-linecap="round" stroke-linejoin="round"/>
<path d="M144.887 45C147.041 45 148.787 43.2539 148.787 41.1C148.787 38.9461 147.041 37.2 144.887 37.2C142.733 37.2 140.987 38.9461 140.987 41.1C140.987 43.2539 142.733 45 144.887 45Z" fill="white"/>
<path d="M144.887 57.6C147.041 57.6 148.787 55.8539 148.787 53.7C148.787 51.5461 147.041 49.8 144.887 49.8C142.733 49.8 140.987 51.5461 140.987 53.7C140.987 55.8539 142.733 57.6 144.887 57.6Z" fill="white"/>
</svg>
