<svg width="290" height="190" viewBox="0 0 290 190" fill="none" xmlns="http://www.w3.org/2000/svg">
<path d="M184 40.1767C186.3 41.7767 187.5 44.5767 186.8 47.3767C185.1 54.3767 176.9 67.8767 162.6 74.8767C139 86.3767 219.3 79.9767 219.3 79.9767C219.3 79.9767 214.6 68.2767 205.4 57.7767C191.7 42.1767 184 40.1767 184 40.1767Z" fill="white"/>
<path d="M210.7 64.6767C204.7 71.9767 197.5 77.3767 189.4 81.5767C204.4 81.1767 219.2 79.9767 219.2 79.9767C219.2 79.9767 216.3 72.7767 210.7 64.6767Z" fill="#EFEFEA"/>
<path d="M237.1 158.277H8C8.1 151.177 8.7 135.377 11 118.377C12.5 107.477 14.8 96.1767 18.2 86.2767C22.6 73.5767 28.6 64.2767 34.1 57.7767C34.2 57.6767 34.2 57.6767 34.2 57.6767C36.9 54.4767 39.4 51.9767 41.5 50.0767C52.3 40.3767 60 34.3767 63.7 31.7767C65 30.8767 67 30.5767 67.9 31.8767C83.8 53.9767 112.2 65.1767 140.2 71.0767C179.5 79.3767 217.9 77.1767 219.1 79.9767C225.1 93.5767 229.3 110.577 232.1 125.577C235 139.777 236.5 152.277 237.1 158.277Z" fill="#FFF573"/>
<path d="M68 31.8767C83.9 53.9767 112.3 65.1767 140.3 71.0767C179.6 79.3767 218 77.1767 219.2 79.9767" stroke="#FFAD76" stroke-width="3" stroke-miterlimit="10" stroke-linecap="round" stroke-linejoin="round"/>
<path d="M219.799 105.277C217.499 103.777 215.199 102.377 212.899 100.877C215.099 99.2766 217.299 97.6767 219.499 96.0767L226.399 100.477L219.799 105.277Z" fill="#606060"/>
<path d="M147.4 100.477C145.4 98.5767 143.5 96.5767 141.6 94.5767C144.1 93.4767 146.6 92.4767 149 91.3767C150.9 93.2767 152.8 95.1767 154.8 97.0767C152.4 98.1767 149.9 99.3767 147.4 100.477Z" fill="#606060"/>
<path d="M183.5 104.777C181.3 103.077 179.2 101.477 177.1 99.6767C179.5 98.3767 181.8 96.8767 184.1 95.4767C186.2 97.1767 188.4 98.8767 190.5 100.477C188.2 102.077 185.9 103.377 183.5 104.777Z" fill="white"/>
<path d="M112 91.1767C110.4 88.8767 108.8 86.6767 107.3 84.4767C109.9 83.8767 112.6 83.1767 115.2 82.4767C116.7 84.6767 118.4 86.7767 120 88.9767C117.3 89.6767 114.6 90.4767 112 91.1767Z" fill="white"/>
<path d="M50.7997 50.3767C50.5997 47.5767 50.4997 44.6767 50.7997 41.9767C53.1997 43.1767 55.6997 44.0767 58.1997 44.7767C58.1997 47.3767 58.3997 50.0767 58.7997 52.7767C56.1997 52.0767 53.4997 51.3767 50.7997 50.3767Z" fill="white"/>
<path d="M78.7992 75.1767C78.1992 73.9767 77.6992 72.5767 77.1992 71.3767C76.6992 70.0767 76.1992 68.8767 75.6992 67.5767C77.0992 67.5767 78.3992 67.5767 79.7992 67.5767C81.0992 67.5767 82.4992 67.5767 83.7992 67.4767C84.7992 69.8767 85.8992 72.4767 87.0992 74.8767C84.2992 74.9767 81.5992 75.0767 78.7992 75.1767Z" fill="#606060"/>
<path d="M237.1 158.277H73.5999C39.8999 145.577 16.1999 129.677 10.9999 118.377C10.0999 116.377 9.69986 114.577 9.99986 112.877C14.8999 78.4767 32.4999 59.4767 34.0999 57.7767C34.1999 57.6767 34.1999 57.6767 34.1999 57.6767C34.1999 57.6767 72.4999 127.077 232.2 125.577C235 139.777 236.5 152.277 237.1 158.277Z" fill="#FFAD76"/>
<path d="M66.2998 67.0767C70.1658 67.0767 73.2998 63.9427 73.2998 60.0767C73.2998 56.2107 70.1658 53.0767 66.2998 53.0767C62.4338 53.0767 59.2998 56.2107 59.2998 60.0767C59.2998 63.9427 62.4338 67.0767 66.2998 67.0767Z" fill="#FF6B57"/>
<path d="M97.0996 87.5767C100.966 87.5767 104.1 84.4427 104.1 80.5767C104.1 76.7107 100.966 73.5767 97.0996 73.5767C93.2336 73.5767 90.0996 76.7107 90.0996 80.5767C90.0996 84.4427 93.2336 87.5767 97.0996 87.5767Z" fill="#FF6B57"/>
<path d="M130.7 99.3767C134.566 99.3767 137.7 96.2427 137.7 92.3767C137.7 88.5107 134.566 85.3767 130.7 85.3767C126.834 85.3767 123.7 88.5107 123.7 92.3767C123.7 96.2427 126.834 99.3767 130.7 99.3767Z" fill="#FF6B57"/>
<path d="M166.3 105.177C170.166 105.177 173.3 102.043 173.3 98.1767C173.3 94.3107 170.166 91.1767 166.3 91.1767C162.434 91.1767 159.3 94.3107 159.3 98.1767C159.3 102.043 162.434 105.177 166.3 105.177Z" fill="#FF6B57"/>
<path d="M202.7 107.377C206.566 107.377 209.7 104.243 209.7 100.377C209.7 96.5107 206.566 93.3767 202.7 93.3767C198.834 93.3767 195.7 96.5107 195.7 100.377C195.7 104.243 198.834 107.377 202.7 107.377Z" fill="#FF6B57"/>
</svg>
