<svg width="30" height="20" viewBox="0 0 30 20" fill="none" xmlns="http://www.w3.org/2000/svg">
<path d="M25.9585 9.25018C26.0585 10.8502 24.8584 13.6502 22.6584 15.6502C11.3584 8.75017 6.25844 12.3502 6.25844 12.3502C2.25844 6.25019 3.15845 -2.04982 12.8584 4.25018C19.6585 8.55018 23.7585 9.25018 25.9585 9.25018Z" fill="#423232"/>
<path d="M22.6583 15.6502C20.2583 17.7502 16.6583 19.0502 11.7583 17.0502C9.4583 16.1502 7.6583 14.3502 6.2583 12.3502C6.2583 12.3502 11.3583 8.7502 22.6583 15.6502Z" fill="#FE9DAB"/>
<path d="M27.8583 8.85025C27.8583 8.85025 23.6583 11.1502 12.8583 4.25024C-0.0416775 -4.04976 2.55831 13.3502 11.6583 17.0502C21.1583 20.9502 26.0583 12.4502 25.9583 9.25024" stroke="#423232" stroke-width="3" stroke-miterlimit="10" stroke-linecap="round" stroke-linejoin="round"/>
<path d="M6.2583 12.3502C6.2583 12.3502 11.3583 8.7502 22.6583 15.6502" stroke="#423232" stroke-width="3" stroke-miterlimit="10" stroke-linecap="round" stroke-linejoin="round"/>
</svg>
