<svg width="33" height="18" viewBox="0 0 33 18" fill="none" xmlns="http://www.w3.org/2000/svg">
<path d="M28.4092 7.22608C28.2092 8.92608 28.1092 10.1261 27.8092 11.1261C26.6092 16.4261 24.2092 13.8261 19.8092 13.9261C14.3092 14.0261 4.90922 19.3261 2.90922 12.2261C2.50922 10.9261 2.30923 9.72609 2.20923 8.62609C1.20923 -1.37391 11.0092 1.92608 20.8092 5.72608C24.6092 7.32608 27.0092 7.42608 28.4092 7.22608Z" fill="white"/>
<path d="M27.909 11.1261L25.209 10.826" stroke="#423232" stroke-width="2.6265" stroke-miterlimit="10" stroke-linecap="round" stroke-linejoin="round"/>
<path d="M30.9093 5.7261C30.9093 5.7261 29.5093 9.22611 20.8093 5.82611C9.80933 1.52611 -1.29067 -1.97389 2.90933 12.3261C5.00933 19.3261 14.3093 14.1261 19.8093 14.0261C25.0093 13.9261 27.4093 17.5261 28.4093 7.32611" stroke="#423232" stroke-width="2.6265" stroke-miterlimit="10" stroke-linecap="round" stroke-linejoin="round"/>
<path d="M2.20898 8.62603C3.20898 8.82603 8.80898 6.82602 10.109 8.72602C11.409 10.626 13.009 8.92602 13.809 9.22602C14.609 9.52602 18.209 10.026 18.209 10.026" stroke="#423232" stroke-width="2.6265" stroke-miterlimit="10" stroke-linecap="round" stroke-linejoin="round"/>
</svg>
