<svg width="78" height="43" viewBox="0 0 78 43" fill="none" xmlns="http://www.w3.org/2000/svg">
<path d="M28.0714 12.6113C30.2714 12.9113 31.9714 10.6113 31.1714 8.41128C30.7714 7.21128 30.0714 6.11128 28.9714 5.41128C25.5714 3.31128 12.8714 3.11128 6.17142 7.91128C0.271422 12.3113 18.0714 11.2113 28.0714 12.6113Z" fill="#423232"/>
<path d="M55.7712 13.7113C53.9712 13.7113 52.8712 11.4113 53.7712 9.51126C54.2712 8.51126 54.9711 7.61126 55.9711 7.11126C59.0711 5.61126 67.3711 6.51126 71.0711 11.6113C74.3711 16.1113 64.0712 13.6113 55.7712 13.7113Z" fill="#423232"/>
<path d="M24.5713 25.2112C16.7713 28.5113 8.07129 24.4113 8.07129 24.4113" stroke="#423232" stroke-width="3" stroke-miterlimit="10" stroke-linecap="round" stroke-linejoin="round"/>
<path d="M64.0716 27.2113C64.0716 27.2113 58.6716 30.5113 51.8716 26.6113" stroke="#423232" stroke-width="3" stroke-miterlimit="10" stroke-linecap="round" stroke-linejoin="round"/>
</svg>
