<svg width="78" height="43" viewBox="0 0 78 43" fill="none" xmlns="http://www.w3.org/2000/svg">
<path d="M14.8282 34.6785C12.4282 34.5785 10.6282 32.5785 10.8282 30.1785L10.9282 27.3785C11.0282 24.9785 13.0282 23.1785 15.4282 23.3785C17.8282 23.4785 19.6282 25.4785 19.4282 27.8785L19.3282 30.6785C19.2282 32.9785 17.2282 34.7785 14.8282 34.6785Z" fill="#423232"/>
<path d="M56.9282 36.1784C54.7282 36.0784 53.0282 34.1784 53.1282 31.9784L53.2282 29.3784C53.3282 27.1784 55.2282 25.4784 57.4282 25.5784C59.6282 25.6784 61.3282 27.5784 61.2282 29.7784L61.1282 32.3784C61.0282 34.5784 59.1282 36.2784 56.9282 36.1784Z" fill="#423232"/>
<path d="M24.5283 28.8784C24.5283 28.8784 21.9283 25.1784 17.4283 24.4784C13.7283 23.8784 9.62832 25.6784 9.02832 27.7784" stroke="#423232" stroke-width="3" stroke-miterlimit="10" stroke-linecap="round" stroke-linejoin="round"/>
<path d="M54.0283 29.7784C54.0283 29.7784 54.0283 26.5784 58.6283 26.5784C62.4283 26.5784 64.0283 30.0784 64.0283 30.0784" stroke="#423232" stroke-width="3" stroke-miterlimit="10" stroke-linecap="round" stroke-linejoin="round"/>
<path d="M30.2282 11.4784C32.4282 11.2784 33.5282 8.67841 32.3282 6.67841C31.6282 5.67841 30.7282 4.7784 29.4282 4.2784C25.6282 3.0784 13.2282 5.77839 7.8282 11.9784C3.0282 17.6784 20.2282 12.3784 30.2282 11.4784Z" fill="#423232"/>
<path d="M56.628 13.0784C54.928 12.5784 54.428 10.0784 55.828 8.47841C56.528 7.67841 57.528 6.97842 58.628 6.77842C62.028 6.17842 69.828 9.27842 72.028 15.1784C74.028 20.2784 64.728 15.0784 56.628 13.0784Z" fill="#423232"/>
</svg>
