<svg width="78" height="43" viewBox="0 0 78 43" fill="none" xmlns="http://www.w3.org/2000/svg">
<path d="M21.6425 26.507C21.6425 26.507 14.6425 26.607 7.54248 21.307" stroke="#423232" stroke-width="3" stroke-miterlimit="10" stroke-linecap="round" stroke-linejoin="round"/>
<path d="M51.3428 28.107C51.3428 28.107 58.5428 26.807 60.6428 24.007" stroke="#423232" stroke-width="3" stroke-miterlimit="10" stroke-linecap="round" stroke-linejoin="round"/>
<path d="M26.4428 18.807C28.3428 19.907 30.7428 18.407 30.8428 16.107C30.8428 14.907 30.6428 13.607 29.8428 12.507C27.4428 9.30695 15.7428 4.40695 7.64281 6.50695C0.642813 8.30695 17.7428 13.807 26.4428 18.807Z" fill="#423232"/>
<path d="M57.143 20.007C55.743 21.107 53.443 19.807 53.143 17.707C52.943 16.607 53.043 15.407 53.543 14.407C55.143 11.407 62.543 7.307 68.543 9.307C73.743 11.207 63.843 15.107 57.143 20.007Z" fill="#423232"/>
<path d="M10.3428 23.1069C9.54284 23.8069 9.04283 24.9069 8.94283 26.0069L8.84284 28.8069C8.74284 31.2069 10.5428 33.2069 12.8428 33.3069C15.2428 33.4069 17.2428 31.6069 17.3428 29.3069L17.4428 26.5069C17.4428 26.4069 17.4428 26.3069 17.4428 26.2069C14.8428 26.0069 12.5428 24.9069 10.3428 23.1069Z" fill="#423232"/>
<path d="M51.3429 27.907C51.3429 28.007 51.3429 28.007 51.3429 28.107L51.243 30.707C51.143 32.907 52.843 34.807 55.043 34.907C57.2429 35.007 59.143 33.307 59.243 31.107L59.3429 28.507C59.4429 27.507 59.0429 26.607 58.543 25.907C56.343 27.207 53.9429 27.507 51.3429 27.907Z" fill="#423232"/>
</svg>
