<svg width="78" height="43" viewBox="0 0 78 43" fill="none" xmlns="http://www.w3.org/2000/svg">
<path d="M18.0717 27.3113C18.0717 27.4113 18.0717 27.5113 18.0717 27.5113L17.9717 30.3113C17.8717 32.7113 15.8717 34.5113 13.4717 34.4113C11.0717 34.3113 9.27172 32.2113 9.47172 29.9113L9.57173 27.1113C9.57173 26.6113 9.77172 26.0113 9.97172 25.6113L17.9717 26.0113C17.9717 26.4113 18.0717 26.8113 18.0717 27.3113Z" fill="#423232"/>
<path d="M59.8713 29.5113L59.7713 32.1113C59.6713 34.3113 57.7713 36.0113 55.5713 35.9113C53.3713 35.8113 51.6713 33.9113 51.7713 31.7113L51.8713 29.1113C51.8713 28.6113 51.9713 28.1113 52.1713 27.7113L59.6713 28.0113C59.8713 28.5113 59.8713 29.0113 59.8713 29.5113Z" fill="#423232"/>
<path d="M28.0714 13.6113C30.2714 13.9113 31.9714 11.6113 31.1714 9.41128C30.7714 8.21128 30.0714 7.11128 28.9714 6.41128C25.5714 4.31128 12.8714 4.11128 6.17142 8.91128C0.271422 13.3113 18.0714 12.2113 28.0714 13.6113Z" fill="#423232"/>
<path d="M55.7712 14.7113C53.9712 14.7113 52.8712 12.4113 53.7712 10.5113C54.2712 9.51126 54.9711 8.61126 55.9711 8.11126C59.0711 6.61126 67.3711 7.51126 71.0711 12.6113C74.3711 17.1113 64.0712 14.6113 55.7712 14.7113Z" fill="#423232"/>
<path d="M24.5713 26.2112L17.8713 25.9112L9.87129 25.6112L8.07129 25.5112" stroke="#423232" stroke-width="3" stroke-miterlimit="10" stroke-linecap="round" stroke-linejoin="round"/>
<path d="M64.0716 28.2113L59.6716 28.0113L52.1716 27.7113H51.8716" stroke="#423232" stroke-width="3" stroke-miterlimit="10" stroke-linecap="round" stroke-linejoin="round"/>
</svg>
