<svg width="78" height="43" viewBox="0 0 78 43" fill="none" xmlns="http://www.w3.org/2000/svg">
<path d="M14.4331 34.0475C12.0331 33.9475 10.2331 31.9475 10.4331 29.5475L10.5331 26.7475C10.6331 24.3475 12.6331 22.5475 15.0331 22.7475C17.4331 22.8475 19.2331 24.8475 19.0331 27.2475L18.9331 30.0475C18.8331 32.3475 16.8331 34.1475 14.4331 34.0475Z" fill="#423232"/>
<path d="M56.5332 35.5474C54.3332 35.4474 52.6332 33.5474 52.7332 31.3474L52.8332 28.7474C52.9332 26.5474 54.8332 24.8474 57.0332 24.9474C59.2332 25.0474 60.9332 26.9474 60.8332 29.1474L60.7332 31.7474C60.6332 33.9474 58.7332 35.6474 56.5332 35.5474Z" fill="#423232"/>
<path d="M24.1333 28.2475C24.1333 28.2475 21.5333 24.5474 17.0333 23.8474C13.3333 23.2474 9.2333 25.0475 8.6333 27.1475" stroke="#423232" stroke-width="3" stroke-miterlimit="10" stroke-linecap="round" stroke-linejoin="round"/>
<path d="M53.6333 29.1475C53.6333 29.1475 53.6333 25.9475 58.2333 25.9475C62.0333 25.9475 63.6333 29.4475 63.6333 29.4475" stroke="#423232" stroke-width="3" stroke-miterlimit="10" stroke-linecap="round" stroke-linejoin="round"/>
<path d="M28.233 12.1474C30.333 12.8474 32.433 10.9474 32.033 8.64745C31.833 7.44745 31.333 6.24744 30.333 5.34744C27.333 2.64744 14.933 0.247451 7.43303 3.74745C0.833032 6.94745 18.633 8.94745 28.233 12.1474Z" fill="#423232"/>
<path d="M58.1329 13.7475C56.4329 14.3475 54.6329 12.5475 54.9329 10.4475C55.0329 9.34748 55.4329 8.24748 56.2329 7.44748C58.6329 5.04748 66.8329 3.14747 72.0329 6.84747C76.5329 9.94747 65.9329 10.8475 58.1329 13.7475Z" fill="#423232"/>
</svg>
