<svg width="78" height="43" viewBox="0 0 78 43" fill="none" xmlns="http://www.w3.org/2000/svg">
<path d="M28.7088 12.6113C30.8813 12.9113 32.5601 10.6113 31.7701 8.41128C31.3751 7.21128 30.6838 6.11128 29.5976 5.41128C26.2401 3.31128 13.6988 3.11128 7.08256 7.91128C1.25631 12.3113 18.8338 11.2113 28.7088 12.6113Z" fill="#423232"/>
<path d="M56.062 13.7113C54.2845 13.7113 53.1982 11.4113 54.087 9.51126C54.5807 8.51126 55.272 7.61126 56.2595 7.11126C59.3207 5.61126 67.517 6.51126 71.1707 11.6113C74.4295 16.1113 64.2582 13.6113 56.062 13.7113Z" fill="#423232"/>
<path d="M25.2518 25.2112C18.9318 22.0112 8.95801 24.4112 8.95801 24.4112" stroke="#423232" stroke-width="3" stroke-miterlimit="10" stroke-linecap="round" stroke-linejoin="round"/>
<path d="M64.2585 27.2113C64.2585 27.2113 61.6909 24.4113 52.2109 26.6113" stroke="#423232" stroke-width="3" stroke-miterlimit="10" stroke-linecap="round" stroke-linejoin="round"/>
</svg>
